<?xml version="1.0" encoding="utf-8"?>
<!-- Generator: Adobe Illustrator 22.1.0, SVG Export Plug-In . SVG Version: 6.00 Build 0)  -->
<svg version="1.1" id="Layer_1" xmlns="http://www.w3.org/2000/svg" xmlns:xlink="http://www.w3.org/1999/xlink" x="0px" y="0px"
	 viewBox="0 0 360 360" style="enable-background:new 0 0 360 360;" xml:space="preserve">
<path d="M184.2,52.6c-70.4,0-127.4,57-127.4,127.4s57,127.4,127.4,127.4s127.4-57,127.4-127.4S254.6,52.6,184.2,52.6z M270,249.8
	c-1.1-0.2-2.3-0.3-3.2-0.8c-4.9-2.5-9.8-5.1-14.6-7.8c-4.3-2.4-8.5-5-12.7-7.4c-1.1-0.6-2.2-1.1-3.4-1.5c-5.3-1.9-10.2-4.5-15-7.5
	c-1-0.6-1.9-1.3-3-1.8c-1.4-0.7-2.2-0.4-3,1c-1.4,2.5-1.9,5.2-1.9,8c0,3.4,0.3,6.8,0.5,10.1c0.2,3.2,0.5,6.3-0.1,9.5
	c-0.5,2.3-1,2.9-3.3,2.6c-3.5-0.4-7-1.1-9.9-3.3c-1.7-1.3-1.7-1.5-1-3.6c0.3-0.7,0.3-1.7,0-2.4c-1.4-3.1-2.9-6.2-4.4-9.2
	c-0.5-0.9-1-1.8-1.6-2.7c-1.7-2.7-2.4-5.6-1.8-8.7c0.5-2.6-0.5-4.4-2.7-5.8c-2.1-1.3-4.2-2.4-6.6-2.7c-1.5-0.2-1.9,0.1-2.1,1.6
	c-0.1,0.7-0.1,1.5-0.1,2.2c0.1,4.7-0.1,9.3-1.2,14c-0.8,3.6-1.1,7.4-1.6,11.1c-0.3,2.3-1.2,4.3-3.5,5.2c-0.7,0.3-1.6,0.5-2.3,0.3
	c-2.4-0.8-4.7-1.8-7.1-2.8c-0.2-0.1-0.4-0.3-0.6-0.4c-1.5-1.2-1.5-1.7,0-2.8c0.4-0.3,0.7-0.6,1.1-0.8c2.1-1.2,2.8-3,2.7-5.3
	c-0.1-2.3-0.3-4.5-0.4-6.8c-0.2-4.2,0.1-8.4,0.9-12.6c0.3-1.6-0.1-3.3-0.4-4.9c-0.1-0.7-0.6-1.3-1-1.9c-1.4-1.8-2.4-1.9-4.2-0.4
	c-0.8,0.6-1.5,1.4-2.2,2.1c-1.2,1.3-2.3,2.8-3.7,3.9c-2.6,2.2-3,5-2.7,8.1c0.2,2.2,1.1,4.1,2.3,6c0.9,1.5,1.8,3,1.4,4.8
	c-0.1,0.3-0.1,0.7-0.3,0.9c-1.5,2.7-3.6,4.9-6.5,5.9c-2.1,0.8-4.2-0.3-5.8-1.6c-1.3-1.1-1.4-2.7-1-4.2c0.2-0.8,0.7-1.6,1.4-2.2
	c1.5-1.4,1.8-3,1.3-4.9c-0.7-2.9-1.5-5.7-2.1-8.6c-0.4-1.7-0.6-3.4-0.7-5.1c-0.1-1.4,0.4-2.7,1.4-3.8c3.2-3.2,4.8-7.5,7.1-11.4
	c0.7-1.2,0.6-2.6-0.1-3.9c-0.3-0.6-0.7-1.2-1.1-1.8c-1.7-2.2-2.2-4.6-2.1-7.3c0-2.8,0.3-5.6,1-8.3c0.3-1.3,0.2-2.6-0.4-3.8
	c-0.8-1.5-1.5-3.2-2.6-4.5c-5.1-6.4-7.8-13.9-10-21.6c-2.2-7.9-4.9-15.6-8-23.2c-1.6-3.8-3.9-7-6.7-10c-2.8-3-5.9-4.1-9.9-3.2
	c-1.1,0.2-2.2,0.2-3.4,0.2c-0.6,0-1.2-0.2-1.8-0.5c-0.5-0.3-0.8-0.8-1.2-1.2c0.4-0.4,0.8-0.8,1.3-1c1-0.4,2.2-0.8,3.2-1.4
	c-1.7,0-3.4,0-5.5,0c0.4-0.8,0.5-1.4,0.9-1.7c2.5-2.2,3.4-5.4,4.8-8.2c0.5-1,1.2-1.9,1.8-2.8c0.6,0,1.2,0,1.7,0c1.2,1,2.4,2,3.6,2.9
	c0.8,0.6,1.6,1.5,2.6,1.7c2.6,0.8,4.7,2.3,6.5,4.2c5.1,5.2,9.7,10.8,13.4,17.1c0.5,0.8,0.8,1.6,1.1,2.5c1.3,2.8,2.4,5.7,3.8,8.4
	c2.9,5.8,5.9,11.5,9.1,17.1c1.8,3.1,4.1,5.9,6.3,8.8c2.1,2.8,5,4,8.5,4.1c4.1,0.2,8.1,0.6,12.2,1.1c2.4,0.3,4.6,1.3,6.6,2.6
	c3.7,2.4,7.5,4.8,11.2,7.1c3.1,1.9,5.7,4.2,8.2,6.8c1.6,1.7,3.4,3.3,5.3,4.6c3.6,2.4,6.1,5.8,8.6,9.2c4.8,6.8,10.3,13.1,16.1,19.1
	c5.6,5.9,11.7,11.3,17.4,17.2c4.7,4.8,9,10,13.5,15c0.6,0.7,1.1,1.5,1.6,2.3C270,249.2,270,249.5,270,249.8z"/>
</svg>
