<svg id="Layer_1" data-name="Layer 1" xmlns="http://www.w3.org/2000/svg" viewBox="0 0 254.82 254.82"><defs><style>.cls-1{fill:#231f20;}</style></defs><title>fossil</title><path class="cls-1" d="M198.9,124.36c-3.37,7.65-6.33,15.57-12.2,21.84,2.36,2.44,5,2.35,7.08-.92,7.58-11.93,15.09-23.91,22.31-36.06,3.54-6-.92-17.78-8.18-19.31,1.49,6.39,0,12.33-2.43,18.16C203.25,113.48,201.26,119,198.9,124.36Z" transform="translate(-56.82 -52.59)"/><path class="cls-1" d="M173.05,142.15c7.16-17,13.46-34.1,14-52.77l-1.17-.28c-1.61,4.6-3.05,9.27-4.85,13.8-3.89,9.76-7.72,19.55-12,29.12C167,136.49,167.74,139.85,173.05,142.15Z" transform="translate(-56.82 -52.59)"/><path class="cls-1" d="M179,144c1.35-.27,3.23-.07,4-.9a33,33,0,0,0,5.63-8c4.63-10.26,9.12-20.59,13.19-31.08,1.32-3.38,1.52-7.3,1.65-11,.11-2.86-2-4.38-4.84-4.56-2.4-.15-4.82-.13-7.13-.18-.58,5.17-.62,10.28-1.81,15.1-3.08,12.48-4.76,25.4-10.68,37.08C178.45,141.42,178.91,142.82,179,144Z" transform="translate(-56.82 -52.59)"/><path class="cls-1" d="M192.48,157.54l-9.62,14.31.8.78c3.09-2.62,6.26-5.15,9.26-7.88C196.21,161.74,196.12,160.87,192.48,157.54Z" transform="translate(-56.82 -52.59)"/><path class="cls-1" d="M183.82,191.43l-6.55-1.21,4.45,5Z" transform="translate(-56.82 -52.59)"/><path class="cls-1" d="M163.49,189.12c2.18,0,4.37,0,6.55-.18,1-.08,2.41-.33,3-1a2.91,2.91,0,0,0-.32-2.85c-.81-.75-2.56-1.51-3.29-1.12a58.18,58.18,0,0,0-6.52,4.6Z" transform="translate(-56.82 -52.59)"/><path class="cls-1" d="M150.7,201.36l5.57-4.09-.4-1c-2,.66-4.06,1.27-6,2.09A23.5,23.5,0,0,0,150.7,201.36Z" transform="translate(-56.82 -52.59)"/><path class="cls-1" d="M160.67,181.32a28.77,28.77,0,0,0-2.69-3.55c-.49-.5-1.51-.47-2.3-.67-.05.84-.49,2.12-.1,2.45a32.44,32.44,0,0,0,4.34,2.79Z" transform="translate(-56.82 -52.59)"/><path class="cls-1" d="M178.53,185.82l4.64.86c.13-1,.27-2,.46-3.51l-5.06,1.46Z" transform="translate(-56.82 -52.59)"/><path class="cls-1" d="M160.25,168.56a25,25,0,0,0-.66-3.61c-2.17-6.53-4.35-13.06-6.69-19.53a13.57,13.57,0,0,0-2.83-4.74,4.65,4.65,0,0,0-3.67-1.19,50.15,50.15,0,0,0-7.05,2.48L159.17,169Z" transform="translate(-56.82 -52.59)"/><path class="cls-1" d="M157.11,186c-1.65-.94-3.25-2-5-2.76-.47-.21-1.31.38-2,.6.36.59.59,1.53,1.09,1.69,1.82.6,3.73.93,5.6,1.37Z" transform="translate(-56.82 -52.59)"/><path class="cls-1" d="M167.33,162.74c.17-2.92,0-5.85.24-8.76.4-5.2-.47-9.92-3.85-14.13-2.32-2.89-5.41-3.63-8.45-1.75l10.35,28.7A6.81,6.81,0,0,0,167.33,162.74Z" transform="translate(-56.82 -52.59)"/><path class="cls-1" d="M191.09,182.82l13.66-6.27C201.22,175,194.18,178.49,191.09,182.82Z" transform="translate(-56.82 -52.59)"/><path class="cls-1" d="M205.16,182.62a8.8,8.8,0,0,0-2,.2c-2.89,1.14-5.76,2.33-8.64,3.5l.09.67,10.59-.2C205.2,185.25,205.18,184,205.16,182.62Z" transform="translate(-56.82 -52.59)"/><path class="cls-1" d="M204,193c-.7-.41-1.39-1.14-2.11-1.18-2.72-.12-5.46,0-8.19,0l-.18,1.93c2.77.11,5.55.3,8.32.27C202.53,194,203.25,193.34,204,193Z" transform="translate(-56.82 -52.59)"/><path class="cls-1" d="M195.84,207.33c.88-2.77.18-3.37-5.53-4.63Z" transform="translate(-56.82 -52.59)"/><path class="cls-1" d="M201.7,198.94l-8.48-1.55C199.65,201.77,199.82,201.8,201.7,198.94Z" transform="translate(-56.82 -52.59)"/><path class="cls-1" d="M196.44,151.57a45.46,45.46,0,0,0,5.46-4.42c7-6.91,13.82-13.94,20.74-20.9,9.64-9.69,9.54-20.32,0-28.06-.36,3.84.41,8.33-1.3,11.47-8,14.63-15.43,29.7-27.83,42.59C195,151.94,195.87,152,196.44,151.57Z" transform="translate(-56.82 -52.59)"/><path class="cls-1" d="M152.58,169c-4.9-6.86-9.68-13.8-14.4-20.78-1.87-2.77-4.23-2.95-6.64-1.34a87.1,87.1,0,0,0-7.16,5.82L151.65,174C154.41,172.74,154.12,171.17,152.58,169Z" transform="translate(-56.82 -52.59)"/><path class="cls-1" d="M181.21,178.91l-2.82-3.35-1.19.15c0,1.37-.07,2.73-.11,4.1l3.9.1C181.06,179.58,181.13,179.24,181.21,178.91Z" transform="translate(-56.82 -52.59)"/><path class="cls-1" d="M170,178.28h1.15l3.16-5.85-5.44.15Q169.48,175.43,170,178.28Z" transform="translate(-56.82 -52.59)"/><path class="cls-1" d="M172.62,147.32c-.2,6.41-.4,12.57-.6,18.74a8.1,8.1,0,0,0,2.21-3.77c.81-2.93,1.21-6,2.29-8.82C178.26,148.89,177.54,147.53,172.62,147.32Z" transform="translate(-56.82 -52.59)"/><path class="cls-1" d="M186.08,158.75c3.28-4.2,2.32-6.7-3.72-7.9-1.59,5.61-3.18,11.26-4.78,16.91l1.37.75C181.32,165.25,183.61,161.93,186.08,158.75Z" transform="translate(-56.82 -52.59)"/><path class="cls-1" d="M187.55,176.16l.86,1.19,12.65-7.49-2.17-4Z" transform="translate(-56.82 -52.59)"/><path class="cls-1" d="M191.83,217a35.71,35.71,0,0,0,3.55,10.4c3.53,6.46,7.62,12.61,11.07,19.12,3.52,6.66,8.59,7.67,14.37,2.19C209.48,239.59,201,228.12,191.83,217Z" transform="translate(-56.82 -52.59)"/><path class="cls-1" d="M249.71,207.91c-13.33-1.84-26.62-3.86-39.12-9.23a17.52,17.52,0,0,0-2.72-.71l-.43.85a16,16,0,0,0,2.66,2.43c6.09,3.45,12.2,6.86,18.38,10.15a135.3,135.3,0,0,0,13.21,6.44c4.38,1.73,7.39.44,9.85-3.55,1.41-2.27,2.56-4.7,3.91-7.23C253.32,207.41,251.45,208.16,249.71,207.91Z" transform="translate(-56.82 -52.59)"/><path class="cls-1" d="M253.37,178.68c-12.18,2.08-24.48,3.41-36.74,5-2,.26-3.93.5-6.37.8,2.59,4,6,3.77,9.2,3.86,6.91.18,13.82.28,20.72.34,3,0,6.16.29,9.11-.26,9.52-1.75,13.41-4.64,12.63-14.13a5.39,5.39,0,0,1,0-.84C259.12,175.24,256.45,178.16,253.37,178.68Z" transform="translate(-56.82 -52.59)"/><path class="cls-1" d="M210,193.1c2.17,1,4.24,2.39,6.51,2.94,9.24,2.26,18.47,4.63,27.83,6.26,10.3,1.8,13.8-.93,16.16-11.13.1-.44.63-.78.94-1.15C243.94,196.17,227.06,192.93,210,193.1Z" transform="translate(-56.82 -52.59)"/><path class="cls-1" d="M146.69,176.74c-7.61-6.17-15.25-12.3-22.86-18.47-2.36-1.91-4.31-.73-5.78,1a53.78,53.78,0,0,0-3.8,5.81l34,13.73A14.89,14.89,0,0,0,146.69,176.74Z" transform="translate(-56.82 -52.59)"/><path class="cls-1" d="M203.11,213.34c-2.13-1.75-4.28-3.66-6.73,0a189,189,0,0,0,23.49,28.38c3.16,3.19,6.09,3,9.72.15,1.92-1.52,3.64-3.29,5.47-5-4.55-2.78-9.05-5.07-13-8.07C215.55,223.9,209.41,218.52,203.11,213.34Z" transform="translate(-56.82 -52.59)"/><path class="cls-1" d="M228.89,125.91c-9.58,10.36-18.34,21.56-30.15,30.24,3.92,1.21,7,.64,11.72-2.7,8-5.69,16-11.45,23.8-17.5a28.17,28.17,0,0,0,6.24-7.47c2-3.18,2.75-6.89.7-10.37-1.68-2.83-3.86-5.37-5.81-8C235.59,116.6,232.83,121.64,228.89,125.91Z" transform="translate(-56.82 -52.59)"/><path class="cls-1" d="M184.23,52.59A127.41,127.41,0,1,0,311.64,180,127.41,127.41,0,0,0,184.23,52.59Zm80.56,138.29c-4.4,23.79-17.83,45.15-39.43,60.48a76,76,0,0,1-53.21,15.41c-24.84-2.24-45-13.3-58.57-34.28C95.77,205,99.52,171.8,120.52,149.74c10.25-10.78,22.91-17,38-17.26,5.39-.1,7.62-3.56,9.34-7.66,2.18-5.19,4.15-10.47,6.07-15.76,2.2-6.07,4.3-12.17,6.35-18.29,1.65-4.88,4.25-7.11,9.47-7.31,3.51-.13,7.17.85,10.52.17,5.12-1,9.08,1,13.19,3.2C250.5,106.7,272.21,150.74,264.79,190.88Z" transform="translate(-56.82 -52.59)"/><path class="cls-1" d="M186.34,221.2c1.67,9.64,3,19,5,28.22,2.54,11.86,3.57,12.21,14.56,7.1.4-.18.69-.58.54-.45C199.73,244.48,193.18,233.09,186.34,221.2Z" transform="translate(-56.82 -52.59)"/><path class="cls-1" d="M252.48,163c-11.58,6.11-24.33,8.69-37.07,11.19-2.17.42-4.16,1.77-6.22,2.7,2.15.8,4.4,2.48,6.44,2.26,11.41-1.25,22.85-2.49,34.11-4.65,9.29-1.78,12.87-9.73,9.54-18.38C257.1,158.39,255.24,161.54,252.48,163Z" transform="translate(-56.82 -52.59)"/><path class="cls-1" d="M245.41,149.51A128.93,128.93,0,0,1,227.14,160c-6.75,3.38-13.77,6.22-21,9.45,3.43,1.88,6.52.71,9.65-.19,10.45-3,21.05-5.54,31.32-9.05a13.62,13.62,0,0,0,6.75-20.79C251.15,142.76,248.89,147,245.41,149.51Z" transform="translate(-56.82 -52.59)"/><path class="cls-1" d="M225.54,148.82c-7.09,5.28-14.15,10.72-23.18,13.31,1.5.83,3.37,1.91,4.66,1.43,13.53-5,26.54-11.15,37.79-20.38,4.91-4,5.63-11.55,2.38-16.56-1.92,3.19-3.28,6.9-5.84,9.35A168.53,168.53,0,0,1,225.54,148.82Z" transform="translate(-56.82 -52.59)"/><path class="cls-1" d="M211.22,207.41c-2.2-1.15-4.38-2.34-6.56-3.52L203.39,205c1,1.91,1.58,4.33,3.1,5.63,4.62,3.91,9.6,7.41,14.46,11,3.75,2.78,7.34,5.88,11.4,8.1,2.09,1.15,5.6,1.74,7.49.74,2.7-1.41,4.49-4.53,5.91-6.09a37.8,37.8,0,0,1-5.65-1.93C230.44,217.54,220.84,212.46,211.22,207.41Z" transform="translate(-56.82 -52.59)"/><path class="cls-1" d="M143.54,203.65c-8.73,2.51-17.55,4.77-26.11,7.74-6.53,2.27-7.53,8-3,13.94,11-6.81,21.85-13.47,32.91-20.27C147.05,203.19,145.36,203.12,143.54,203.65Z" transform="translate(-56.82 -52.59)"/><path class="cls-1" d="M140.74,196.79c-5.5-.16-11-.49-16.5-.21a100,100,0,0,0-12.68,2c-2.6.48-3.75,2.4-3.66,4.86a52.27,52.27,0,0,0,.77,6l36-12A27.53,27.53,0,0,0,140.74,196.79Z" transform="translate(-56.82 -52.59)"/><path class="cls-1" d="M145,184.56a6,6,0,0,0-2.62-2.4c-7.15-3.19-14.36-6.25-21.49-9.48-7.42-3.35-11.75-.57-12,8.17C121.28,178,133,182.11,145,184.56Z" transform="translate(-56.82 -52.59)"/><path class="cls-1" d="M181.57,221.22l-.91-.64c-.57,1-1.53,2-1.64,3.09-1.2,11.56-2.29,23.13-3.35,34.71-.27,3,1.43,4.49,4.23,4.36,3.43-.17,6.84-.73,9.45-1-1.6-7.08-3.25-13.59-4.51-20.18S182.64,228,181.57,221.22Z" transform="translate(-56.82 -52.59)"/><path class="cls-1" d="M143.39,191.94l.38-1c-.9-.6-1.73-1.55-2.7-1.73-8.75-1.62-17.47-3.65-26.3-4.45-6-.54-8.19,2.22-7.12,10.51C119.06,188.75,131.45,192.84,143.39,191.94Z" transform="translate(-56.82 -52.59)"/><path class="cls-1" d="M139.07,225.27c4.07-3.33,8.41-6.34,12.51-9.62.94-.75,1.42-2.07,2.1-3.13-1.44-.68-3-2.11-4.3-1.88a19.18,19.18,0,0,0-6.35,2.83c-6.9,4.22-13.67,8.66-20.58,12.85-5.14,3.11-5.29,3.34-1.83,8.1.28.38.58.75.83,1.14,1.66,2.63,3,3.17,5.53.43A118.69,118.69,0,0,1,139.07,225.27Z" transform="translate(-56.82 -52.59)"/><path class="cls-1" d="M155.43,221.85c1.35-1.65,2.88-3.16,4.32-4.73-.39-.4-.79-.79-1.19-1.19L128,241.66c3.86,3.17,7.05,5.8,10.9,9,4.33-8.17,8.19-15.61,12.23-23A39.19,39.19,0,0,1,155.43,221.85Z" transform="translate(-56.82 -52.59)"/><path class="cls-1" d="M170.58,224.14a112.87,112.87,0,0,0-4.53,12.14c-1.69,5.84-2.78,11.85-4.46,17.69-1.29,4.51-.39,6.46,4.15,7.64,1.81.46,3.53,1.21,4.57,1.57,1.14-14.47,2.18-27.7,3.23-40.92l-.5-.77C172.2,222.36,171,223.09,170.58,224.14Z" transform="translate(-56.82 -52.59)"/><path class="cls-1" d="M173.79,194.53l-1.08.74a27,27,0,0,0,1.91,4.39c.17.26,1.81-.43,3.58-.88Z" transform="translate(-56.82 -52.59)"/><path class="cls-1" d="M166.35,220.51c-1.36.35-3.26.25-4,1.12a117.15,117.15,0,0,0-8.66,11.8c-3.05,4.84-5.54,10-8.49,14.92-1.76,2.91-1.76,4.25,1.33,5.85s6.16,2.73,9.4,4.14c.94-4.61,1.53-8.93,2.73-13.07,2.08-7.16,4.55-14.21,6.83-21.32C165.87,222.83,166.07,221.66,166.35,220.51Z" transform="translate(-56.82 -52.59)"/></svg>