<?xml version="1.0" encoding="utf-8"?>
<!-- Generator: Adobe Illustrator 22.1.0, SVG Export Plug-In . SVG Version: 6.00 Build 0)  -->
<svg version="1.1" id="Layer_1" xmlns="http://www.w3.org/2000/svg" xmlns:xlink="http://www.w3.org/1999/xlink" x="0px" y="0px"
	 viewBox="0 0 360 360" style="enable-background:new 0 0 360 360;" xml:space="preserve">
<title>Layer 1</title>
<path d="M184.2,52.6c-70.4,0-127.4,57-127.4,127.4s57,127.4,127.4,127.4s127.4-57,127.4-127.4S254.6,52.6,184.2,52.6z M279.7,241.4
	c-1.2-0.7-3.8,0.3-3.8,1.5c0,1.5-2.6,2.5-6.5,2.5c-2.4,0-4.6,0.6-6.8,1.8c-2.9,1.6-4,1.8-9.1,1.6c-5.5-0.2-6-0.4-8.9-2.9
	c-1.7-1.5-3.7-2.7-4.5-2.7c-2.3,0-6.6,1.6-7.5,2.8c-0.7,1-1,0.9-1.7-0.3c-0.4-0.8-0.6-2.3-0.4-3.5c0.3-1.5,0-2.4-1.2-3.5
	c-2-1.8-2.1-3.6-0.1-8.5c1.3-3.3,1.5-4.9,1-11.1c-0.3-4.5-0.8-7.1-1.3-6.8c-2.1,1.2-19.2,4.6-23.4,4.6c-4.9,0-5.6,0.2-21.8,8.2
	c-1.6,0.8-4.5,1.6-6.5,1.9c-3.6,0.5-3.8,0.6-6.1,4.8c-2.6,4.7-4.8,6.7-8.2,7.4c-3,0.6-14.3,8.9-15.2,11c-0.5,1.3-0.2,2.6,1.2,5.5
	c1.9,3.7,2.8,8.1,1.1,5.7c-0.6-0.9-0.7-0.8-0.8,0.4c0,1.5,1.9,4.6,3.4,5.6c0.4,0.3,1.6,0.5,2.5,0.5c3.5,0,7.9,3.2,7.9,5.6
	c0,1.7-0.1,1.7-1.3,0.5c-1.2-1.2-1.4-1.2-1.6-0.1c-0.3,1.6-2.6,2.2-5.1,1.3c-2.9-1.1-3.5-0.9-3.5,0.7c0,0.8-0.3,1.5-0.8,1.5
	s-0.8-0.3-0.8-0.6s-1-0.5-2.1-0.3c-1.5,0.2-2.6-0.2-3.6-1.2c-1.7-1.8-3.2-1.9-4.8-0.4c-0.8,0.8-2,1-3.3,0.8
	c-1.3-0.2-2.3-0.1-2.5,0.5c-0.2,0.5-0.4-0.8-0.4-2.8c0-2.8,0.4-4.2,1.7-5.8c1.6-1.9,1.7-3,1.9-11.4c0.1-9.2,0.2-9.4,3.2-15.7
	c1.7-3.5,3.4-7.6,3.9-9.1c0.5-1.6,2.2-3.8,3.9-5.2c1.7-1.3,3-3,3-3.6c0-0.7-1.7-1.9-4.2-3c-2.3-1-6.2-3.6-8.6-5.8
	c-2.4-2.2-7.2-6-10.7-8.5c-10.7-7.7-16.9-16.7-19.3-28c-1.3-6.1-0.9-8,6.4-26.2c2.8-7,2.7-11.3-0.8-20.7c-3.4-9.4-3.4-14.7,0-21.8
	c2.3-4.7,6.6-9.6,6.6-7.4c0,0.7-0.4,1.4-0.8,1.7c-0.5,0.3-1.8,2.5-3.1,5c-3.8,7.6-2.8,13.9,3.8,24.7c1.7,2.7,3.4,6,3.8,7.3
	c1.3,3.9,1.5,10.8,0.5,15.5c-2.6,12.1-2.3,15.2,2.5,19.5c4.5,4,7.1,5.5,11.7,6.4c3.6,0.8,5,0.7,9.2-0.3c2.7-0.7,5.7-1.6,6.5-2
	c1.8-0.9,14.7-13.4,15.8-15.2c0.4-0.7,2.5-6,4.6-11.7c3.6-9.6,5.3-13.1,10.3-21.3c4.3-7.2,9.6-22.5,9.6-28.2c0-1,1.7-5,3.7-8.7
	c5-9.3,7.8-11.2,16.1-11.2c4.3,0,6.6,0.4,8.6,1.4c1.5,0.8,3.5,1.5,4.5,1.6c1,0.1,2.9,1.2,4.3,2.4s2.6,2,2.9,1.8
	c0.3-0.3,1.4-0.2,2.5,0c1.4,0.3,2.4,1.4,3.5,3.6c0.8,1.7,3.5,4.9,6,7.2c4.2,3.9,7.8,9.3,7.8,11.9c0,2.2-2.3,5.3-5.1,6.9
	c-1.8,1-3,1.3-3.2,0.8c-0.2-0.6-0.7-0.6-1.9,0c-1.3,0.7-1.5,0.6-1.1-0.3c0.3-0.8,0.1-1-0.8-0.7c-0.8,0.3-1.1,0.2-0.7-0.4
	c0.7-1.1-0.5-1.1-1.8,0.1c-0.8,0.7-0.9,0.6-0.5-0.6c0.4-1.4,0.2-1.5-1.9-1.3c-1.8,0.2-2.3,0-2-0.8c0.3-0.7,0.1-0.9-0.7-0.6
	c-0.6,0.2-1.1,0-1.1-0.4s-0.3-0.6-0.8-0.4c-0.4,0.3-0.6,0-0.3-0.7c0.3-0.6,0.1-1.1-0.4-1.1s-0.7-0.3-0.5-0.7
	c0.2-0.4-0.2-0.9-0.9-1.1c-1.9-0.7-2.6,1.1-1.1,3c0.7,0.9,1.5,1.7,1.8,1.7c0.3,0,0.4,0.5,0.1,1.1c-0.3,0.7,0.1,1.3,1,1.6
	c3.4,1.2,5.1,4.8,3.1,6.8c-0.8,0.8-0.7,0.9,0.5,0.5c1.1-0.4,1.3-0.2,1,0.6c-0.2,0.6-0.1,1.1,0.3,1.1c1.1,0-1.7,4.3-3.3,5.2
	c-1.3,0.7-3.7,0.1-7.5-1.7c-1-0.5-3.7-3.6-6-7c-2.3-3.4-4.3-5.9-4.5-5.7c-0.2,0.2,0,2.3,0.4,4.6c0.5,2.3,0.8,5.7,0.8,7.6
	c0,1.9,0.7,4.6,1.5,6.2c0.8,1.6,1.5,3.5,1.5,4.4c0,0.8,1,2.5,2.3,3.6c2.3,2.1,2.3,2.1,6.5,1.1c3.7-0.8,4.6-0.8,7.1,0.2
	c1.6,0.6,4.2,1.5,5.8,2c3.1,0.9,3.9,2.2,1.3,2.2c-1.4,0-1.6,0.3-1.1,2.4c0.3,1.3,0.3,2.6,0,2.9c-0.2,0.2-2-1-3.9-2.7
	c-4.3-3.9-7-4.6-10.4-2.7c-1.9,1.1-2.9,1.3-4.3,0.8c-1-0.4-1.9-0.6-2.1-0.5c-0.1,0.1,0.3,2.2,0.9,4.6c0.7,2.7,1.1,8.4,1.1,14.8
	l0,10.4l4.4,2.2c2.4,1.2,5.9,3.1,7.7,4.3c4.9,3.2,13.9,11.7,14.5,13.8c0.8,2.9-1.2,12.1-4.4,21.1c-1.7,4.6-3,8.8-3,9.4
	c0,1.4,7.6,7,8.7,6.4c0.5-0.3,2.2-1.4,3.9-2.6c3.2-2.2,5.9-2.6,7.2-1.1c0.6,0.7,0.4,1-0.8,1.1c-2,0.1-2.5,0.6-1.9,2
	c0.4,0.9,1,0.8,4.3-0.8c4.3-2.1,10.3-3.1,11.1-1.8c0.3,0.4,0.1,0.8-0.5,0.8s-1.8,0.5-2.7,1.1c-2.5,1.7-1.4,3.3,2.2,3.3
	c3.2,0,6,1,6,2.3C280.5,241.5,280.1,241.7,279.7,241.4z"/>
</svg>
