<?xml version="1.0" encoding="utf-8"?>
<!-- Generator: Adobe Illustrator 23.0.0, SVG Export Plug-In . SVG Version: 6.00 Build 0)  -->
<svg version="1.1" id="Layer_1" xmlns="http://www.w3.org/2000/svg" xmlns:xlink="http://www.w3.org/1999/xlink" x="0px" y="0px"
	 viewBox="0 0 200 200" style="enable-background:new 0 0 200 200;" xml:space="preserve">
<style type="text/css">
	.st0{fill:#FFFFFF;}
	.st1{fill:none;stroke:#FFFFFF;stroke-width:0.3307;stroke-miterlimit:10;}
</style>
<path class="st0" d="M100,9.4C49.9,9.4,9.4,49.9,9.4,100S50,190.6,100,190.6s90.6-40.6,90.6-90.6S150.1,9.4,100,9.4z M100,172.6
	c-40.1,0-72.6-32.5-72.6-72.6S59.9,27.4,100,27.4s72.6,32.5,72.6,72.6S140.1,172.6,100,172.6z"/>
<g>
	<path class="st1" d="M100.9,89.3c0.1-0.1,0.2-0.2,0.3-0.3c1.1-1.4,2.5-2.6,4-3.7c1.5-1,3-1.7,4.6-2.3"/>
	<path class="st1" d="M92.4,92.1c0-0.1,0-0.2,0-0.3c0-1.4,0.3-2.6,0.8-3.9"/>
	<path class="st1" d="M93.2,88c0.2-0.6,0.5-1.1,0.9-1.7c1.1-1.7,2.5-3.3,4.3-4.6c1.8-1.4,3.9-2.4,6.1-3.2c2.3-0.8,4.6-1.2,7-1.2
		c0.7,0,1.3,0,2,0.1"/>
	<path class="st1" d="M100.9,89.3c-0.9,1.3-1.5,2.6-1.5,4c0,0.2,0,0.5,0,0.7"/>
	<path class="st1" d="M92.4,92.1c0,2,0.5,3.9,1.5,5.9s2.3,4,3.9,6s3.4,3.9,5.3,5.9c1.9,1.9,3.8,3.8,5.6,5.6c1.8,1.8,3.5,3.6,5,5.4
		s2.6,3.4,3.2,5c-3.5-0.7-6.6-1.3-9.3-1.8c-2.7-0.5-5.4-0.7-7.9-0.7c-3.2,0-6.3,0.5-9.2,1.4c-2.9,0.9-5.5,2.2-7.7,4
		c-2.2,1.7-4,3.9-5.3,6.4s-2,5.3-2,8.5c0,2.7,0.6,5.1,1.9,7.2c1.2,2.1,3,3.8,5.1,5.1c2.2,1.4,4.7,2.4,7.6,3.1c2.9,0.7,6,1.1,9.3,1.1
		c4,0,7.8-0.4,11.5-1.2s6.9-2,9.8-3.7c2.8-1.7,5.1-3.9,6.8-6.6c1.7-2.7,2.5-5.9,2.5-9.7c0-0.7-0.1-1.4-0.2-2.2
		c-0.1-0.8-0.2-1.5-0.2-2.2c2.1,0.7,4.3,1.3,6.6,2c2.2,0.7,4.4,1.4,6.6,2.1c1.7,0,2.6-0.6,2.6-1.9c0-0.8-0.4-1.5-1.1-2
		c-2.3-0.9-4.9-1.9-7.7-2.9s-5.8-2-8.9-2.9c-1-2.9-2.4-5.5-4.1-7.9c-1.8-2.4-3.7-4.6-5.8-6.7c-2.1-2.1-4.2-4-6.4-5.8
		c-2.1-1.8-4.1-3.6-5.8-5.3c-1.7-1.7-3.2-3.4-4.3-5c-1-1.4-1.5-2.9-1.6-4.3"/>
	<path class="st1" d="M116.7,131.6c-2.3-0.4-4.7-0.8-7.2-1.1s-5-0.4-7.6-0.4c-1.3,0-3.1,0.2-5.3,0.5c-2.2,0.3-4.4,1-6.6,1.9
		c-2.1,0.9-4,2.1-5.6,3.7c-1.6,1.6-2.4,3.6-2.4,6.2c0,2,0.5,3.7,1.5,5.1c1,1.4,2.3,2.5,3.9,3.4s3.4,1.5,5.4,1.9s4,0.6,5.9,0.6
		c3.5,0,7-0.5,10.3-1.4s6.1-2.1,8.2-3.5c1.7-1.1,2.8-2.4,3.5-4s1-3.3,1-5c0-1.2-0.1-2.3-0.4-3.5s-0.6-2.3-1.1-3.4L116.7,131.6z"/>
	<path class="st1" d="M116.7,81.9c0.3,0,0.5,0.1,0.8,0.1c0.7,0.1,1.3,0.3,1.9,0.5s1.3,0.5,2,0.8s1.6,0.7,2.7,1.2
		c1.7,0,2.6-0.7,2.6-2c0-0.7-0.4-1.3-1.1-2c-2.3-1.1-4.5-1.9-6.7-2.4"/>
	<path class="st1" d="M92.4,92.1c-0.8-0.5-1.5-1.2-2.1-2c0.1-0.7,0.3-1.3,0.7-1.7c0.4-0.5,0.8-0.7,1.4-0.7c0.3,0,0.6,0.1,0.8,0.2"/>
	<path class="st1" d="M118.8,78.2c-0.7,1.3-1.4,2.6-2.1,3.8"/>
	<path class="st1" d="M82.5,81.1c0-0.5,0-1.1-0.1-1.6c0-0.5-0.1-1.1-0.1-1.7c-1,2.2-2,4.4-3.1,6.7c-1.1,2.3-2.1,4.7-3,7.1
		C75.4,94,74.7,96.5,74,99c-0.6,2.5-0.9,5-0.9,7.5c0,1.8,0.2,3.1,0.6,4c0.4,0.8,0.8,1.2,1.4,1.2c0.5,0,1.2-0.5,1.9-1.4
		c0.8-0.9,1.5-2.1,2.1-3.6s1.2-3.2,1.7-5.1c0.5-2,0.8-4,1-6.1c0.1-1.5,0.2-2.9,0.2-4.1c0.1-1.2,0.2-2.4,0.2-3.5
		c0.1-1.1,0.2-2.2,0.2-3.3C82.5,83.6,82.5,82.4,82.5,81.1z"/>
	<path class="st1" d="M118.8,78.2c0.1-0.2,0.2-0.4,0.3-0.7c1.3-2.6,2.3-5.4,3.2-8.3c0.8-2.9,1.2-5.8,1.2-8.7c0-3.5-0.9-6.8-2.7-9.8
		c-1.8-3-4.9-5.2-9.3-6.7c-1.4-0.5-2.7-0.7-4-0.7c-2.1,0-4.2,0.5-6.2,1.4s-3.9,2.2-5.8,3.7c-1.8,1.5-3.6,3.2-5.3,5.2
		c-1.7,1.9-3.3,3.8-4.8,5.7l-0.1-3.8c-0.2-1.1-0.8-1.6-1.6-1.6c-0.5,0-1,0.2-1.5,0.6c-0.5,0.4-0.7,1-0.7,1.8
		c0.1,1.4,0.1,2.8,0.1,4.2s0,2.8,0.1,4.2c-1.4,2.5-2.7,4.9-4,7.2c-1.3,2.3-2.5,4.6-3.6,6.8c-1.1,2.2-2.2,4.5-3.2,6.8
		s-1.9,4.7-2.6,7.2c-0.3,0.9-0.6,2.4-0.8,4.4c-0.2,2-0.3,4.3-0.3,6.7c0,4.3,0.5,7.7,1.6,10.1s3.1,3.6,6.2,3.6c2.3,0,4.2-0.9,5.8-2.6
		c1.6-1.7,2.9-4,4-6.8s1.8-6,2.3-9.6C87.7,94.7,88,91,88,87.3c0-2.9-0.1-5.7-0.3-8.4c-0.2-2.7-0.5-5.8-0.9-9.2
		c1.4-2.3,2.9-4.7,4.7-7c1.8-2.3,3.6-4.4,5.6-6.2s4-3.3,6.2-4.4c2.2-1.1,4.2-1.7,6.3-1.7c2.6,0,4.7,1.1,6.1,3.2
		c1.4,2.1,2.1,4.9,2.1,8.3c0,1.4-0.1,2.9-0.3,4.5c-0.2,1.6-0.6,3.2-1.1,4.7c-0.6,1.8-1.5,3.8-2.5,5.9c0,0.1-0.1,0.1-0.1,0.2"/>
	<path class="st1" d="M99.4,94c2-0.1,4.1-0.6,6.1-1.5c2.2-1,4.1-2.1,5.5-3.3c1.2-1.1,2.5-2.6,4-4.7c0.6-0.8,1.2-1.7,1.7-2.6"/>
	<path class="st1" d="M100.9,89.3c1.2-0.3,2.4-0.8,3.5-1.5c1.9-1.2,3.7-2.8,5.2-4.6c0-0.1,0.1-0.1,0.1-0.2"/>
	<path class="st1" d="M113.5,77.3c-1,2-2.3,3.8-3.7,5.6"/>
</g>
<g>
	<path class="st0" d="M104.4,87.7c1.9-1.2,3.7-2.8,5.2-4.6c0-0.1,0.1-0.1,0.1-0.2c-1.6,0.6-3.1,1.4-4.6,2.3c-1.6,1-2.9,2.3-4,3.7
		c-0.1,0.1-0.2,0.2-0.3,0.3C102.1,89,103.3,88.5,104.4,87.7z"/>
	<path class="st0" d="M82.4,77.8c-1,2.2-2,4.4-3.1,6.7c-1.1,2.3-2.1,4.7-3,7.1S74.7,96.5,74,99c-0.6,2.5-0.9,5-0.9,7.5
		c0,1.8,0.2,3.1,0.6,4c0.4,0.8,0.8,1.2,1.4,1.2c0.5,0,1.2-0.5,1.9-1.4c0.8-0.9,1.5-2.1,2.1-3.6s1.2-3.2,1.7-5.1c0.5-2,0.8-4,1-6.1
		c0.1-1.5,0.2-2.9,0.2-4.1c0.1-1.2,0.2-2.4,0.2-3.5c0.1-1.1,0.2-2.2,0.2-3.3c0.1-1.1,0.1-2.3,0.1-3.6c0-0.5,0-1.1-0.1-1.6
		C82.4,79,82.4,78.4,82.4,77.8z"/>
	<path class="st0" d="M100.2,32.5c-37.6,0-68,30.5-68,68s30.5,68,68,68s68-30.5,68-68S137.8,32.5,100.2,32.5z M142.6,138.7
		c-2.1-0.7-4.3-1.4-6.6-2.1c-2.2-0.7-4.4-1.3-6.6-2c0,0.7,0.1,1.4,0.2,2.2c0.1,0.8,0.2,1.5,0.2,2.2c0,3.8-0.8,7-2.5,9.7
		s-4,4.9-6.8,6.6c-2.8,1.7-6.1,2.9-9.8,3.7c-3.7,0.8-7.5,1.2-11.5,1.2c-3.3,0-6.4-0.4-9.3-1.1c-2.9-0.7-5.4-1.7-7.6-3.1
		c-2.2-1.4-3.9-3.1-5.1-5.1c-1.2-2.1-1.9-4.5-1.9-7.2c0-3.1,0.7-6,2-8.5s3.1-4.6,5.3-6.4c2.2-1.7,4.8-3.1,7.7-4
		c2.9-0.9,6-1.4,9.2-1.4c2.6,0,5.2,0.2,7.9,0.7c2.7,0.5,5.8,1.1,9.3,1.8c-0.7-1.6-1.7-3.2-3.2-5s-3.1-3.6-5-5.4
		c-1.8-1.8-3.7-3.7-5.6-5.6s-3.7-3.9-5.3-5.9c-1.6-2-2.9-4-3.9-6c-1-1.9-1.4-3.9-1.5-5.9c-0.8-0.5-1.5-1.2-2.1-2
		c0.1-0.7,0.3-1.3,0.7-1.7c0.4-0.5,0.8-0.7,1.4-0.7c0.3,0,0.6,0.1,0.8,0.2c0.2-0.6,0.5-1.1,0.9-1.7c1.1-1.7,2.5-3.3,4.3-4.6
		c1.8-1.4,3.9-2.4,6.1-3.2c2.3-0.8,4.6-1.2,7-1.2c0.7,0,1.3,0,2,0.1c0-0.1,0.1-0.1,0.1-0.2c1.1-2.1,1.9-4.1,2.5-5.9
		c0.5-1.6,0.9-3.2,1.1-4.7c0.2-1.6,0.3-3.1,0.3-4.5c0-3.4-0.7-6.2-2.1-8.3s-3.4-3.2-6.1-3.2c-2,0-4.1,0.6-6.3,1.7
		c-2.2,1.1-4.2,2.6-6.2,4.4c-2,1.8-3.8,3.9-5.6,6.2c-1.8,2.3-3.3,4.6-4.7,7c0.4,3.4,0.7,6.5,0.9,9.2c0.2,2.7,0.3,5.5,0.3,8.4
		c0,3.7-0.2,7.3-0.7,10.9s-1.3,6.8-2.3,9.6c-1.1,2.8-2.4,5.1-4,6.8c-1.6,1.7-3.5,2.6-5.8,2.6c-3,0-5.1-1.2-6.2-3.6
		s-1.6-5.8-1.6-10.1c0-2.4,0.1-4.6,0.3-6.7c0.2-2,0.5-3.5,0.8-4.4c0.8-2.5,1.6-4.9,2.6-7.2c1-2.3,2-4.6,3.2-6.8
		c1.1-2.2,2.3-4.5,3.6-6.8c1.3-2.3,2.6-4.7,4-7.2c-0.1-1.4-0.1-2.8-0.1-4.2s0-2.8-0.1-4.2c0-0.8,0.2-1.3,0.7-1.8
		c0.5-0.4,0.9-0.6,1.5-0.6c0.8,0,1.4,0.5,1.6,1.6l0.1,3.8c1.5-1.9,3.1-3.8,4.8-5.7s3.5-3.6,5.3-5.2c1.8-1.5,3.8-2.7,5.8-3.7
		c2-0.9,4.1-1.4,6.2-1.4c1.3,0,2.6,0.2,4,0.7c4.5,1.5,7.6,3.8,9.3,6.7c1.8,3,2.7,6.2,2.7,9.8c0,2.9-0.4,5.8-1.2,8.7
		c-0.8,2.9-1.9,5.7-3.2,8.3c-0.1,0.2-0.2,0.4-0.3,0.7c2.2,0.6,4.5,1.4,6.7,2.4c0.7,0.7,1.1,1.3,1.1,2c0,1.3-0.9,2-2.6,2
		c-1.1-0.5-2-0.9-2.7-1.2c-0.7-0.3-1.4-0.6-2-0.8c-0.6-0.2-1.3-0.4-1.9-0.5c-0.2,0-0.5-0.1-0.8-0.1c-0.6,0.9-1.1,1.8-1.7,2.6
		c-1.5,2.1-2.8,3.6-4,4.7c-1.4,1.2-3.3,2.3-5.5,3.3c-2,0.9-4,1.4-6.1,1.5c0.1,1.5,0.7,2.9,1.6,4.3c1.1,1.7,2.5,3.3,4.3,5
		c1.7,1.7,3.7,3.4,5.8,5.3c2.1,1.8,4.3,3.8,6.4,5.8c2.1,2.1,4,4.3,5.8,6.7c1.8,2.4,3.2,5,4.1,7.9c3.1,0.9,6.1,1.9,8.9,2.9
		c2.8,1,5.4,2,7.7,2.9c0.7,0.5,1.1,1.2,1.1,2C145.2,138.1,144.3,138.7,142.6,138.7z"/>
	<path class="st0" d="M120.4,132.4l-3.7-0.7c-2.3-0.4-4.7-0.8-7.2-1.1s-5-0.4-7.6-0.4c-1.3,0-3.1,0.2-5.3,0.5
		c-2.2,0.3-4.4,1-6.6,1.9c-2.1,0.9-4,2.1-5.6,3.7c-1.6,1.6-2.4,3.6-2.4,6.2c0,2,0.5,3.7,1.5,5.1c1,1.4,2.3,2.5,3.9,3.4
		s3.4,1.5,5.4,1.9s4,0.6,5.9,0.6c3.5,0,7-0.5,10.3-1.4s6.1-2.1,8.2-3.5c1.7-1.1,2.8-2.4,3.5-4s1-3.3,1-5c0-1.2-0.1-2.3-0.4-3.5
		C121.2,134.6,120.8,133.5,120.4,132.4z"/>
</g>
</svg>
