<?xml version="1.0" encoding="utf-8"?>
<!-- Generator: Adobe Illustrator 22.1.0, SVG Export Plug-In . SVG Version: 6.00 Build 0)  -->
<svg version="1.1" id="Layer_1" xmlns="http://www.w3.org/2000/svg" xmlns:xlink="http://www.w3.org/1999/xlink" x="0px" y="0px"
	 viewBox="0 0 360 360" style="enable-background:new 0 0 360 360;" xml:space="preserve">
<style type="text/css">
	.st0{fill:none;stroke:#463627;stroke-width:15;stroke-miterlimit:10;}
	.st1{fill:#463627;stroke:#FFFFFF;stroke-width:2;stroke-miterlimit:10;}
	.st2{fill:#FFFFFF;}
</style>
<polygon class="st0" points="182.5,319.3 315.3,89.2 49.6,89.2 "/>
<path class="st1" d="M292.5,50.6c-3,2.6,0.9,4,1.3,6.5c-1.3-0.6-2.1-1-2.9-1.4c-0.1,0.1-0.2,0.2-0.3,0.3c0.3,0.6,0.7,1.1,1.1,1.8
	c-2.8,1,0.1,2.2-0.1,3.8c-1-0.5-1.7-1-3.1-1.8c0.5,1.7,0.8,2.8,1.3,4.5c-1.1-0.9-1.7-1.4-2.1-1.7c-0.6,0.6-1.2,1.1-2,1.9
	c0,0.2,0.2,0.8,0.3,1.5c-3.4-1-3.3,2.1-4.8,3.3c0.1,0.2,0.2,0.4,0.4,0.6c-0.5-0.2-1-0.4-1.6-0.7c-0.1,0.6-0.1,1.1-0.1,1.3
	c-3.4,0.8-1.7,3.5-2.2,5.2c-0.4,1.2-1,2.4-1.2,3.7c-0.5,3.2,0.8,4.1,3.8,3.3c3.6-1,7.3-1.5,10.9-2.3c3.2-0.7,6.3-1.6,9.6-2.1
	c-3.3,5.2-9,6.9-14.2,9.3c0,0.2,0,0.4,0.1,0.6c2.2,0.6,4.4,1.1,6.8,1.7c0.1-0.6,0.2-1.3,0.4-2c1.1,0.4,2.2,0.8,3.5,1.4
	c-0.2-1.2-0.3-2.1-0.4-2.9c1.3,0.3,2.5,0.7,3.9,1.1c-0.3-1.3-0.5-2.4-0.7-3.5c0.2-0.1,0.3-0.2,0.5-0.2c0.6,0.9,1.2,1.7,2.1,3.1
	c0.6-1.1,1-1.9,1.6-3c0.3,0.5,0.6,1.1,0.8,1.5c1.7-0.8,2.7-0.1,3.8,0.8c0.9,0.8,2,1.5,3.1,2.2c1.7,1,1.4,2.3,0.7,3.6
	c-1.7,2.9-3.9,5.2-7.2,6.4c-4,1.5-8.1,2.9-12,4.6c-1.9,0.8-3.6,2.1-5.4,3.3c-2.4,1.7-5,2.1-7.8,2.2c-2.8,0.1-5.7,0.2-8.5,0.5
	c-5.2,0.6-8.8,4-12.4,7.3c-4.2,3.8-6.3,8.7-7.1,14.2c-1,6.8-1.8,13.6-2.7,20.3c-0.2,1.2,0.1,2.1,1.3,3c1.5,1,1.3,3.9-0.2,6
	c-0.5,0.7-0.9,1.3-1.4,2c-0.4,0.6-0.9,1.1-1.5,1.8c1.1,1.2,2.1,2.4,3.2,3.6c1.2,1.4,1.7,3,1.5,5c-0.1,1.3,0.8,2.9,1.5,4.2
	c2.8,5.4,2.1,12.1-2.5,16.8c0.3-1.8,0.5-3.6,1-5.3c0.4-1.7,1.1-3.4,1.7-5.1c-0.2-0.1-0.5-0.2-0.7-0.3c-1.9,3.3-3.8,6.6-5.8,9.9
	c-0.3-0.2-0.7-0.3-1-0.5c0.7-1.8,1.4-3.6,2.2-5.4c0.5-1.1,1.1-2.2,1.8-3.3c1.3-2.1,0.9-3.8-0.4-5.8c-2.1-3.3-3.7-6.9-5.5-10.4
	c-0.3-0.6-0.6-1.1-0.8-1.4c-4.4,3.2-8.7,6.2-13,9.3c-1.9,1.3-0.9,3.4-0.3,4.3c2.5,3.5,1.6,7.3,1.9,11c0.2,2.9,0.4,5.9,1.2,8.6
	c2,7.3,2.6,14.7,0.3,21.8c-2.6,8-1,14.8,3.5,21.5c2.3,3.4,4.4,6.9,7.7,9.4c0.8,0.6,1,2.2,1.5,3.3c0.6,1.3,1,2.7,1.7,3.9
	c4.1,7.1,10.7,11.1,18,14.2c0.8,0.3,1.6,0.9,2.4,1.4c-4.8,2.8-9.8,2.1-14.7,2.2c-2.6,0-5.1,0-7.7,0.1c-1.7,0.1-3.4,0.4-4.2-1.8
	c-0.1-0.2-0.4-0.5-0.7-0.5c-3.1-0.3-3.2-2.4-3.1-4.8c0-1.2,0.1-2.5-0.1-3.7c-0.2-0.8-1-1.5-1.6-2.2c-0.3-0.3-0.9-0.3-1.1-0.7
	c-2-3.3-5.1-6.3-4.9-10.4c0.2-4.6-3.2-6.2-6-8.4c-2.8-2.2-6-4-6.4-8.1c-0.1-1-0.2-2.1,0.1-3c1.1-4.5-0.2-8.4-2.8-12.1
	c-1.9-2.7-3.5-5.7-5.1-8.7c-2-3.6-1.2-7.2-0.1-10.8c0.6-2,1.5-3.8,2.2-5.7c0.8-2.1,0.2-3.3-2-3.9c-1.4-0.4-2.8-0.7-4.3-0.9
	c-4.5-0.5-7.1,2.3-6.5,6.8c0.8,5.6-0.5,7.9-6,8.8c-6.4,1-12.9,1.5-19.3,2.3c-2.1,0.2-4.2,0.3-6.3,0.7c-0.6,0.1-1.3,0.7-1.5,1.2
	c-2.2,7.4-8.4,11.3-13.9,15.8c-0.5,0.4-1.2,1-1.4,1.6c-1.2,4.4-2.4,8.8-3.3,13.3c-0.3,1.7,0.3,3.6,0.6,5.4c0.1,1.1,0.7,2.2,0.5,3.2
	c-0.8,3.4-0.4,6.6,1.1,9.8c1.2,2.7,2.1,5.6,3.6,8.2c1.1,1.9,2.9,3.4,4.4,5c0.5,0.5,0.9,1,1.4,1.6c-2.3,2.8-5.2,3-7.6,0.7
	c-1.6-1.5-3.2-3.1-4.9-4.6c-1.2-1-2.3-0.4-2.9,0.6c-0.5,0.8-0.8,1.9-1,2.8c-0.4,2.5-1.4,3-5.4,2.9c-2.2,0-2.1-1.6-2.3-3
	c-0.2-1.2-0.2-2.3-0.4-3.5c-0.1-0.5-0.4-0.9-0.6-1.4c-0.2-0.1-0.5-0.1-0.7-0.2c-0.3,1-0.8,2.1-0.9,3.1c-0.4,3.3-5.7,6.3-8.5,4.5
	c-0.9-0.6-1.4-1.9-2.2-3.1c0.1-0.1,0.3-0.4,0.5-0.5c3.2-0.8,4.5-3.4,4.9-6.1c1.1-6.6,3.3-12.8,5-19.2c1.3-4.7,1.4-9.8,1.7-14.7
	c0.2-3.2,0.9-6,2.7-8.8c2.1-3.1,3.1-6.9,3.6-10.9c-3.6,1.2-6.7,2.3-9.9,3.3c-4.9,1.4-9.7,3.2-14.7,4c-9.6,1.5-19.2,1.7-29,0.4
	c-10.4-1.5-20.1-4.7-29.1-9.9c-3.5-2-6.6-4.7-9.7-7.4c-2.1-1.9-3.1-4.5-3-7.5c0-1.2-0.7-2.5-0.5-3.6c0.4-1.8,0.9-4.1,2.1-5.3
	c2.4-2.3,5.3-4.1,8.2-5.7c1.7-1,3.8-1.7,5.8-1.8c10.5-0.7,21-1.1,31.5-1.6c0.3,0,0.5,0.1,0.9,0.6c-9.8,3.3-19.6,6.6-29.5,10
	c0,0.3,0,0.6,0,0.9c2.1,0.7,4.1,1.7,6.3,2.1c12,2.2,23.9,1.4,36,0.4c8.2-0.7,12.5-6.4,18-10.9c3.5-2.8,7-5.9,10.9-7.9
	c8.6-4.4,15.4-10.2,19.7-19c2.4-4.9,6-9,10-12.7c0.9-0.8,1.9-1.6,3.3-0.8c0.5,0.3,1.3,0.2,1.9,0c4.1-1.8,7.7-4.2,10.9-7.5
	c4.6-4.6,8.9-9.4,15.3-12c4.4-1.8,8.9-3.6,13.4-5.1c1.7-0.6,3.8-0.5,5.6-0.4c4.2,0.3,5.9-0.7,7.1-4.8c1.4-5.1,2.6-10.3,4-15.4
	c1.7-6.5,5.8-11.5,9.8-16.6c1-1.2,1.3-2.4,0.8-3.8c-0.5-1.7,0-2.8,1.4-3.9c1-0.8,1.5-2.4,1.7-3.7c0.3-3.6,2.1-5,5.6-4.3
	c1.4,0.3,2.9-0.2,4.3-0.3c5.6-0.3,9.3-3.9,13.2-7.3c5.5-4.9,11.4-9.4,17.2-13.8c2.8-2.1,7.8-1.5,9.8,1.1c1.1,1.4,1.7,3.3,2.6,5
	c0.5,0.9,0.9,1.8,1.5,3C293.4,50.8,292.9,50.7,292.5,50.6z M236.9,262.9c0.2-0.1,0.4-0.1,0.6-0.2c0.3-3.1-0.6-5.7-2.6-6.4
	C235.6,258.6,236.3,260.7,236.9,262.9z"/>
<path class="st2" d="M236.9,304.4c-0.6-2.1-1.3-4.3-2-6.6c2,0.8,2.9,3.3,2.6,6.4C237.3,304.3,237.1,304.3,236.9,304.4z"/>
</svg>
