<svg id="Layer_1" data-name="Layer 1" xmlns="http://www.w3.org/2000/svg" viewBox="0 0 200 200"><defs><style>.cls-1{fill:#fff;}.cls-2{fill:none;stroke:#fff;stroke-miterlimit:10;stroke-width:0.33px;}</style></defs><title>Artboard 1</title><path class="cls-1" d="M100,9.36A90.64,90.64,0,1,0,190.64,100,90.64,90.64,0,0,0,100,9.36Zm0,163.22A72.58,72.58,0,1,1,172.58,100,72.58,72.58,0,0,1,100,172.58Z"/><path class="cls-2" d="M100.91,89.26l.26-.35a17.11,17.11,0,0,1,4-3.65,23.19,23.19,0,0,1,4.6-2.35"/><path class="cls-2" d="M92.44,92.14c0-.08,0-.17,0-.25A10.27,10.27,0,0,1,93.19,88"/><path class="cls-2" d="M93.19,88A11.09,11.09,0,0,1,94,86.31a17,17,0,0,1,4.34-4.64,22.25,22.25,0,0,1,6.13-3.22,21.3,21.3,0,0,1,7-1.18c.67,0,1.34,0,2,.07"/><path class="cls-2" d="M100.91,89.26a7.42,7.42,0,0,0-1.54,4c0,.24,0,.49,0,.73"/><path class="cls-2" d="M92.44,92.14A13.86,13.86,0,0,0,93.92,98a31.57,31.57,0,0,0,3.9,6q2.41,3,5.26,5.88t5.57,5.64q2.72,2.73,5,5.39a20.38,20.38,0,0,1,3.22,5q-5.2-1.11-9.29-1.8a48.38,48.38,0,0,0-7.93-.68,31,31,0,0,0-9.23,1.36,24.11,24.11,0,0,0-7.74,4,19.4,19.4,0,0,0-5.33,6.38,18,18,0,0,0-2,8.48,13.69,13.69,0,0,0,1.86,7.18A15.31,15.31,0,0,0,82.34,156a25.85,25.85,0,0,0,7.62,3.1,39.33,39.33,0,0,0,9.29,1.05A54.8,54.8,0,0,0,110.7,159a32.23,32.23,0,0,0,9.79-3.72,20,20,0,0,0,6.81-6.56,17.86,17.86,0,0,0,2.54-9.72,14,14,0,0,0-.19-2.17,14,14,0,0,1-.19-2.17q3.22,1,6.56,2t6.57,2.11q2.6,0,2.6-1.86a2.28,2.28,0,0,0-1.12-2q-3.47-1.36-7.68-2.91T127.49,129a29.07,29.07,0,0,0-4.15-7.93,56.61,56.61,0,0,0-5.82-6.69q-3.16-3.09-6.38-5.82t-5.82-5.26a32.44,32.44,0,0,1-4.27-5A9.22,9.22,0,0,1,99.41,94"/><path class="cls-2" d="M116.71,131.65q-3.47-.62-7.18-1.05a65.32,65.32,0,0,0-7.56-.43,38.54,38.54,0,0,0-5.33.5,27,27,0,0,0-6.56,1.86,17.36,17.36,0,0,0-5.57,3.72,8.37,8.37,0,0,0-2.35,6.19,8.58,8.58,0,0,0,1.49,5.08,11.15,11.15,0,0,0,3.9,3.41,18.46,18.46,0,0,0,5.39,1.86,32.2,32.2,0,0,0,5.95.56,37.73,37.73,0,0,0,10.34-1.42,30,30,0,0,0,8.24-3.53,8.75,8.75,0,0,0,3.47-4,13.1,13.1,0,0,0,1-5,15.07,15.07,0,0,0-.43-3.53,27.78,27.78,0,0,0-1.05-3.41Z"/><path class="cls-2" d="M116.68,81.93c.28,0,.54.06.77.11a14.75,14.75,0,0,1,1.92.5,18.64,18.64,0,0,1,2,.8L124,84.58q2.6,0,2.6-2a2.75,2.75,0,0,0-1.11-2,36.09,36.09,0,0,0-6.74-2.43"/><path class="cls-2" d="M92.44,92.14a10.44,10.44,0,0,1-2.09-2A3.12,3.12,0,0,1,91,88.45a1.71,1.71,0,0,1,1.36-.68,1.53,1.53,0,0,1,.8.23"/><path class="cls-2" d="M118.77,78.18q-1,2-2.09,3.75"/><path class="cls-2" d="M82.54,81.1q0-.79-.06-1.58c0-.53-.06-1.09-.06-1.7Q81,81.1,79.31,84.55t-3,7.07A63.63,63.63,0,0,0,74,99a31.55,31.55,0,0,0-.91,7.47,10.19,10.19,0,0,0,.57,4q.57,1.25,1.36,1.25T77,110.3a14.86,14.86,0,0,0,2.09-3.57,33.13,33.13,0,0,0,1.7-5.15,35.75,35.75,0,0,0,1-6.11q.11-2.26.23-4.07t.23-3.45q.11-1.64.23-3.28T82.54,81.1Z"/><path class="cls-2" d="M118.77,78.18l.33-.65a48.79,48.79,0,0,0,3.17-8.32,32,32,0,0,0,1.25-8.72,18.81,18.81,0,0,0-2.66-9.79q-2.66-4.47-9.34-6.73a12.49,12.49,0,0,0-4-.68,14.31,14.31,0,0,0-6.17,1.41,28.11,28.11,0,0,0-5.77,3.68,45.4,45.4,0,0,0-5.32,5.15q-2.55,2.89-4.81,5.72l-.11-3.85q-.34-1.58-1.58-1.58a2.14,2.14,0,0,0-1.47.62,2.26,2.26,0,0,0-.68,1.75q.11,2.15.11,4.19t.11,4.19q-2,3.74-4,7.19t-3.62,6.79q-1.7,3.34-3.17,6.79a70,70,0,0,0-2.6,7.19,23.66,23.66,0,0,0-.79,4.41,60.73,60.73,0,0,0-.34,6.68q0,6.45,1.64,10.07t6.17,3.62a7.53,7.53,0,0,0,5.77-2.6,20.89,20.89,0,0,0,4-6.85,45.05,45.05,0,0,0,2.32-9.62A80.56,80.56,0,0,0,88,87.32q0-4.3-.34-8.38t-.91-9.17a64.6,64.6,0,0,1,4.7-7A49.23,49.23,0,0,1,97,56.65a29.07,29.07,0,0,1,6.17-4.41,13.45,13.45,0,0,1,6.28-1.7,6.79,6.79,0,0,1,6.06,3.22A15,15,0,0,1,117.63,62a31.86,31.86,0,0,1-.34,4.52,27.05,27.05,0,0,1-1.13,4.74,41.42,41.42,0,0,1-2.55,5.87l-.09.17"/><path class="cls-2" d="M99.41,94a16.71,16.71,0,0,0,6.05-1.45,22.68,22.68,0,0,0,5.49-3.28,27.3,27.3,0,0,0,4-4.7q.88-1.24,1.72-2.61"/><path class="cls-2" d="M100.91,89.26a11.59,11.59,0,0,0,3.53-1.54,23.24,23.24,0,0,0,5.21-4.63l.15-.18"/><path class="cls-2" d="M113.51,77.34a32.55,32.55,0,0,1-3.72,5.57"/><path class="cls-1" d="M104.44,87.72a23.24,23.24,0,0,0,5.21-4.63l.15-.18a23.2,23.2,0,0,0-4.6,2.35,17.11,17.11,0,0,0-4,3.65l-.26.35A11.59,11.59,0,0,0,104.44,87.72Z"/><path class="cls-1" d="M82.42,77.81Q81,81.1,79.31,84.55t-3,7.07A63.6,63.6,0,0,0,74,99a31.55,31.55,0,0,0-.91,7.47,10.19,10.19,0,0,0,.57,4q.57,1.25,1.36,1.25T77,110.3a14.87,14.87,0,0,0,2.09-3.57,33.15,33.15,0,0,0,1.7-5.15,35.75,35.75,0,0,0,1-6.11q.11-2.26.23-4.07t.23-3.45q.11-1.64.23-3.28t.11-3.57q0-.79-.06-1.58C82.44,79,82.42,78.42,82.42,77.81Z"/><path class="cls-1" d="M100.25,32.54a68,68,0,1,0,68,68A68,68,0,0,0,100.25,32.54ZM142.6,138.71q-3.22-1.11-6.56-2.11t-6.56-2a14,14,0,0,0,.19,2.17,14,14,0,0,1,.19,2.17,17.86,17.86,0,0,1-2.54,9.72,20,20,0,0,1-6.81,6.56A32.23,32.23,0,0,1,110.7,159a54.8,54.8,0,0,1-11.46,1.18A39.33,39.33,0,0,1,90,159.09a25.84,25.84,0,0,1-7.62-3.1,15.31,15.31,0,0,1-5.14-5.14,13.69,13.69,0,0,1-1.86-7.18,18,18,0,0,1,2-8.48,19.4,19.4,0,0,1,5.33-6.38,24.11,24.11,0,0,1,7.74-4,31,31,0,0,1,9.23-1.36,48.37,48.37,0,0,1,7.93.68q4.09.68,9.29,1.8a20.39,20.39,0,0,0-3.22-5q-2.23-2.66-5-5.39t-5.57-5.64Q100.23,107,97.82,104a31.61,31.61,0,0,1-3.9-6,13.87,13.87,0,0,1-1.48-5.88,10.44,10.44,0,0,1-2.09-2A3.12,3.12,0,0,1,91,88.45a1.71,1.71,0,0,1,1.36-.68,1.53,1.53,0,0,1,.8.23A11.09,11.09,0,0,1,94,86.31a17,17,0,0,1,4.34-4.64,22.24,22.24,0,0,1,6.13-3.22,21.29,21.29,0,0,1,7-1.18c.67,0,1.34,0,2,.07l.09-.17a41.42,41.42,0,0,0,2.55-5.87,27.05,27.05,0,0,0,1.13-4.74,31.86,31.86,0,0,0,.34-4.52,15,15,0,0,0-2.09-8.29,6.79,6.79,0,0,0-6.06-3.22,13.45,13.45,0,0,0-6.28,1.7A29.07,29.07,0,0,0,97,56.65a49.23,49.23,0,0,0-5.6,6.17,64.64,64.64,0,0,0-4.7,7q.57,5.09.91,9.17T88,87.32a80.56,80.56,0,0,1-.74,10.92,45.07,45.07,0,0,1-2.32,9.62,20.9,20.9,0,0,1-4,6.85,7.53,7.53,0,0,1-5.77,2.6q-4.53,0-6.17-3.62t-1.64-10.07a60.73,60.73,0,0,1,.34-6.68,23.64,23.64,0,0,1,.79-4.41,70,70,0,0,1,2.6-7.19q1.47-3.45,3.17-6.79t3.62-6.79q1.92-3.45,4-7.19-.11-2.15-.11-4.19t-.11-4.19a2.26,2.26,0,0,1,.68-1.75,2.14,2.14,0,0,1,1.47-.62q1.24,0,1.58,1.58l.11,3.85q2.26-2.83,4.81-5.72a45.4,45.4,0,0,1,5.32-5.15,28.11,28.11,0,0,1,5.77-3.68,14.31,14.31,0,0,1,6.17-1.41,12.49,12.49,0,0,1,4,.68q6.68,2.27,9.34,6.73a18.81,18.81,0,0,1,2.66,9.79,32,32,0,0,1-1.25,8.72,48.79,48.79,0,0,1-3.17,8.32l-.33.65a36.09,36.09,0,0,1,6.74,2.43,2.75,2.75,0,0,1,1.11,2q0,2-2.6,2l-2.66-1.24a18.64,18.64,0,0,0-2-.8,14.76,14.76,0,0,0-1.92-.5c-.23,0-.49-.08-.77-.11q-.84,1.37-1.72,2.61a27.3,27.3,0,0,1-4,4.7,22.68,22.68,0,0,1-5.49,3.28A16.71,16.71,0,0,1,99.41,94,9.22,9.22,0,0,0,101,98.33a32.44,32.44,0,0,0,4.27,5q2.6,2.54,5.82,5.26t6.38,5.82a56.58,56.58,0,0,1,5.82,6.69,29.07,29.07,0,0,1,4.15,7.93q4.71,1.36,8.92,2.91t7.68,2.91a2.28,2.28,0,0,1,1.11,2Q145.2,138.71,142.6,138.71Z"/><path class="cls-1" d="M120.43,132.39l-3.72-.74q-3.47-.62-7.18-1.05a65.32,65.32,0,0,0-7.56-.43,38.53,38.53,0,0,0-5.33.5,27,27,0,0,0-6.56,1.86,17.36,17.36,0,0,0-5.57,3.72,8.37,8.37,0,0,0-2.35,6.19,8.58,8.58,0,0,0,1.49,5.08,11.15,11.15,0,0,0,3.9,3.41,18.45,18.45,0,0,0,5.39,1.86,32.19,32.19,0,0,0,5.95.56,37.74,37.74,0,0,0,10.34-1.42,30,30,0,0,0,8.24-3.53,8.75,8.75,0,0,0,3.47-4,13.1,13.1,0,0,0,1-5,15.05,15.05,0,0,0-.43-3.53A27.78,27.78,0,0,0,120.43,132.39Z"/></svg>