<?xml version="1.0" encoding="utf-8"?>
<!-- Generator: Adobe Illustrator 21.1.0, SVG Export Plug-In . SVG Version: 6.00 Build 0)  -->
<svg version="1.1" id="Layer_1" xmlns="http://www.w3.org/2000/svg" xmlns:xlink="http://www.w3.org/1999/xlink" x="0px" y="0px"
	 viewBox="0 0 228 100" style="enable-background:new 0 0 228 100;" xml:space="preserve">
<style type="text/css">
	.st0{fill:none;stroke:#DA3B3D;stroke-width:3.3341;stroke-miterlimit:10;}
	.st1{fill:#DA3B3D;}
	.st2{fill:#FFFFFF;}
	.st3{font-family:'TextMeOne-Regular';}
	.st4{font-size:30.273px;}
</style>
<circle class="st0" cx="26.6" cy="46.3" r="21.7"/>
<path class="st1" d="M26.5,33.7c0,0-4.2,9.6-6.9,14.1c-3.1,5.3-1.1,14,7.5,14c8.6,0,10.2-9.3,7-14.4C30.1,41,26.5,33.7,26.5,33.7z"
	/>
<g>
	<path class="st2" d="M33.2,50.1c0.7,1.5,0.8,3.4,0.2,5.1c-0.1,0.4-0.4,0.8-0.6,1.2c-0.3,0.4-0.5,0.7-0.8,1
		c-0.6,0.6-1.4,1.1-2.2,1.4c0.6-0.6,1.2-1.2,1.7-1.8c0.5-0.6,0.9-1.3,1.1-2.1c0.3-0.7,0.4-1.5,0.5-2.3C33.2,51.8,33.2,51,33.2,50.1z
		"/>
</g>
<text transform="matrix(1 0 0 1 52.9639 56.5112)" class="st1 st3 st4">OCEAN DEEP</text>
</svg>
