<?xml version="1.0" encoding="utf-8"?>
<!-- Generator: Adobe Illustrator 22.1.0, SVG Export Plug-In . SVG Version: 6.00 Build 0)  -->
<svg version="1.1" id="Layer_1" xmlns="http://www.w3.org/2000/svg" xmlns:xlink="http://www.w3.org/1999/xlink" x="0px" y="0px"
	 viewBox="0 0 504 504" style="enable-background:new 0 0 504 504;" xml:space="preserve">
<style type="text/css">
	.st0{stroke:#000000;stroke-width:2.2957;stroke-miterlimit:10;}
</style>
<path class="st0" d="M254.1,61.1c-108.5,0-196.5,88.6-196.5,197.9c0,18.3,2.5,36,7.1,52.8c2.8-4.1,5.9-8,9.4-11.6
	c-0.8-6.8-1.2-13.6-1.2-20.6c0-100.8,81.2-182.6,181.3-182.6s181.3,81.7,181.3,182.6c0,4.2-0.2,8.3-0.5,12.4
	c3.9,3.6,7.4,7.5,10.6,11.8c3.3-14.4,5.1-29.4,5.1-44.8C450.7,149.8,362.7,61.1,254.1,61.1z"/>
<path d="M389.9,355.1c0-29-6-56.5-16.7-81.5c48.4,1.7,87.2,41.8,87.2,91c0,50.3-40.5,91.1-90.5,91.1c-2,0-4-0.1-5.9-0.2
	C380.5,425.7,389.9,391.5,389.9,355.1z"/>
<path d="M124.9,357.7c0-29,6-56.5,16.7-81.5c-48.4,1.7-87.2,41.8-87.2,91c0,50.3,40.5,91.1,90.5,91.1c2,0,4-0.1,5.9-0.2
	C134.3,428.3,124.9,394.1,124.9,357.7z"/>
</svg>
