<?xml version="1.0" encoding="utf-8"?>
<!-- Generator: Adobe Illustrator 22.1.0, SVG Export Plug-In . SVG Version: 6.00 Build 0)  -->
<svg version="1.1" id="Layer_1" xmlns="http://www.w3.org/2000/svg" xmlns:xlink="http://www.w3.org/1999/xlink" x="0px" y="0px"
	 viewBox="0 0 504 504" style="enable-background:new 0 0 504 504;" xml:space="preserve">
<style type="text/css">
	.st0{fill:#FFFFFF;}
	.st1{enable-background:new    ;}
</style>
<path class="st0" d="M254.1,61.1C145.6,61.1,57.6,149.7,57.6,259c0,18.3,2.5,36,7.1,52.8c2.8-4.1,5.9-8,9.4-11.6
	c-0.8-6.8-1.2-13.6-1.2-20.6C72.9,178.8,154.1,97,254.2,97s181.3,81.7,181.3,182.6c0,4.2-0.2,8.3-0.5,12.4
	c3.9,3.6,7.4,7.5,10.6,11.8c3.3-14.4,5.1-29.4,5.1-44.8C450.7,149.8,362.7,61.1,254.1,61.1z"/>
<g class="st1">
	<path class="st0" d="M146.5,317.8c0.5,0.8-0.7,0.8-0.9,1.5c2.4-0.4,4.6-0.5,6.7,0.3c3.4,1.4,6.1,3.4,7.5,7c0.4,1,1.1,1.9,1.6,2.8
		c2,3.4,3.2,7,3.4,10.9c0.1,3.4,0.3,6.8,0.2,10.1c-0.1,3.6-0.1,7.2-0.4,10.9c-0.1,2.4-0.8,4.8-1.4,7.1c-0.9,3.1-2.2,6-2.9,9.2
		c-0.5,2.6-1.5,5.1-3.4,7.2c-0.6,0.7-1.3,1-2,1.4c-1.2,1.2-2.8,2-4.6,2c-0.7-0.1-1.4,0.2-1.8,0.6c-0.8,0.8-1.4,0.5-2.1,0.1
		c-0.6-0.4-1.1-0.8-0.9-1.7c0.1-0.5-0.3-0.9-0.7-1.4c-0.5,0.8-1.2,0.9-2,0.9c-0.7,0-1.4,0-2.1,0.1c-1.9,0.4-3.3-0.5-4.4-1.7
		c-0.5-0.5-1-1.1-1.3-1.7c-0.8-1.2-1.2-2.6-3.2-2.7c0.7-0.7,1-1.1,0.3-1.6c-2.8-2.2-3.4-5.4-3.6-8.8c-0.4-4.6-0.7-9.4-1-14
		c-0.1-1.4-0.1-2.8,0-4.2l0.5-9.9c0.4-4.9,1.3-9.7,3.3-14.3c1.1-2.6,2.7-4.8,4.8-6.7c1-0.8,2.3-1.4,3.4-2c1-0.7,1.8-1.5,3.1-1.2
		c0.3,0.1,0.7-0.2,1.1-0.4c0.3-0.1,0.6-0.3,1-0.4C145.3,317.1,146.1,317.1,146.5,317.8z M142.8,324.2c-1.2,1.3-2.4,2.8-2.9,4.4
		c-0.8,2.1-1.2,4.4-1.1,6.8c0.2,1.2,0.5,2.2,0.4,3.4c-0.2,3.2-0.1,6.4-0.3,9.6c-0.3,3.7,0,7.3,0.1,11c0.2,3.7,0.5,7.3,0.8,10.9
		c0.2,1.9,0.2,3.9,1.4,5.5c0.7,1,1.6,2.7,2.6,3.9c-1.8-0.1-2.4-2.2-3.6-2.7c0.4,0.7,0.7,1.4,1,2.1c0.3,0.5,0.5,1,0.9,1.4
		c0.3,0.4,0.6,1.1,1.1,1c1.1-0.1,1.6,0.7,2.1,1.4c0.3,0.5,0.7,1.1,1.3,1c1.5,0,3.5-1.8,3.6-3.4c0.2-2.5,0.9-5,1.2-7.4
		c0.6-3.5,1.2-6.8,1.4-10.2c0.2-3.9,0.4-7.7,0.8-11.6c0.4-5.1,1.3-10.3,0.6-15.5c-0.5-3.3-1-6.7-2.3-9.7c-0.5-1.4-1.5-2.2-2.9-2.5
		c-1-0.2-2-0.4-3-0.3C144.9,323,143.7,323.3,142.8,324.2z"/>
	<path class="st0" d="M222.3,322.8c1.4,0,4.9,1.5,1.6,1.2c-1.8-0.2-5.3,1.1-4.6,1.1c2.8-0.2,5.7-0.6,6.3,0.3c0.6,1-2.7,0.6-0.9,1.3
		c1.1,0.4-4.2,1.4-6.2,2.8c-1.5,1.1-2.2,2-3,3.7c-0.4,0.8-1.7,2.8-1.7,3.7c-0.1,1.8-0.7,3.2-1,6.3c-0.1,1.3-0.1,2.5-0.1,3.7
		c0.5,0.2,0.9,0,1.2-0.1c1.9-0.3,3.2-0.6,4.8-0.6c1.5,0,3,0.2,4.5-0.2h0.2c0.6,0.2,1.5-0.1,1.5,0.7c0.1,1-0.9,0.6-1.5,0.6
		c-0.3,0.1-0.6,0.1-0.9,0.2c0,0.4,1.1,0.3,1,0.8c-0.2,0.5-1.6,1.4-2,1.3c-1-0.7-1.5,0.2-2.3,0.4c-0.9,0.1-1.8,0.1-2.8,0.3
		c-1.1,0.3-2.4,0.4-3.5,0.4c-0.4,2,0.1,3.9,0.4,5.7c0.4,2.3,0.1,4.6,0.1,6.9c0.1,4.8,0,9.6,0,14.3c0,1.6-0.4,4.2-0.5,5.8
		c-0.3,3,0,6-0.7,8.9c-0.2,1.2-0.2,2.4-1.6,3.1c-0.7,0.4-1.1,1.2-1.9,1.6c-0.7,0.3-1.1-2.6-1.7-3.1c-0.4-0.3-0.7,2.3-1.2,2.3
		c-0.3,0-0.6-0.2-0.7-0.5c-0.4-1.6-1.4-2.9-2.1-4.3c-0.3-0.7-0.4-1.4-0.4-2c-0.1-2.2,0-4.4,0.4-6.7c0.5-2.2,0.4-5.3-0.2-7.5
		c-0.8-2.9-0.6-5.9-0.6-8.9c-0.1-4.2-0.1-8.5,0.2-12.6c0.1-0.6,0.1-1.4-0.1-2.1c-0.7-0.2-1.7,0.4-2.5,0.4c-1.6,0-1.4,0.3-2.1,0.3
		l-1.7,0.2c-3.5,0.4-3.7,0.8-7.2,0.9c-0.4,0-0.8,0-1.1,0.5c0,2.1,0.3,3.4,0.3,7.3c0,1.8-0.1,3.8-0.1,5.6c0,1.6,0,3.3-0.3,4.8
		c-0.4,2,0.1,5.9,0.1,7.9c0,1.1-0.1,4.1,0.3,7c0.1,1.1,0.2,2.1-0.6,3c-0.4,0.5,0.1,1.1-0.2,1.6c-0.8-0.6-0.6-1.4-0.5-2
		c0.1-0.8-0.2-1.4-0.2-2.1c0-0.8-0.1-1.5-0.2-2.6c-0.6,2.4,0.3,4.6-0.5,6.9c-1.1-0.8-0.7-1.9-1.4-2.8c-0.1,1.2-0.3,2.1-0.4,3
		c-0.2,1-2,2.1-2.8,1.9c-0.3-0.1-0.5-0.3-0.6-0.5c-1.5-2.3-3.4-4.7-3.5-7.6c0-2.8-0.4-5.7-0.2-6.6c0.3-1.3-0.1-4.2-0.2-5.4
		c-0.4-4.6-0.7-7.3-0.5-12c0.1-3.5,0.2-3.5,0.3-6.9c-1.9-0.3-6,1.2-4.4-0.3c0.9-0.8-3.2-1.7-2-3.2c2.9-1.3,3.7-1.7,6.5-2.1
		c0.4-0.8,0.3-1.7,0.2-2.5c-0.6-4.5,1.1-8.5,3.2-12.4c1.1-2.1,2.7-4.1,4.2-6c0.4-0.6,0.9-1.1,1.7-1.1c1.1-0.1,2.1-0.5,3.2-0.9
		c0.7-0.2,1.3-0.2,2.1-0.2c0.6,0,1.9-0.5,2.6-0.2c1.5,0.6,2.3,1,3.3,0.9c0.8-0.1,3.1,2.9,2.2,2.9c-2.6,0,1.4,2.6-0.1,4.2
		c-1.5,0.8-4.4-2.1-7.1-1c-1.5,0.7-3.2,1.4-3.8,3c-0.2,0.4-0.8,2.4-0.6,2.9c0.5,1.4-0.4,2.8-0.5,4.2c0,1,0.1,2,0,3.1s0.2,1.9,0.2,3
		c3.9,0.2,6.1-0.1,8.4-0.3c2-0.2,3.1-0.2,6.4-0.7c0.2-1.7,0.3-3.5,0.4-5.1c0.3-3.2,1.1-6.2,2.2-9.2c0.6-1.5,1.5-2.9,3-4
		c0.5-0.4,1-1.1,1.2-1.7c0.7-1.6,2.1-2.4,3.6-3c1.7-0.7,2.5-1.3,4.2-1.8c0.6-0.2,1.2-0.4,1.8-0.2C219.9,323.1,221,322.9,222.3,322.8
		z M185.3,343.2c-0.6,1.4-0.8,4.3,0,4.5h0.2c0.3-1.4,0.1-3.4,0.1-4.5H185.3z"/>
	<path class="st0" d="M255.2,320l2.8,1c3.5,1.3,5.1,4,4.5,7.7c-0.4,1.9-0.6,4-2,5.5c-1.8,2.1-3.6,4.2-6,5.9c-1,0.7-2,1.3-3,1.9
		c-0.5,0.3-1.1,0.4-1.2,1.2c0,0.4-0.4,0.8-0.8,0.7c-1.6-0.1-2.3,1.4-3.5,1.9c-0.6,0.3-0.5,1.3-1.1,1.7c2.9,0.2,5.8,0.4,8.7,0.7
		c2.3,0.3,4.8,0.4,6.9,1.4c3.2,1.3,5.8,3,8.3,5.3c1.1,1.3,1.3,2.6,1,4.1c-0.4,1.9-1.2,3.6-2.1,5.3c-1.6,3.4-4.2,5.7-6.3,8.4
		c-1.8,2.4-3.8,4.4-6,6.3c-0.9,0.7-1.7,1.2-2.6,1.7c-2.9,2.3-5.7,4.8-8.7,6.8c-1.6,1-3,2-4.7,3.2c-0.2-0.7-0.4-1.2-0.5-1.7
		s-0.2-0.9-0.7-1c-1.3,0-1.8-1-2.2-2c-0.1-0.1-0.2-0.3-0.4-0.5c-1.2,0.7-1.5,2.7-3.5,2.8l-0.4-2.7l-1.4-9.7c0.1-0.4,0-0.9,0.1-1.3
		c1-3.4,0.7-6.9,0.7-10.2c0-4.2,0-8.2-0.1-12.4l-0.3-11c-0.1-1.3,0-2.6,0.3-4c0.4-1.1,0.3-2.1,0.3-3.2c0.1-2.5,0.1-5,0.2-7.4
		c-0.1-1.3-0.2-1.4-1.3-1.5c-0.9,0-1.8-0.1-2.7,0.3c-0.8,0.3-1.2-0.2-1.5-0.9c-0.1-0.5-0.3-1.1-0.4-1.7s0.2-1.3,1-1.4
		c0.9-0.1,1.7-0.4,2.6-0.5l15.6-2C248.1,318.3,251.8,318.7,255.2,320z M242,325.9c-0.1,4.6,0,9.5-0.4,14.1c-0.1,0.9-0.5,1.7-0.1,2.8
		c1.9-0.8,3.6-1.4,4.5-3.1c0.1-0.2,0.5-0.4,0.7-0.5c3.8-2.9,5.9-6.9,8.5-10.8c0.9-1.4,0.4-2.2-1.2-2.4c-1.8,0-3.5-0.6-5.3-1.4
		c-1.6-0.9-3.7-0.6-5.7-0.1C242.3,324.8,241.9,324.9,242,325.9z M241.7,352.4c0.6,0.5,1.5,0,1.6,0.9c-0.4,0.6-1.1,0.3-1.7,0.6
		c-0.3,2.1,0,4.4,0.1,6.6c-0.1,2.2,0.3,4.4,0.3,6.7c0,2.1,0.3,4.3,0.5,6.5c0.2,2.1,0,4.3,0.5,6.5c1.9-1.4,3.4-2.9,5.3-3.8
		c0.7-0.2,1.2-0.7,1.3-1.4c0.2-0.6,0.6-1.2,0.8-1.5c1.7-3.2,3.8-6,5.3-9.4c0.7-1.8,1.2-3.7,2-5.5c0.7-1.4,0.7-1.7-0.8-3.1
		c-0.6-0.7-1.3-1-2.2-1.2c-2.3-0.7-4.6-0.5-6.9-0.5c-0.9-0.1-0.9-0.1-1.7-0.8c2.5,0.1,4.9,0.6,7.5,0.2c-0.6-1.1-1.4-1-2.1-0.8
		c-1.6,0.1-3.1-0.2-4.6-0.7C245.2,351.4,243.6,351.6,241.7,352.4z"/>
	<path class="st0" d="M285.8,321c0.1,0.1,0.5,0.1,0.7,0c4-0.7,8.1-0.6,12.2-1.3c1.1-0.1,2.1-0.4,3.2-0.4c1.9-0.1,4,1.4,5,3.4
		c-2.2,0.6-4.4,1.1-6.6,1.1c-2.2-0.1-4.3-0.2-6.5-0.1c-2,0.1-4,0.7-6,0.8c-0.6,0-0.9,0.4-1.1,1c-0.7,2.8-0.1,5.5,0.3,8.3
		c0.1,1,0,1.9,0,3c-0.2,4.2-0.4,8.3,0,12.5c3.2-0.5,6.2,0.4,9.3-0.1c1.5-0.3,2.4,1.1,3.6,1.9c-0.8,0.7-1.3,1.1-2.1,1.2
		c-1,0.1-1.8,0.3-2.8,0.7c-2.2,0.8-4.5,0.9-6.9,1c-1.2,0.1-1.2,0.1-1.2,1.4c0.1,2.3,0.1,4.6,0,7c-0.1,2.5-0.5,5.1-0.3,7.7
		c0.1,0.9-0.1,1.8-0.3,2.7c-0.6,2.3-0.8,4.7-0.5,7.1c0.2,1,0.6,1.3,1.4,1.2c0.7,0,1.3-0.3,2.1-0.1c0.2,0.1,0.5,0.2,0.5,0.7
		c-1.1,1-3-0.1-4.1,1.4c0.8,0.4,1.3,0.1,1.9-0.1c3.4-0.9,6.7-1.4,10.1-2.3c1.7-0.5,3.5-0.2,5.3-0.6c0.5-0.1,1,0.1,1.3,0.4
		c0.6,0.6,1.1,1.1,1.7,1.5c-0.6,0.8-1.6,0.4-2.3,0.9c-0.2,0.6,0.4,0.9,0.6,1.4c0.5,0.7,0.3,1.3-0.6,1.3c-1.5-0.1-2.9,0.6-4.3,1
		c-1.1,0.2-2.1,0.5-3.2,0.5c-3,0-5.8,0-8.7,0.6c-0.8,0.2-1.4,0.2-1.6,1.4c-0.1,0.8-0.7,0.9-1.3,0.3c-0.8-0.6-1.4-0.3-2.2-0.2
		c-3.7,0.6-7.4,0.9-11.2,0.8c-0.6,0-1.1-0.5-1.6-0.7s-0.6-0.6-0.6-1c0-0.6,0.3-0.8,0.8-0.9c1.5-0.5,3.1-0.7,4.8-1.5
		c0-2.2-0.1-4.4,0-6.8c0.6-7.1,0.2-13.9,0.8-21c0.5-6.9,0.7-14,0.9-20.9c0.1-3.5-0.2-6.9-0.2-10.3c0-0.9-0.4-1.3-1.1-1.3
		c-1.2,0-1.1-0.7-2.3-0.9c-0.6-0.1-1.1-0.3-1.3-1c2-0.7,2.7-0.7,4.6-1.1c0.1-0.6,0.2-1.1,0.2-1.5c0-1,0.1-1.7,1.3-1.5
		c0.1,0,0.3,0,0.3-0.1c1.7-1.6,3.4-0.7,5.1-0.1C283.9,319.5,285,319.8,285.8,321z M275.7,385.4c1.5-0.2,1.5-0.2,1.3-1.3
		c-0.1-0.7,0.1-2.3-0.5-3C275.5,382.1,275.8,384.2,275.7,385.4z"/>
	<path class="st0" d="M326.2,318.5c0.6-0.2,1.4,2.4,1.6,3.3c0-2.4,0.4-4.2,1.7-0.5c0.7,1.7,1.5,3.5,2,5.3c0.5,2.1,1.3,4.1,1.6,6.3
		c0.2,1.6,0.4,1.2,1.1,2.6c1.3,2.4,1.2,5.2,1.9,7.8c1.1,4.3,2.7,8.5,4.3,12.6c1.2,3.1,1.7,6.5,2.4,9.8c0.2,0.9,0,1.8,0.2,2.8
		c1,3.6,2.1,7.1,3.5,10.6c0.9,2,1.6,4.3,1.4,6.9c-0.1,1.2-0.2,2.4-1.8,2.6c0,0.1,0.2,1-0.9,1.1c-0.5-0.5-1.2-0.6-1.6-1.5
		c-0.2-0.4-0.9-0.2-1-0.7c-0.4-1.1-1.7-1.4-1.9-0.5c-0.4,1.7-2.2,0.7-3.4,1c-0.8,0.3-1.2,0-1.4-0.8c-1.1-3.2-2.1-6.3-2.9-9.4
		c-0.7-2.6-2-5-2.5-7.7c-0.2-1-0.9-1.3-1.7-1.3c-3.7,0.2-6.6-0.1-10.4,0.4c-0.9,0.1-2.5-0.3-3.1,0.4c-0.6,0.6-0.5,1.6-0.8,2.5
		c-0.4,1.8-1,3.5-1.2,5.3l-0.8,6.7c-0.1,0.8-0.2,1.6-0.4,2.4c-0.2,1.2-0.7,1.4-2.1,1.1c-0.4-0.1-1.1-2.2-1.4-0.7
		c-0.2,0.9-1-1.5-0.9-2.5c0.5-4.3,1.2-8.5,2.3-12.6l0.3-1.4c0.2-1.4,0.2-1.3-1.1-1.6c-0.7-0.2-1.4-0.3-1.8-1.1
		c0.4-0.9,1.2-0.7,1.9-0.8c2.2-0.6,1.9-0.1,2.2-2.3c0.5-3.3,1.7-7.4,2.1-10.7c0.6-4.8,1.3-8.6,2.5-13.3c0.9-3.6,1.1-4.9,1.6-8.5
		c0.5-2.9,1-5.8,1.3-8.6c0.1-0.7,0.2-1.4-0.1-2.1c-0.2-0.7-0.3-1.6,0.7-2s1.9-1.5,3.1-0.9C324.1,318.9,325.2,318.7,326.2,318.5z
		 M321.4,334.7c0.1,2-0.3,4.1-0.9,6c-0.7,2.4-0.4,5-1.2,7.4c-0.8,2.4-1.2,4.8-1.5,7.4c-0.4,3.3-1,6.6-1.5,9.8
		c3.2-0.2,6.6-0.3,9.7-0.5c0.6,0,1.2-0.2,1.7-0.4c1.4-0.3,1.5-0.5,1.1-1.8c-0.9-2.2-1.1-4.6-1.8-6.9c-0.6-1.9-0.7-4.1-1.3-6.1
		c-0.9-2.4-1.3-5-1.6-7.5c-0.3-2.8-0.9-5.6-1.9-8.5C321.5,334,321.3,334.4,321.4,334.7z M336.4,350c0.2-0.7-0.7-4.2-1.1-4.4
		C334.5,346.4,336.2,349.5,336.4,350z"/>
	<path class="st0" d="M382.4,319.5c0.4,0.6,0,1.2-0.4,1.4c-0.8,0.6-1.2,1.5-1.9,2.1c-0.6,0.4,0.1,0.5,0.1,0.9
		c-0.8,0.4-1.6,0.6-2.5,0.5c-1.6-0.1-3.4-0.2-5-0.2c-1.2-0.1-2.5,0-3.7,0.2c-1.1,0.1-1.6,0.5-1.9,1.4c-0.9-0.2-1.5-0.7-2.5-0.6
		c0.6,1.3,0.2,2.8,1.8,3.6c0.4,0.2,0.4,0.9,0.4,1.4c-0.2,2.1,0.3,4.1,0.5,6.3c0.3,2.9,0.2,5.8,0.2,8.7c0.1,4.3-0.2,8.6,0,12.9
		c0.1,1.7,0.3,3.4,0.5,5c0.4,2.8,0.3,5.6,0.3,8.4c0,1.1-0.2,2.2-0.1,3.4c0.1,2.5-0.4,5-0.4,7.6c-0.1,1.7-1.2,3.2-1.4,4.9
		c0,0.2,0,0.3-0.1,0.4c-0.9,0.4-1.8,0.3-2.7,0.8c-0.3,0.2-0.7,0-1.1-0.2c-0.6-0.4-1.3-0.8-2-1.2c-0.5-0.2-1-0.3-1.6,0.1
		c-1.3,0.8-3.3-0.7-3.2-2.3c0.1-2.4-0.2-4.9-0.3-7.3c-0.1-2.2,0-4.3,0.5-6.5c0.3-1.9,0.5-3.9-0.1-5.8c-0.3-1.1-0.4-2.1-0.3-3.2
		c0.2-1.6-0.2-3.2-0.2-4.7c0-3.5-0.1-6.9-0.1-10.4c-0.1-3.8-0.2-7.5,0.5-11.2c0.3-1.4,0.1-3,0.1-4.5c0.1-1.2-0.1-2.4,0.4-3.6
		c0.3-0.6,0-1.3-0.1-1.9c-0.2-0.6-0.7-0.8-1.1-0.9c-1.8-0.1-3.7-0.3-5.6,0s-3.8,0.1-5.7,0.2c-0.6,0.1-1.2-0.1-1.6-0.6
		c0.3-0.4,0.6-0.5,0.9-0.6c0.6-0.2,0.9-0.4,0.7-1.2c-0.1-0.6,0.3-0.9,1-1.1c1.7-0.5,3.6-0.4,5.4-0.5c3.5-0.2,6.7-1,10-1.4
		c4.1-0.5,8.1-1.4,12.4-1.2c2.6,0.2,5.3,0.1,7.9-0.1h1.1C381.8,318.6,382.1,319,382.4,319.5z M357.7,325.3c-0.4,0.6-0.4,2.7,0.3,2.8
		l0.6,0.1c-0.3-0.8,0.1-2.4-0.6-3C358,325.1,357.8,325.2,357.7,325.3z"/>
</g>
<path class="st0" d="M389.9,355.1c0-29-6-56.5-16.7-81.5c48.4,1.7,87.2,41.8,87.2,91c0,50.3-40.5,91.1-90.5,91.1c-2,0-4-0.1-5.9-0.2
	C380.5,425.7,389.9,391.5,389.9,355.1z"/>
<path class="st0" d="M124.9,357.7c0-29,6-56.5,16.7-81.5c-48.4,1.7-87.2,41.8-87.2,91c0,50.3,40.5,91.1,90.5,91.1c2,0,4-0.1,5.9-0.2
	C134.3,428.3,124.9,394.1,124.9,357.7z"/>
</svg>
