<?xml version="1.0" encoding="utf-8"?>
<!-- Generator: Adobe Illustrator 22.1.0, SVG Export Plug-In . SVG Version: 6.00 Build 0)  -->
<svg version="1.1" id="Layer_1" xmlns="http://www.w3.org/2000/svg" xmlns:xlink="http://www.w3.org/1999/xlink" x="0px" y="0px"
	 viewBox="0 0 360 360" style="enable-background:new 0 0 360 360;" xml:space="preserve">
<path d="M184.2,52.6c-70.4,0-127.4,57-127.4,127.4s57,127.4,127.4,127.4s127.4-57,127.4-127.4S254.6,52.6,184.2,52.6z M248.7,107.5
	c-10.6,8.5-21.4,16.8-31.9,25.4c-8.1,6.6-14.6,14.6-18.8,24.3c-2.1,5.1-2.8,10.3-0.1,15.4c0.9,1.7,2.5,3.2,3.8,4.7
	c0.7,0.8,1.5,1.5,2.4,2.2c1.2,1,2.5,1.9,3.7,2.9c2-1.7,3.5-3.5,6.1-3.2c-0.6,0.2-1.2,0.5-2.1,0.9c1.1,0.2,1.9,0.4,2.3,0.5
	c-1,0.2-2.3,0.5-3.5,0.7c0,0.2,0.1,0.4,0.1,0.6c1.2,0.1,2.5,0.2,3.7,0.3c0,0.1,0,0.2,0,0.2c-1.2,0.1-2.4,0.2-3.6,0.3
	c0,0.1,0,0.3,0,0.4c0.8,0.3,1.5,0.5,2.6,0.9c-5.4,0.8-8.8-0.1-12.1-3.2c-2.6-2.4-6-2.3-8.9,0.4c2.9,1,5.8,2,8.7,2.9
	c7.8,2.4,15.6,4.9,23.4,7.2c2.2,0.7,4.5,0.7,6.7-0.7c1.9-1.2,3.8-0.5,4.9,1.3c1,1.7,0.3,3.7-1.6,3.8c-1.5,0.1-3-0.6-4.4-1.1
	c-1.8-0.6-3.4-1.8-5.2-2.2c-9.8-2.3-19.6-4.6-29.4-6.6c-2.2-0.4-4.6,0.1-6.9,0.2c-0.6,0-1.1,0.5-2,0.9c2.5,1.4,4.2,3.3,6.9,3.4
	c0.7,0,1.5,0,2.2,0.3c0.8,0.3,1.8,0.8,2.2,1.5c0.7,1.3,1.8,3,1.5,4.1c-0.4,1.3,0.5,1.5,0.7,2.4c-0.6,0-1.1,0.1-1.9,0.1
	c0.3,0.4,0.5,0.6,0.7,0.9c-0.2,0-0.4,0.1-0.5,0c-2.1-1.1-2.3-3.3-2.4-5.3c-0.1-1.5-0.4-1.8-2-1.5c-2.2,0.4-4.5,0.5-6.7,0.3
	c-4.6-0.3-8.9,0.6-12.6,3.1c-13.8,9.5-26.2,20.3-34.1,35.7c-5.1,10-11.3,19.6-19.1,27.9c-1.5,1.6-3.1,3.1-5,4.4c1-2.7,2.1-5.3,2.9-8
	c2.6-7.9,5.9-15.6,7.3-23.7c1.6-9.2,4.9-17.4,8.7-25.7c0.1-0.3,0.2-0.5,0.2-0.5c-1-0.7-1.9-1.3-2.7-1.9c0.1-0.1,0.1-0.2,0.2-0.2
	c1.2,0.1,2.4,0.2,3.5,0.3c0-0.2,0.1-0.4,0.1-0.6c-0.4-0.3-0.9-0.6-1-0.7c1-0.6,2.1-1.2,2.9-1.9c4-3.7,8.2-7.3,12-11.2
	c2.9-2.9,5.5-6.2,8.2-9.4c-0.1-0.2-0.1-0.5-0.2-0.7c-1.2-0.2-2.5-0.7-3.6-0.6c-4.8,0.4-9.5,1-14.3,1.3c-2.9,0.2-5.9,0.1-8.8,0.3
	c-1.5,0.1-3,0.6-4.5,0.8c-0.8,0.1-1.6,0.2-2.3,0.1c-0.6-0.1-1.1-0.6-1.6-0.9c0.4-0.5,0.7-1.3,1.2-1.5c2.9-1.5,5.9-2.8,8.8-4.3
	c1.9-1,3.9-1.9,5.6-3.1c2.7-2,5.6-2.5,8.8-1.7c3.4,0.9,6.7,1.9,10.1,2.7c3.8,0.9,6.8-0.4,9.3-3.4c4.6-5.5,8.4-11.5,11.5-18.1
	c1.6-3.4,3.5-6.7,5.2-10.1c0.8-1.5,0.2-2.7-1.9-3.5c0.5-1.5,1.4-1.2,2.5-0.4c-0.1-0.6-0.2-1.1-0.2-1.7c0.6,0.2,1.1,0.3,1.8,0.6
	c-0.2-0.7-0.4-1.4-0.6-2c0.1-0.1,0.2-0.2,0.3-0.4c0.7,0.6,1.4,1.3,2.2,2c2.1-1.6,4.5-3.5,7-5.3c6.9-5.3,14.5-9.4,22.4-12.9
	c10-4.3,20-8.6,30-12.9c1.5-0.6,3.1-0.9,4.6-1.3c0.1,0.2,0.2,0.3,0.3,0.5C251,105.4,249.9,106.6,248.7,107.5z"/>
</svg>
