<?xml version="1.0" encoding="utf-8"?>
<!-- Generator: Adobe Illustrator 23.0.0, SVG Export Plug-In . SVG Version: 6.00 Build 0)  -->
<svg version="1.1" id="Layer_1" xmlns="http://www.w3.org/2000/svg" xmlns:xlink="http://www.w3.org/1999/xlink" x="0px" y="0px"
	 viewBox="0 0 504 360" style="enable-background:new 0 0 504 360;" xml:space="preserve">
<style type="text/css">
	.st0{fill:none;stroke:#000000;stroke-width:6.4844;stroke-miterlimit:10;}
	.st1{font-family:'ArialMT';}
	.st2{font-size:12px;}
	.st3{fill:none;}
	.st4{font-family:'Grandma-Regular';}
	.st5{font-size:35.8347px;}
</style>
<g>
	<path d="M192.5,215.1c-2.3,0.4-4.7,0.7-7,1.1h-7h-14h-14h-7c-2.3-0.3-4.7-0.6-7-1c2.3-0.4,4.7-0.7,7-1h7h14h14h7
		C187.8,214.4,190.1,214.7,192.5,215.1z"/>
</g>
<g>
	<path d="M399.1,216.5c-7.1,0.3-14.2,0.5-21.3,0.7l-21.3,0.5c-7.1,0.1-14.2,0.6-21.3,0.4c-3.5-0.1-7.1-0.3-10.6-0.5
		s-7.1-0.6-10.6-1.1v-0.4c3.5-0.5,7.1-0.8,10.6-1.1c3.5-0.2,7.1-0.4,10.6-0.5c7.1-0.2,14.2,0.2,21.3,0.4l21.3,0.5
		c7.1,0.2,14.2,0.4,21.3,0.7V216.5z"/>
</g>
<path class="st0" d="M334.9,225.4"/>
<g>
	<path d="M384.1,191c1.6,2.3,3.4,4.6,5,6.7c1.7,2.2,3.3,4.3,5,6.4l4.9,6.1c1.6,2,3.1,4,4.6,6.1l0.6,0.9l-0.6,1l-4.3,7.1
		c-1.4,2.4-2.9,4.7-4.4,7.1c-3,4.7-5.8,9.4-8.8,14.1l-3-3.8l17.5-7l17.6-6.9c5.9-2.3,11.8-4.5,17.6-6.7c5.9-2.2,11.8-4.5,17.7-6.6v5
		c-5.6-2.3-11.3-4.5-16.9-6.9s-11.2-4.8-16.9-7.3l-17.5-7.6C396.3,196.1,390.3,193.6,384.1,191z M383.8,190.8l70.7,26.9l0.7,0.2
		l-0.7,0.3l-35.2,13.6L384,245.3l-0.8,0.3l0.4-0.7l18.3-27.7v0.2L383.8,190.8z"/>
</g>
<g>
	<path d="M137.3,213.9c-2.5-2.3-5.1-4.5-7.6-6.7s-5-4.3-7.4-6.4c-2.5-2.1-4.9-4.1-7.2-6.1l-7-6.2l1.2,0.5l-14.5,0.4
		c-4.8,0.1-9.7,0.1-14.5,0.2l-7.3,0.1h-7.3H51.2l2-4.3l11.1,13.4c3.7,4.4,7.4,9,11,13.5l-1.8-0.8l7.7,0.1l7.7,0.3l15.6,0.7l16.1,0.8
		C126.2,213.5,131.7,213.7,137.3,213.9z M137.6,214h-64h-0.1l-0.1-0.1L51,187.2l-0.4-0.5h0.6l58.1,0.3h0.1l0.1,0.1L137.6,214z"/>
</g>
<g>
	<path d="M90,213.9c-2.6-1.6-4.9-3.4-7-5.4s-4.1-4.1-5.9-6.3s-3.6-4.6-5.1-7c-1.6-2.5-3-5-4.1-7.9l0.2-0.2
		c3.8,4.4,7.4,8.8,11.2,13.3c3.7,4.5,7.4,8.9,11,13.4L90,213.9z"/>
</g>
<g>
	<path d="M137.6,214l-2.4,4.2l-2.5,4.1l-5,8.2l-10.4,16.2l-0.5,0.8l-1.2,0.1c-3.3,0.1-6.6,0.2-9.8,0.2l-9.8,0.1h-2.1l-0.4-2.1
		l-1.6-9.7l3.9,1.8c-2.8,1.8-5.6,3.6-8.5,5.4l-8.5,5.3l-0.6,0.4h-0.7c-2,0-4.1,0-6.1-0.1l-6.1-0.1l-6.1-0.1c-2,0-4.1-0.1-6.1-0.2
		l-3.8-0.1l2.1-3l11-16l5.7-7.9l2.8-3.9l2.9-3.9l0.2,0.1l-20.7,32.8l-0.2-0.3h24.4h-0.1l17-10.7l0.3-0.2l0.1,0.4l1.6,9.7l-0.2-0.2
		l19.6,0.1l-0.2,0.1l22.1-31.6L137.6,214z"/>
</g>
<g>
	<path d="M81.4,213.8c-0.8,3.3-2.1,6.3-3.4,9.2c-0.7,1.5-1.5,2.9-2.2,4.3c-0.8,1.4-1.6,2.8-2.4,4.2c-0.9,1.3-1.7,2.7-2.7,4
		s-1.8,2.6-2.9,3.9c-2,2.5-4.1,5-6.7,7.2l-0.2-0.1l10-16.4l10.3-16.3L81.4,213.8z"/>
</g>
<g>
	<path d="M98.1,245.5c1.4-3,3-5.8,4.6-8.6l2.5-4.2c0.8-1.4,1.7-2.8,2.6-4.1c1.7-2.8,3.5-5.4,5.3-8.2c1.8-2.7,3.7-5.3,5.6-8l0.3,3.3
		c-2.2-2.3-4.4-4.5-6.5-6.8s-4.2-4.6-6.3-7c-2.1-2.3-4.1-4.8-6.1-7.2c-2-2.5-3.9-4.9-5.7-7.5l0.2-0.2l26.4,26.6l0.2,0.2l-0.1,0.2
		l-22.7,31.6L98.1,245.5z"/>
</g>
<circle cx="82.9" cy="223.1" r="1.8"/>
<circle cx="79.8" cy="229.3" r="1.8"/>
<circle cx="75.8" cy="237.2" r="1.8"/>
<g>
	<path d="M315.5,241.5c-0.1-0.2-0.3-0.6-0.4-0.8s-0.2-0.4-0.3-0.7c-0.3-0.4-0.6-0.8-1-1.1c-0.8-0.6-1.7-0.9-2.7-1.1
		c-2-0.4-4-0.6-6-0.7c-4.1-0.1-8.2,0.3-12.5,0.1c-8.5-0.5-16.9-2.9-24.4-7.2c-1.9-1.1-3.7-2.2-5.4-3.5c-0.9-0.6-1.7-1.3-2.5-2
		l-0.6-0.5l-0.3-0.3c-0.1-0.1-0.3-0.3-0.4-0.4c-0.6-0.6-1.1-1.4-1.3-2.3c-0.2-0.9-0.2-1.7-0.2-2.3l0.1-1.6l0.1-3.1l0.1-3.1l0.1-1.6
		v-0.8v-0.1v-0.2c0-0.1,0-0.3,0.1-0.4c0-0.3,0.1-0.5,0.2-0.7c0.2-0.4,0.4-0.9,0.6-1.2c0.1-0.2,0.3-0.4,0.4-0.6
		c0.2-0.2,0.3-0.3,0.4-0.4l1.1-1.1c0.7-0.8,1.5-1.5,2.2-2.2c1.5-1.5,3-2.9,4.6-4.3c3.1-2.8,6.4-5.5,9.8-8s6.9-4.8,10.5-7
		c0.9-0.6,1.8-1.1,2.7-1.6c0.9-0.5,1.9-1.1,2.9-1.6c2-1,4.1-1.7,6.3-2.3c2.1-0.6,4.6-1,7.1-0.6c1.3,0.2,2.6,0.5,3.8,1.2
		c1.2,0.6,2.3,1.5,3.1,2.5c1.7,2.1,2.6,4.5,2.9,6.8c0.2,1.2,0.3,2.2,0.3,3.3c0.1,1.1,0.1,2.1,0.1,3.2c0,4.3-0.5,8.6-1.5,12.8
		c-0.2,1-0.5,2.1-0.8,3.1s-0.6,1.9-0.8,2.9c-0.5,1.9-0.7,3.9-0.9,5.9c-0.4,4-0.1,8.1,0.8,12c0.2,1,0.4,2,0.8,2.9s0.8,1.9,1.3,2.8
		c0.2,0.5,0.5,0.9,0.6,1.5c0.2,0.5,0.3,1.1,0.3,1.7c0,0.6-0.2,1.1-0.4,1.6c-0.1,0.2-0.2,0.5-0.4,0.7l-0.2,0.3
		C315.8,241.2,315.6,241.4,315.5,241.5z M315.6,241.2c0-0.1,0-0.2,0.1-0.3l0.2-0.3c0.1-0.2,0.2-0.4,0.3-0.7c0.2-0.5,0.3-1,0.3-1.5
		c0-1-0.5-1.9-1-2.8c-0.5-0.9-1-1.8-1.4-2.8c-0.4-0.9-0.7-2-1-3c-1.1-4-1.6-8.2-1.4-12.4c0.1-2.1,0.3-4.1,0.8-6.2c0.4-2.1,1-4,1.4-6
		c0.8-4,1.2-8.2,1-12.3c-0.1-2.1-0.2-4.1-0.6-6.1s-1.1-4-2.4-5.5c-0.7-0.8-1.5-1.4-2.4-1.8c-0.9-0.5-1.9-0.7-2.9-0.9
		c-2-0.2-4.1,0.1-6,0.7c-2,0.6-3.9,1.3-5.8,2.2c-0.9,0.4-1.8,0.9-2.7,1.5c-0.9,0.5-1.8,1.1-2.7,1.6c-3.5,2.2-7,4.5-10.3,6.9
		s-6.5,5.1-9.6,7.8c-1.5,1.4-3.1,2.8-4.5,4.2c-0.7,0.7-1.5,1.4-2.2,2.2l-1.1,1.1c-0.4,0.4-0.6,0.7-0.8,1.2c-0.1,0.2-0.1,0.4-0.1,0.7
		v0.8l-0.1,1.6l-0.2,3.1l-0.2,3.1l-0.1,1.6c0,0.5,0,1,0.1,1.5s0.4,0.9,0.7,1.2c0.3,0.4,0.8,0.7,1.1,1c0.8,0.7,1.6,1.3,2.4,2
		c1.6,1.3,3.3,2.4,5.1,3.5c7,4.3,15.1,6.9,23.3,7.7c4.1,0.4,8.3,0.2,12.4,0.5c2.1,0.1,4.1,0.4,6.1,1c1,0.3,2,0.7,2.8,1.4
		c0.4,0.4,0.7,0.8,1,1.3c0.1,0.2,0.2,0.5,0.3,0.7C315.6,240.8,315.6,240.9,315.6,241.2z"/>
</g>
<g>
	<path d="M188.7,241.4c-0.1-0.1-0.3-0.2-0.4-0.4l-0.2-0.3c-0.1-0.2-0.3-0.5-0.4-0.7c-0.2-0.5-0.4-1-0.4-1.6s0.1-1.1,0.3-1.6
		s0.5-0.9,0.7-1.4c0.9-1.8,1.7-3.7,2.3-5.7c1.1-3.9,1.5-8.1,1.2-12.1c-0.1-2-0.4-4.1-0.9-6.1c-0.4-2-1-4-1.4-6
		c-0.9-4.1-1.4-8.2-1.3-12.5c0.1-2.1,0.2-4.2,0.6-6.3c0.3-2.1,1.1-4.3,2.5-6.1s3.6-3,5.8-3.3s4.5,0.1,6.5,0.7c2,0.6,4,1.2,6,2.1
		c1,0.4,1.9,0.9,2.9,1.4c0.9,0.5,1.8,1,2.7,1.6c3.6,2.1,7.1,4.4,10.4,6.9c3.4,2.4,6.7,5,9.8,7.8c1.6,1.4,3.1,2.8,4.6,4.2
		c0.8,0.7,1.5,1.4,2.2,2.2l1.1,1.1l0.3,0.3c0.1,0.1,0.3,0.3,0.4,0.5c0.2,0.3,0.4,0.6,0.5,1c0.1,0.3,0.2,0.7,0.3,1
		c0,0.2,0.1,0.4,0.1,0.5c0,0.2,0,0.4,0,0.5v1.6v3.1v6.2c0,0.8-0.2,1.5-0.6,2.2c-0.1,0.2-0.2,0.4-0.4,0.6c-0.1,0.2-0.4,0.4-0.5,0.4
		l-0.6,0.5l-2.5,1.9c-1.7,1.2-3.3,2.5-5.1,3.7c-3.6,2.3-7.6,4-11.6,5.2c-2,0.6-4.1,1.1-6.1,1.5c-2.1,0.4-4.2,0.6-6.3,0.7l-12.4,0.6
		c-2.1,0.1-4.1,0.2-6.1,0.4c-1,0.1-1.9,0.5-2.6,1.1c-0.4,0.3-0.7,0.7-0.9,1.1c-0.1,0.2-0.2,0.4-0.3,0.7
		C189,240.8,188.9,241.2,188.7,241.4z M188.7,241.1c0-0.3-0.1-0.4,0.1-0.7c0.1-0.3,0.2-0.5,0.3-0.8c0.2-0.5,0.5-1,0.9-1.4
		c0.8-0.8,1.8-1.3,2.9-1.5c2.1-0.4,4.1-0.6,6.2-0.9l12.3-1.3c2-0.2,4-0.5,6-0.9s3.9-1,5.8-1.6c3.8-1.3,7.5-3,10.8-5.2
		c1.6-1.1,3.3-2.4,4.9-3.6l2.4-1.9l0.6-0.5c0.2-0.1,0.1-0.1,0.1-0.1l0.1-0.1c0.1-0.2,0.2-0.5,0.2-0.7v-6.2v-3.1v-1.5
		c0-0.1,0-0.2,0-0.3s0-0.1,0-0.2c0-0.2-0.1-0.3-0.1-0.5s-0.1-0.3-0.2-0.4c0-0.1-0.1-0.1-0.1-0.1l-0.3-0.3l-1.1-1.1
		c-0.7-0.7-1.4-1.5-2.1-2.2c-1.5-1.4-2.9-2.9-4.4-4.2c-3-2.8-6.2-5.4-9.5-7.8s-6.7-4.8-10.1-6.9c-0.9-0.6-1.8-1.1-2.6-1.6
		c-0.9-0.5-1.7-1-2.6-1.4c-1.8-0.9-3.7-1.6-5.6-2.1c-1-0.3-1.9-0.5-2.9-0.7c-0.9-0.2-1.9-0.1-2.8-0.1c-1.9,0.2-3.6,1.1-4.7,2.6
		c-1.2,1.4-1.9,3.3-2.2,5.2c-0.4,2-0.6,4-0.7,6c-0.2,4.1,0.2,8.1,1,12.2c0.4,2,0.9,4,1.3,6.1c0.4,2.1,0.6,4.1,0.7,6.2
		c0.2,4.2-0.3,8.4-1.5,12.4c-0.6,2-1.5,3.9-2.5,5.7c-0.5,0.9-1.1,1.8-1.1,2.8c0,0.5,0.1,1,0.3,1.4c0.1,0.2,0.2,0.4,0.3,0.7l0.2,0.3
		C188.6,241,188.6,241,188.7,241.1z"/>
</g>
<g>
	<path d="M254.4,225.3c1.6-0.6,3.2-1.2,4.8-1.8l0.1-0.1l0.1,0.1l3.4,4.2c1.1,1.4,2.3,2.8,3.6,4c2.6,2.5,5.6,4.6,8.8,6.3
		c3.2,1.8,6.5,3.1,9.9,4.4c0.8,0.3,1.7,0.6,2.5,0.8c0.9,0.1,1.9,0.4,2.8,0.7c1.8,0.7,3.4,1.9,4.8,3.1c0.7,0.6,1.4,1.2,2,1.9l0.5,0.5
		c0,0.1,0.2,0.2,0.3,0.4c0.1,0.1,0.2,0.3,0.3,0.4c0.1,0.3,0.2,0.6,0.3,0.9c0,0.1,0,0.4,0,0.5v0.3l0.1,5.5l0.1,10.9l0.1,10.9l0.1,5.5
		v2.7v1.4v0.3c0,0.1,0,0.1,0,0.6l-0.2,0.7l-0.7,2.8l-1.6-2.4c-3.7-5.4-7.5-10.9-11.1-16.4c-1.9-2.7-3.7-5.5-5.5-8.3
		s-3.6-5.5-5.3-8.3c-3.5-5.5-7-11-10.3-16.5C261,236,257.7,230.6,254.4,225.3z M254.7,225.4l11.6,16.2c3.8,5.4,7.5,10.6,11.2,15.9
		c1.9,2.6,3.6,5.3,5.4,7.9s3.6,5.3,5.3,7.9c3.5,5.3,7,10.7,10.4,16l-2.3,0.4l0.2-0.6c0,0.2,0,0,0-0.1v-0.3v-1.4v-2.7l0.1-5.5
		l0.1-10.9l0.1-10.9l0.1-5.5v-0.3c0-0.1,0-0.1,0-0.2c0-0.1-0.1-0.3-0.1-0.4c0-0.1-0.1-0.1-0.1-0.1s0,0-0.1-0.1l-0.5-0.5
		c-0.7-0.6-1.3-1.3-2-1.9c-1.3-1.2-2.7-2.3-4.3-2.9c-0.4-0.2-0.8-0.3-1.2-0.4c-0.4-0.1-0.8-0.2-1.3-0.3c-1-0.2-1.8-0.6-2.7-0.9
		c-3.3-1.4-6.8-2.9-9.9-4.8c-3.2-1.9-6.2-4.1-8.8-6.7c-1.3-1.3-2.5-2.7-3.6-4.2l-3.3-4.3l0.2,0.1
		C257.9,224.4,256.3,224.9,254.7,225.4z"/>
</g>
<g>
	<path d="M244.6,223.8l5,1.4l0.3,0.1l-0.2,0.2l-21.1,32.7l-21.2,32.6l-1.9,2.9l-0.3-3.4c-0.2-1.9-0.1-3.7-0.2-5.5l-0.1-5.4
		l-0.1-10.9l-0.1-10.9v-5.4c0-0.1,0-0.3,0-0.5s0.1-0.4,0.1-0.5c0.1-0.3,0.2-0.6,0.3-0.9c0.2-0.6,0.5-1.1,1-1.6
		c0.7-0.8,1.4-1.4,2.1-2.1c1.5-1.3,3.2-2.3,4.9-3.1c1.8-0.8,3.7-1.3,5.3-1.8c3.4-1,6.6-2.4,9.8-4.1c3.1-1.7,6.1-3.6,8.8-6
		c1.4-1.2,2.6-2.4,3.9-3.8C242.2,226.6,243.3,225.2,244.6,223.8z M244.7,224c-0.8,1.5-1.9,3-3,4.5s-2.3,2.9-3.6,4.2
		c-2.6,2.6-5.6,4.9-8.7,6.8c-3.1,2-6.5,3.6-10,4.8c-1.8,0.6-3.4,1-4.9,1.8c-1.5,0.7-2.9,1.7-4.2,2.8c-0.6,0.5-1.3,1.2-1.8,1.7
		c-0.2,0.2-0.3,0.5-0.4,0.8c-0.1,0.1-0.1,0.3-0.1,0.4c0,0.1,0,0.1,0,0.2v0.2v5.4l-0.1,10.9l-0.2,10.9l-0.1,5.4c0,1.8-0.1,3.7,0,5.4
		l-2.2-0.6l21.9-32.2l22-32.1l0.1,0.3L244.7,224z"/>
</g>
<g>
	<path d="M241.4,226.3c-0.7,0.8-1.4,1.7-2.2,2.6c-0.8,0.9-1.6,1.9-2.4,2.9c-1.7,1.8-3.4,3.5-5.3,5c-1.9,1.5-4,2.9-6.1,4
		c-2.1,1.2-4.4,2.2-6.6,3.1c-4.5,1.8-9.2,3-13.9,4.1l-1.8,0.4l-0.4,0.1l-0.6,0.1c-0.4,0.1-0.7,0.1-1.1,0.1c-1.4,0.1-2.8,0-4-0.1
		l-1.8-0.2l-0.5-0.1c-0.2,0-0.4-0.1-0.7-0.1c-0.4-0.1-0.8-0.2-1.2-0.4c-0.8-0.3-1.4-0.7-2-1.1c-0.6-0.4-1.3-0.9-2-1.7
		c-0.6-0.8-1.2-1.9-1.3-3.2s0.5-2.6,1.3-3.5s1.6-1.4,2.5-1.7l0.3-0.1l0.2-0.1l0.5-0.1c0.3-0.1,0.6-0.2,0.9-0.3
		c2.5-0.7,5.1-1,7.6-1.1s5,0.2,7.2,0.2s4.5-0.1,6.8-0.3c4.5-0.5,9-1.6,13.4-3.2c2.2-0.8,4.3-1.6,6.5-2.6s4.3-2.1,6.4-3l0.1-0.1
		l0.1,0.1C241.3,226.1,241.4,226.2,241.4,226.3z M241.1,226.3c-0.1,0-0.1,0-0.1,0H241.1c-2,1.2-4,2.4-6.1,3.6
		c-2.1,1.2-4.2,2.3-6.4,3.2c-4.4,1.9-8.9,3.3-13.6,4.1c-2.4,0.4-4.7,0.6-7.1,0.6c-2.4,0-4.7-0.1-7.1,0c-2.4,0.1-4.7,0.4-6.9,1.1
		c-1.1,0.4-2.3,0.6-3,1.5c-0.4,0.4-0.6,0.9-0.5,1.4c0,0.5,0.3,1,0.6,1.4c0.7,0.8,1.8,1.4,2.8,1.9c0.5,0.2,1.1,0.4,1.6,0.4l1.8,0.2
		c1.2,0.1,2.3,0.2,3.5,0.1c1.1-0.1,2.3-0.4,3.5-0.6c4.6-0.9,9.2-2,13.7-3.6c4.4-1.5,8.8-3.6,12.7-6.2c2-1.3,3.8-2.8,5.5-4.4
		L241.1,226.3z"/>
</g>
<g>
	<path d="M263.3,225.8c0.1,0.1,0.3,0.1,0.5,0.2l0.4,0.2l0.8,0.5l1.5,0.9c1,0.6,2,1.2,3.1,1.6c2.2,0.9,4.4,1.7,6.6,2.4
		c4.4,1.6,8.8,2.7,13.4,3.2c2.3,0.2,4.5,0.3,6.8,0.4l3.5-0.1c1.3,0,2.5,0.1,3.7,0.2c2.4,0.2,4.8,0.5,7.1,0.8c0.2,0,0.9,0.1,1.3,0.2
		c0.5,0.1,0.9,0.3,1.2,0.5c0.6,0.3,1.6,0.8,2.4,1.8c0.8,0.9,1.2,2.2,1.1,3.4c0,1.2-0.6,2.4-1.2,3.2c-2.5,2.8-5.6,3.4-8.3,3.6
		c-2.6,0.2-5.3-0.1-7.7-0.6c-2.5-0.5-4.8-1.2-7.1-1.9c-2.3-0.7-4.6-1.5-6.8-2.4c-2.2-0.9-4.5-1.9-6.6-3c-2.1-1.2-4.2-2.5-6.2-4
		c-1.9-1.5-3.7-3.2-5.4-5c-1.6-1.8-3.1-3.6-4.7-5.4l-0.2-0.2l0.1-0.1C262.9,226.1,263.1,225.9,263.3,225.8z M263.3,226.1
		c-0.1,0.1-0.2,0.3-0.4,0.4v-0.2c3.5,3.2,6.7,6.7,10.7,9.3c3.9,2.6,8.3,4.6,12.7,6.1c2.2,0.8,4.5,1.4,6.8,2.1s4.6,1.2,6.9,1.6
		c2.3,0.4,4.7,0.6,7,0.4c1.2-0.1,2.3-0.3,3.4-0.7s2.1-1.1,2.8-1.9c0.7-0.8,0.8-2.1,0.1-2.9c-0.3-0.4-0.8-0.7-1.3-0.9s-1-0.4-1.6-0.4
		c-2.4-0.3-4.7-0.6-7-0.8c-1.2-0.1-2.4-0.2-3.5-0.2c-1.2,0-2.4,0-3.5-0.1c-2.4-0.1-4.7-0.3-7.1-0.6s-4.7-0.9-6.9-1.6
		c-2.3-0.7-4.5-1.6-6.7-2.5s-4.3-1.9-6.5-3c-1.1-0.5-2.1-1.2-3-1.9l-1.4-1.1l-0.7-0.5l-0.4-0.3C263.5,226.2,263.4,226.2,263.3,226.1
		z"/>
</g>
<g>
	<path d="M245.2,215c0-1.2-0.1-2.3-0.2-3.5c-0.1-0.6-0.2-1.2-0.3-1.8s-0.2-1.4,0.2-2.2c0.2-0.4,0.5-0.8,0.9-1.1s0.9-0.4,1.3-0.5
		c0.9-0.1,1.5,0,2.2,0.2c0.3,0.1,0.7,0.2,1,0.4c0.2,0.1,0.3,0.2,0.5,0.3c0.1,0.1,0.3,0.3,0.4,0.3c0.4,0.3,0.6,0.4,0.9,0.5
		c0.2,0.1,0.5,0.1,0.9-0.1c0.1,0,0.2-0.1,0.3-0.2c0.1-0.1,0.3-0.2,0.4-0.3c0.3-0.2,0.6-0.3,1-0.4c0.7-0.2,1.3-0.3,2-0.2
		c0.7,0,1.5,0.2,2,0.9c0.5,0.6,0.6,1.3,0.6,1.9c0,0.6,0,1.2,0,1.8c0,1.2,0.1,2.3,0.1,3.5s0.2,2.3,0.2,3.5c0,0.6,0,1.2,0,1.8v0.9
		c0,0.3,0,0.8-0.1,1.2c-0.1,0.9-0.8,1.9-1.7,2.4c-0.4,0.2-0.9,0.4-1.3,0.4l-1,0.1c-1.2,0.1-2.4,0.2-3.6,0.2c-1.2,0-2.4,0-3.6-0.2
		c-0.6-0.1-1.4-0.2-2.1-0.6c-0.8-0.4-1.4-1.2-1.6-2c-0.3-1.6,0.1-2.7,0.2-3.8C245.1,217.3,245.2,216.2,245.2,215z M245.5,215
		c0,1.2,0.1,2.3,0.3,3.5c0.2,1.1,0.3,2.4,0.8,3.1c0.2,0.3,0.4,0.4,0.8,0.4c0.3,0.1,0.8,0.1,1.3,0c1.1,0,2.2-0.1,3.4-0.1l3.4-0.2h0.8
		c0.1,0,0.3,0,0.4-0.1s0.2-0.1,0.3-0.4c0-0.1,0.1-0.3,0.1-0.6l0.1-0.9c0.1-0.6,0.1-1.2,0.2-1.7c0.1-1.2,0.4-2.3,0.5-3.5
		c0.2-1.2,0.4-2.3,0.5-3.5c0.1-0.6,0.1-1.2,0.1-1.7s-0.1-1-0.4-1.3c-0.5-0.6-1.8-0.2-2.6,0.3c-0.2,0.1-0.4,0.3-0.6,0.4l-0.2,0.3
		c-0.1,0.1-0.2,0.3-0.4,0.4c-0.5,0.5-1.4,0.9-2.4,0.9c-0.9-0.1-1.7-0.4-2.3-0.9l-0.3-0.2c-0.1-0.1-0.2-0.1-0.3-0.2
		c-0.2-0.1-0.4-0.2-0.6-0.3c-0.4-0.2-0.9-0.3-1.2-0.3c-0.4,0-0.5-0.1-0.7,0.1c-0.5,0.4-0.6,1.8-0.8,2.9
		C245.6,212.7,245.5,213.8,245.5,215z"/>
</g>
<text class="st1 st2"> </text>
<rect x="98.9" y="-394" class="st3" width="438.7" height="357.7"/>
<text transform="matrix(1 0 0 1 134.0911 246.563)" class="st4 st5">gift </text>
<text transform="matrix(1 0 0 1 320.7224 246.563)" class="st4 st5">shop </text>
<g>
	<path d="M126,132.6l0.9,3.7c0.2,0.4,0.3,0.8,0.4,1.2c0.1,0.5,0.1,1,0.3,1.4l0.4,1.8c-0.1,0.1,0,0.2,0,0.3l0.3,1.3
		c0.1,0.5,0.3,0.8,0.4,1.2c0.1,0.5,0.1,0.9,0.2,1.4l0.3,1.3c0.1,0.2,0,0.5,0,0.7c0,0.3,0,0.4,0.1,0.7c0,0.1,0.1,0.1,0.2,0.3
		c0.1,0.3,0.1,0.6,0.2,1c0.1,0.6,0.2,1.3,0.3,1.9v0.3c-0.1,0.5,0,0.9,0.1,1.4c0.1,0.4,0.2,1,0.1,1.6c0.1,0.6,0.4,2.3,0.4,2.8
		c0.1,1.2,0.1,2.4,0,3.7v1.2c0.1,0.3,0,0.8,0.1,1.1c0.1,0.7,0.2,1.5,0.1,2.2l-0.1,0.5v0.8c0,0.8-0.2,3.4-1.1,3.9
		c-0.3,0.2-0.8,0.6-1.2,0.7c-0.6,0.1-1.7-1.1-1.9-1.6c-0.2-0.5-0.3-1.1-0.5-1.6c-0.2-0.9-0.5-2-1-2.6l-1.2-5.2
		c0.1-0.4,0-0.7-0.1-1.2l-0.3-1.3c-0.2-1.7-0.2-3.4-0.2-5.4c0-0.1,0-0.3,0-0.3c-0.1-0.9-0.1-1.9-0.1-2.7c0-0.1,0.1-0.4,0.1-0.4v-0.3
		c-0.1-0.2,0.1-0.9,0.1-1.2c0-0.1,0-0.2,0-0.3c0,0,0-0.3,0-0.6l-0.5-2c-0.2-0.9-0.6-2.2-0.9-3.1c-0.2-0.5-0.5-1.3-0.6-1.9l-0.2-0.9
		c-0.5-1.8-1-3.5-1.6-5.2c-0.4-1.1-0.9-2.7-1.2-3.9l-1.7-5.5c-0.1-0.2-0.2-0.5-0.2-0.7l-0.1-0.3c0-0.2-0.2-0.3-0.2-0.4
		c-0.3-0.8-0.7-1.5-1-2.3c-0.4-0.7-0.8-1.6-1.1-2.4c-0.1-0.6-0.3-1.1-0.4-1.5c0-0.1-0.3-0.6-0.4-0.7c-1.1-1.8-1.3-1.9-1.4-1.8
		c-0.6,0.1-0.9,1.5-0.8,1.9l-0.4,2c-0.3,1.4-0.3,2.4-0.1,3.9c0,0.7-0.3,1-0.6,1.1c-0.4,0.1-0.9-0.1-1.1-0.8
		c-0.3-1.3,0.1-5.9,1.3-7.4c0.1-0.1,0.6-1.3,1.6-1.9c0.9-0.2,2-0.5,2.9-0.3c1.8,0.7,3.4,1.5,4.7,4c0.1,0.2,0.3,0.5,0.5,0.8l0.4,0.7
		c0.8,1.6,1.6,3.1,2.1,4.8c0,0.2,0.2,0.3,0.3,0.4c0.1,0.1,0.2,0.3,0.3,0.4c0.5,1.6,1.1,3.5,1.7,5.1c0,0.2,0.1,0.6,0.1,0.9
		c0.1,0.6,0.4,1.2,0.6,1.6l0.4-1.2c0,0,0-0.2,0-0.3l0.4-1.4c0.3-1,0.6-1.8,0.9-2.3l1.5-2.9c0-0.1,0.1-0.4,0.1-0.4l0.2-0.5
		c0.3-0.8,0.6-1.6,1-2.3c0.1-0.1,0.4-0.5,0.4-0.8c0.2-0.3,1-1.7,1.1-1.9c0.8-1.4,2.2-3.6,4.1-4.1l1.7-0.4c2.3-0.5,4.3,2,4.9,4.2
		l0.4,1.3c-0.1,0.2,0,0.7,0.1,1.1l0.2,0.7c0.1,2-0.1,4.1-0.5,5.9l-0.3,1.6c-0.1,0.9-0.3,1.9-0.5,2c-0.5,1.7-1.5,3.5-2.5,5.1
		c-0.1,0.1-0.2,0.5-0.2,0.5l-0.6,0.8l-0.1,0.7c-0.6,0.6-1.2,1-1.3,1.5c-0.1,0.1-0.1,0.2-0.1,0.3c-0.1,0.1-0.1,0.2-0.1,0.3l1.4,0.3
		c1.9,0.8,3.4,2,5,3.3c0,0.1,0.1,0.1,0.2,0.2c0.3,0.4,0.5,0.6,0.9,0.7c0.7,0.8,1.4,1.7,2.1,2.8c0.1,0.2,0.3,0.4,0.3,0.5
		c0,0.2,0.2,0.4,0.4,0.5c0.5,1.3,0.9,2.5,1.5,3.6l0.9,3.7c0,0.1,0,0.3,0.1,0.6l0.4,1.6c0.4-0.2,0.9-0.5,1.9-0.7
		c0.9-0.2,2.1-0.4,2.4,0.1c0,0.2-0.4,0.8-0.6,0.8c-1-0.2-1.6-0.2-2.3,0c-0.5,0.1-0.9,0.4-1.5,0.8c0.1,0.8,0.2,1.7,0.1,2.6l-0.2,2.8
		l-0.2,1.1c0,0.8-0.3,1.7-0.5,2.5l-0.3,1.4c0,0.5-0.1,1-0.5,1.4l-0.5,1.7c-0.1,0.1-0.1,0.2-0.1,0.3c0,0-0.1,0.3-0.1,0.5l-0.4,0.5
		c-0.2,0.2-0.3,0.5-0.5,1c-0.6,1.1-1,2.2-2.1,3.2c-0.2,0.2-0.5,1-0.6,1.2c-0.4,0.3-0.8,0.3-1.1,0.7c-0.5,0.2-1.2,0.4-1.2,0.4
		c-0.4-0.1-1.2-0.4-1.3-0.9c-0.1-0.1-0.3-0.3-0.3-0.3c-0.2-0.1-0.3-0.4-0.5-0.8l-0.5-2c0-0.1,0-0.3,0.1-0.4c0.1-0.6,0.1-1.3,0.1-1.9
		c0.3-1.8,1.2-4.1,2-5.6c0.8-2,2.3-4,3.6-5.7c0.3-0.4,0.6-0.9,1-1.3l-0.1-0.6c-0.4-1.8-1.1-3.7-1.8-5.3l-1-1.9l-0.5-1.8
		c-0.5-1-1.1-2.2-1.7-3.1c0-0.1-0.5-1-0.9-1.5c-0.1-0.1-0.3-0.4-0.3-0.4l-1.2-1.5c-0.5-0.6-2.2-2.3-3.2-3.2
		c-0.4,0.3-0.8,0.7-1.2,0.9l-0.5,0.2c0,0.1-0.1,0.3-0.1,0.3c-0.5,0.4-1,0.9-1.3,1c-0.9,0.2-1.4-0.8-1.5-1.1c-0.1-0.5,0-1.2,0.3-1.6
		c0.5-0.7,1.6-1.4,2.6-1.6c0.6-0.1,1.1-0.2,1.6-0.2l1.6-2.9c0.1-0.2,0.2-0.5,0.2-0.5c0.1-0.4,0.1-0.9,0.2-1.1l0.4-0.9
		c0.2-0.5,0.3-1.2,0.6-1.7c0,0,0.1-0.4,0-0.5c-0.1-0.3,0.1-0.9,0.3-1.4c0-0.2,0.2-0.4,0.1-0.5c0.2-1.2,0.1-3.6,0.1-3.7
		c-0.1-0.2,0-1,0-1.6c0-0.5,0-1-0.1-1.3c0-0.2,0-0.3,0-0.4c-0.1-0.6-0.2-1.3-0.1-1.9c-0.1-0.3-0.3-1.1-0.3-1.4
		c-0.1-0.5-0.2-1.4-0.3-1.5c-0.2-0.9-0.3-1.2-0.5-1.7c-0.3-0.7-0.7-1.4-1.2-1.5c-0.4,0.1-0.8,0.3-1.1,0.4c-0.1,0-0.2,0.1-0.3,0.2
		s-0.2,0.1-0.2,0.1c-0.8,0.5-1.8,1.8-2.3,2.6l-0.2,0.4c-0.1,0.4-0.2,0.5-0.3,0.6s-0.1,0.2-0.3,0.2l-0.3,0.3l-0.6,1.5
		c-0.4,0.9-1,2.3-1.5,3.2c-0.4,1.2-1.2,2.8-1.8,3.8l-0.4,1.4c-0.3,0.5-0.3,1-0.5,1.4c0,0-0.1,0.3-0.2,1.1
		C126.2,131.7,126,132.1,126,132.6z M128.1,167.4c0-0.1-0.1-0.7-0.1-1l-0.1-0.3c0,0,0-0.1,0-0.3c0-0.1,0-0.3,0-0.3l-0.8-2.5
		c-0.1-0.6-0.3-1.5-0.3-2.2c-0.1-0.7-0.2-1.8-0.4-2.7c0,0-0.1-0.1-0.2-0.3c0-0.1-0.1-0.2-0.2-0.3l-0.6-2.4c-0.1-0.6-0.2-1.1-0.3-1.8
		l-0.5-2c-0.2-0.9-0.6-2.1-0.8-3.1v0.5c0,0.1,0,0.3,0.1,0.6c-0.1,0.6-0.2,1.2-0.2,1.7c0,0.1,0,0.2,0,0.4c0,2.6,0.2,5,0.6,7.4
		l0.2,0.9l-0.2,0.4c0,0.1,0.3,0.3,0.3,0.3l0.7,2.8c0.4,1.6,0.9,3.2,1.5,4.8c0,0.2,0.1,0.4,0.1,0.6c0.1,0.2,0.5,0.6,0.6,0.9
		c0.2,0.5,0.5,1.2,0.9,1.1C128.7,170.6,128.3,168,128.1,167.4z M134,140.1c-0.4-0.2-0.9-0.4-1.2-0.3c-0.3,0.1-0.5,0.2-0.7,0.3
		c-0.1,0.1-0.2,0.2-0.4,0.3c-0.3,0.4-0.7,1.1-0.5,1.5c0,0.1,0.5,0.6,0.8,0.5C132.7,142.3,133.7,140.8,134,140.1z M146.1,161.2
		c-0.7,0.8-1.7,2.1-1.8,2.3c0,0-0.2,0.3-0.3,0.3c-1.7,2.6-3.8,6.8-4,9.9c0,0,0,0.2,0,0.3c0,0.3,0.1,0.6,0.1,0.6
		c-0.1,0.1-0.1,0.3-0.1,0.4c0,0.1,0.2,0.6,0.2,0.6c0.3,1.1,0.6,2,1.4,2.4c0.1,0.1,0.3,0,0.3,0c1.7-0.7,2.7-2.6,3.5-4.4l0.4-2
		c0.4-0.9,0.8-2.5,0.6-4c0-0.1,0-0.3,0-0.3l0.2-2.9L146,162C146.2,161.9,146.1,161.6,146.1,161.2z"/>
	<path d="M169.9,148.8c0.2,0.5,0.3,1,0.4,1.7c0.1,0.8,0.2,1.8,0.3,2.7c1.1-0.4,1.7-1.7,2.1-2.7c0.3-0.9,1.1-2.7,1.2-3.8
		c0.3,0,0.5,0.3,0.6,0.4c-0.2,1.2-0.6,3.5-0.8,4.2c-0.4,0.7-0.7,1-0.8,1.4c-0.6,0.8-1.3,1.6-2.1,2c0,1.3-0.2,2.8-0.5,3.9
		c-0.1,0.4-0.1,0.7-0.3,0.9l-0.3,0.5c-0.1,0.1-0.3,0.6-0.3,0.7c-0.9,1.6-2.5,2.5-4.4,2.8c-0.9,0.1-1.9,0.1-2.5,0
		c-2.4-0.5-4.8-2-6.2-4.1c-0.1-0.1-0.3-0.5-0.4-0.7c0-0.2-0.1-0.4-0.2-0.5c0-0.1-0.1-0.1-0.2-0.3c-0.1-0.1-0.2-0.3-0.2-0.4
		c0-0.1-0.1-0.2-0.1-0.3c-0.1-0.3-0.3-0.7-0.5-2.2c-0.1-0.6-0.2-1.5-0.1-2.2c0-0.2,0-0.3,0-0.5c-0.1-0.3-0.1-0.5,0-0.5
		c0,0,0.1-0.2,0.1-0.4c0.1-0.2,0.1-0.4,0.1-0.5l-0.1-0.3c0-0.1-0.1-0.3,0-0.5c0-0.1,0-0.3,0-0.3c0.1-0.1,0.1-0.3,0.1-0.3
		c-0.1-0.1-0.2-0.3-0.2-0.4l0.7-0.6c0-0.2,0-0.3,0-0.4c-0.1-0.4,0-0.7,0.2-1.2c0.1-0.2,0.2-0.4,0.4-0.7c0,0,0.4-0.8,0.6-1.1
		c0.1-0.1,0.7-0.9,1-1.3l0.5-0.6c1.3-1.4,2.6-1.9,4.2-2.4c0.6-0.2,1.3-0.5,2-0.6c0.5-0.1,1.1-0.1,1.3,0s0.7,0.4,0.7,0.4
		c0.3,0.1,0.7,0.3,1,0.7c0,0-0.1,0.3-0.4,0.3l-0.3-0.2c-0.6-0.2-1.6-0.4-2.7-0.2c-0.8,0.1-1.5,0.6-2.1,1.2c-1.8,2.3-2.1,6-2,8.7
		c-0.1,1.2,0,1.8,0.2,3.2c0.4,2.7,1.9,7.9,5.2,7.5c0.6-0.1,1.2-0.4,1.7-0.8c0,0,0.3-0.1,0.4-0.3l0.2-0.5c1.1-1.7,1.5-3.5,1.4-5.6
		c-0.3,0-0.5-0.1-0.7-0.2c-1.3-0.6-2.4-2.7-2.6-4.2c-0.2-1.4,0.1-3.2,1.6-3.5C168.4,146.5,169.2,147.4,169.9,148.8z M168.9,153.2
		c0-0.7-0.2-1.5-0.3-2.2c0-0.2-0.2-0.2-0.2-0.3l-0.1-0.7c-0.3-1.1-0.7-1.9-1-1.9c-0.2,0-0.5,0.2-0.2,1.6c0.1,0.6,0.6,2,1.2,2.8
		C168.5,152.9,168.7,153.1,168.9,153.2z"/>
	<path d="M174.7,156.7c-0.1-0.6-0.2-0.9-0.5-1.2c0,0-0.4-3.1-0.6-4.5c0,0,0-0.8-0.1-1.5c-0.1-0.8-0.3-1.6-0.5-2.1
		c0,0,0.1-0.5,0.2-0.6l-0.2-1.6c0-0.1-0.1-0.2-0.1-0.4c-0.1-0.2-0.1-0.4-0.1-0.6c-0.1-1-0.2-2.3-0.6-2.2c-0.2,0-0.4,0.2-0.5,0.4
		c-0.2,0-0.4-0.4-0.4-0.4c1.2-1.8,2.3-2.1,3.3-2.2c1.4-0.1,2.3-0.2,2.8,1.2c0,0.1,0.2,0.1,0.3,0.3c0.3,0.9,0.4,1.4,0.5,2.3l0.1,0.5
		c0,0.2,0,0.5,0,0.8c0,1.5-0.1,2.9-0.4,4.4c0,0.1-0.1,0.2-0.1,0.2c-0.2,0.9-0.4,1.8-0.4,2.8c-0.1,1.5,0,2.9,0.1,4.4
		c0.1,0.5,0,0.8,0,1.1l0.1,1c0,0.4,0.2,1,0.4,0.9c0.9-0.1,2-3.2,2.6-5l0.2-0.6c0-0.1,0.1-0.3,0.1-0.3c0.4-1.3,0.8-2.8,1.2-4.2
		c0.2-0.9,0.6-2,0.7-3.2l0.2-2.5c0-0.3-0.1-0.6,0-0.8c0-0.8,0-2,0-2l0.1-3.6c0-0.3,0-1.3,0.1-1.6c0.1-1,0.5-2.3,0.9-2.9
		c0.8-0.7,2-1.5,2.4-1.6c0.4,0,1.1,0.4,1.6,1c0.4,0.4,0.6,1.1,0.7,1.7l0.4,3.4c-0.1,1.2-0.4,2.2-0.6,3.4l-0.5,3.4
		c-0.1,1.4-0.2,3.1-0.1,4.5l0.2,2.3c0,0.2,0.1,0.7,0.2,1.2c0.1,0.5,0.2,1,0.2,1.1s0,0.3,0.1,0.6c0.1,0.4,0.2,0.8,0.3,0.9
		c0.4,1.4,1.8,4.6,3.1,4.5c0.8-0.1,1.6-0.9,2.2-1.9c0.2-0.8,0.3-1.3,0.5-1.5c1.5-3.8,2.4-7.7,1.9-11.7c-0.1-1-0.2-1.9-0.5-2.7
		c0-0.2-0.5-1.5-0.8-2.1l-0.8-0.2c-0.4-0.1-0.8-0.2-1.2-0.2c-0.6-0.1-1-0.7-1.1-1c-0.3-0.2-0.4-0.6-0.4-0.9
		c-0.1-0.9,0.6-1.6,1.6-1.7c0.7-0.1,1.4,0.4,1.9,1c-0.1-0.1,0.3,0.5,0.4,0.7c0.2,0.4,0.4,0.9,0.7,1.2c1.4-0.2,2.1-2,2-2.7
		c-0.1-0.6-0.2-0.6-0.3-0.7c-0.1-0.1-0.2-0.1-0.2-0.3c0-0.1,0.1-0.2,0.3-0.2s1,0.3,1.1,1.1c0.1,0.6-0.2,1.6-0.8,2.1l-0.2,0.8
		c-0.4,0.3-1,0.6-1.5,0.8c0.5,1.4,1,3.6,1.3,5.8c0,0.2,0.1,0.4,0.1,0.6c0.4,3.5-0.8,7.4-2.1,10.6c0,0.2-0.1,0.4-0.3,0.6l-0.1,0.3
		c-0.3,0.4-0.3,0.6-0.3,0.6l-1.9,2.2c0,0-0.3,0.1-0.5,0.3s-0.6,0.4-0.7,0.4h-1l-0.8-0.2h-0.3c-0.4,0-0.4-0.1-0.5-0.2
		c-0.1-0.2-0.3-0.4-0.7-0.5s-0.9-0.4-1.3-1.2l-0.2-0.3c0-0.1-0.1-0.2-0.1-0.2s-0.1-0.2-0.3-0.3s-0.3-0.3-0.3-0.5
		c-1.5-2.5-2.5-5.7-3-8.6l-0.1-0.6c0-0.2-0.2-0.7-0.3-1.2l-0.7,2.8c-0.2,0.8-0.4,1.5-0.5,2.2c-0.9,3.4-1.8,6.1-3.7,8.6
		c-0.1,0-0.2,0.1-0.3,0.1c-0.2,0.1-0.5,0.3-0.9,0.3C175.9,161.5,175.4,158.9,174.7,156.7z M194.4,138.5l0.5,0.1
		c-0.3-0.9-0.9-2-1.5-2c-0.3,0-0.4,0.4-0.4,0.7c0,0.4,0.5,0.8,1,0.8C194.2,138.2,194.3,138.3,194.4,138.5z"/>
	<path d="M228.8,123.9c-0.1,0.2-0.4,0.4-1,0.4c-0.2,0-0.6,0-1.1-0.1c-0.6-0.1-1.5-0.5-2.5-1c-0.6,0.2-1.1,0.4-1.6,0.7
		c-0.5,0.3-1,0.7-2.6,2.1c-1.9,1.9-2.5,3.3-2.8,3.9c-0.8,2.6-1.9,5-1.8,7.4c0,0.8,0,1.9-0.1,2.8v1.4c0,1.1,0.4,2.3,0.6,3.1
		c0.1,0.3,0.3,1.1,0.3,1.4c0.9,2.6,2.1,5.7,4.7,7.8c0.7,0.6,2.9,1.7,2.9,1.7l3.8,0.7c0.7,0,2.1-0.2,2.9-0.3c0.3,0,0.6-0.1,0.6-0.1
		c0.2,0,3.3-1,4.2-1.6c0.7-0.5,2.3-1.7,2.7-2.2c0.4-0.4,1.8-3,2-3.5c0.2-0.7,1-3.7,1-4.6v-1.6c-0.2-1-0.5-1.9-1-2.7
		c-0.3-0.4-1.5-2-2.2-2.9c-1.6-1.4-3.6-2.4-6-2.3c-1.7,0-2.7,0.9-4.2,1.7c-0.5,0.4-1.5,2-2,3.4v0.6c0,0.5,0.1,0.9,0.3,1.3
		c0.1,0.2,0.3,0.8,0.3,1c0.3,0.6,1.4,1,2,1.2c0.2,0.1,0.7,0.2,0.7,0.3c-0.1,0.4-0.7,0.6-1.1,0.6c-0.3,0-1.6-0.1-2-0.3
		c-0.3-0.2-1.8-1.8-1.8-2.6c0-0.1-0.1-0.2-0.1-0.4c-0.1-0.3-0.2-1-0.2-1.5v-0.9c0-0.3-0.1-0.8-0.1-1.1c0.3-1.5,0.9-3.8,1.8-5.6
		c0.9-1.6,1.7-3.3,2.1-3.8c0.6-0.9,3.9-5.4,4.8-5.9l0.8-0.8c0.6-0.7,1.5-1.6,2.6-2.6c1.9-1.5,4.2-3.2,5-3.7c1.5-1,2.7-2,4.2-2.9
		l1-0.6c1-0.5,3.5-2,6-3.8c2.2-1.6,4.5-4.1,5.3-5c0.6-0.7,1.2-1.7,1.7-2.7l0.9-1.7c0.8-1.6,1.2-3.5,1.5-6v-1.9
		c0-1.9-0.8-3.7-1.4-4.7c-0.7-1-2.9-1.7-2.9-1.7l-2.7-0.5c-0.6,0-1.5,0-2.1,0.4c-0.5,0.1-1,0.3-1.5,0.7l-0.6,0.4
		c-0.6,0.3-1,0.7-1.5,1.4l-0.6,0.7c-0.8,0.9-1,2.3-1.4,4c0,0.1,0.1,0.2,0.1,0.3s0.2,0.6,0.3,0.8c0,0.1,0.2,0.4,0.2,0.4
		c0,0.8-0.7,0.9-1.2,0.9c-0.4,0-1.1-0.5-1.2-1.1c0-0.2,0.1-0.9,0.2-1.2c0.3-1.3,1.5-4,2.1-4.8c0.8-0.9,2.5-2.4,5.4-3.4
		c0.2-0.2,0.6-0.2,1.2-0.2h1c2.4,0,5.4,0.9,6,1.3s2.1,1.5,3.1,2.7c1.2,1.5,1.6,4.7,1.7,6.1V94c0,1.3-0.3,3.2-1,4.8
		c-0.9,2-2.8,4.5-3.8,5.5c-1,0.9-3.8,3.2-6.3,4.7c-2.1,1.3-5.8,3.2-7.5,4.2c-0.1,0.1-0.2,0.2-0.2,0.2l-1.3,0.8c-1,0.5-2.4,1.5-4,2.5
		c-1.8,1.2-4.4,3.4-5.8,4.9c-2.1,2.2-3,3.1-4.5,5c-1.1,1.5-1.7,2.7-2.3,3.8l-0.2,0.4c-0.3,0.6-0.5,1.1-0.6,1.6
		c-0.2,0.7-0.5,1.3-0.9,1.9c0,0.1-0.1,0.4-0.1,0.6c-0.3,0.7-0.6,1.6-0.8,2.2c0.6-0.7,0.9-1.1,0.8-1.1c1-1.5,3.6-2.4,5.2-2.4
		c0.6,0,1.6,0.2,2.2,0.3c1.4,0.2,2.8,0.5,4.2,1.8c0.7,0.7,2.5,2.8,2.9,3.4c0.3,0.6,0.8,2.1,1.2,3.9v0.6c0,0.2,0.1,0.5,0.1,0.6
		c0,1.7-0.8,4.1-1.2,5c-0.5,1-1.2,2.3-2,3.4c-1,1.3-2.6,2.3-5.5,3.7c-1.8,0.8-4.2,1.1-5.8,1.2c-0.6,0-1.1-0.1-1.5-0.1h-0.5
		c-0.8-0.1-2.8-0.6-4.8-1.2l-0.8-0.3c-2.7-0.9-5.3-3.8-6.9-5.7c-1.5-1.8-2.9-6.3-3-7.5v-1.3c0-1.1,0-2.6,0.2-3.6
		c0.1-1.4,1.1-4.2,1.4-5.2c0.3-1,2-2.7,3.2-4.1l0.6-0.7c0.9-1,2.8-2.2,5-3.7c0.2-0.1,1.2-0.6,2.3-0.9c-1.5-1.2-2.8-2.1-3.7-3.4
		l-1.1-1.7c-0.8-1.4-0.9-2.7-0.9-3.9c0-0.5,0-1.1,0.1-1.5c0.1-0.9,0.5-1.8,1.5-3.2c0.6-0.7,3.4-2.1,4.7-2.2c0.2-0.1,0.5-0.2,0.9-0.2
		c0.8,0.1,2.4,0.4,2.9,0.8c0.4,0.2,0.6,0.5,0.8,0.6c0.2-0.4,0.6-0.8,0.8-1l0.3-0.3c0.7-0.7,1.7-1.3,2.7-1.3c0.6,0,1,0.5,1,0.6h-0.8
		c-0.2,0-0.4,0.1-0.6,0.2c-0.2,0.1-0.2,0.2-0.3,0.2c-0.4,0.3-1,1.2-1.4,2.1c-0.2,0.5-0.3,0.9-0.5,1.3l0.8,1.2c0.2,0.3,0.3,1,0.3,1.9
		c0,0.3-0.1,0.6-0.1,1v0.6c-0.1,0.8-0.3,2.1-0.9,2.6c-0.2,0.4-0.9,0.5-1,0.5c-0.4,0-0.9-0.1-1.1-0.3c-0.4-0.5-1.2-1.8-1.2-3
		c0-1.1,0.3-3.1,1-4.2l0.8-1.4l-0.6-0.6c-0.7-0.4-1.5-0.7-2.1-0.7c-0.9,0-2.8,0.6-3,1.7l-0.2,0.3c-0.2,0.6-0.5,1.1-0.9,2.1
		c-0.2,0.6-0.3,1.1-0.3,1.4s0.1,0.6,0.1,0.8v1.1c0,2.1,1.3,5,2.6,6.6l0.9,1c0.4-0.1,0.8-0.2,1-0.2c0.7,0,1.9,0.2,2.6,0.4
		c0.6,0.2,0.7,0.9,0.8,1.2C229.1,123.6,228.9,123.6,228.8,123.9z M225.5,122.7c0.7,0.6,1.4,1,2.3,1c0.2,0,0.2-0.1,0.2-0.2
		c0-0.6-1.4-0.9-2-0.9C226,122.6,225.6,122.6,225.5,122.7z M229.5,110.3c-0.2,0.6-0.2,1-0.2,1.1c0,0.3-0.1,0.7-0.1,1l-0.4,2
		c-0.2,0.4-0.2,0.9-0.2,1.4s0.2,1,0.3,1c0.2,0,0.6-0.7,0.8-1.1s0.3-1.8,0.3-3c0-0.9,0-1.8-0.1-2.2L229.5,110.3z"/>
	<path d="M278.4,142.9l-0.5-0.4c-0.8-0.4-0.9-1.4-0.9-1.5s0.2-0.6,0.4-0.9c0.2-0.2,0.4-0.3,0.7-0.4c0.2-0.1,0.6-0.1,0.7,0
		c0.2,0,0.4,0.4,0.4,0.6c0,0.1-0.1,0.2-0.1,0.3c-0.1,0.2-0.1,0.4-0.1,0.6c0,0.2,0.1,0.7,0.2,0.8s0.3,0.3,0.4,0.3
		c0.2,0.1,0.5,0.1,1.1,0.1l0.4-0.5c0.1-0.1,0.7-1.3,0.7-1.5c0-0.3,0.4-0.5,0.5-0.9c0-0.1,0.1-0.2,0.1-0.3s0.2-0.4,0.4-0.5
		s0.3-0.2,0.3-0.3v-0.6l0.2-0.3c0.1-0.2,0.5-1,0.5-1l0.4-0.6c0.1-0.2,0.2-0.6,0.3-1.1c0-0.2,0.2-0.6,0.4-0.9
		c0.2-0.3,0.3-0.6,0.4-0.9c0.2-0.5,0.2-0.6,0.2-0.6s0.1-0.1,0.4-0.5c0-0.1,0.1-0.4,0.2-0.6c0-0.1,0.1-0.2,0.1-0.3
		c0.1-0.3,0.4-0.9,0.5-1s0.4-0.6,0.4-0.6l0.4-1.4l0.5-0.9c0.1-0.1,0.1-0.2,0.1-0.2c0-0.2,0.2-0.7,0.3-1c0.1-0.2,0.3-0.8,0.3-0.8
		l0.6-1.8c0-0.2,0.2-0.4,0.3-0.6s0.1-0.3,0.1-0.4s0.2-0.5,0.3-0.6c0-0.2,0.2-0.5,0.2-0.6l0.3-0.5c0.1-0.1,0.1-0.2,0.1-0.4
		c0-0.2,0.1-0.6,0.2-0.9c0-0.1,0-0.2,0.1-0.3c0.1-0.1,0.3-0.3,0.3-0.5l0.1-0.5c0.1-0.1,0.1-0.2,0.1-0.2c0-0.3,0.3-0.7,0.3-0.6
		c0,0,0.6-1.4,0.6-1.6c0-0.1,0.1-0.3,0.2-0.6c0.1-0.3,0.3-0.5,0.3-0.4c0,0,0.3-0.9,0.4-1.2c0.1-0.3,0.6-1.6,0.6-1.6l0.7-1.8
		c0.1-0.4,0.6-1.6,0.7-1.7c-0.2,0.2,0.7-1.1,0.7-1.1c0-0.2,0.2-0.6,0.2-0.8l0.4-0.6l0.5-1.2l0.9-0.8c0.1-0.1,0.2-0.2,0.2-0.3
		c0-0.2,0-0.4,0.1-0.6c0.3-0.5,1-1,1.2-1s0.3,0,1,0c0.2,0,0.5,0,0.5,0.1c0.2,0.1,0.6,0.8,0.6,0.8l0.5,1.6c0,0.2,0,0.9-0.1,1.3
		c0,0.2-0.1,0.6-0.1,0.6c0,0.3-0.1,1.5-0.3,2.2c-0.2,0.7-0.2,1.6-0.2,1.6l-0.1,1.1c0,0.2,0,0.6-0.1,0.9s-0.3,2.9-0.3,2.9l-0.2,3
		c-0.1,0.1-0.1,0.5-0.1,0.8c0,0.4,0,0.9,0,0.9l-0.2,4c0,0.2-0.1,1.1-0.2,1.7c0,0.2-0.1,0.6-0.1,0.6s0,0.4-0.1,0.7
		c-0.1,0.5-0.2,1.1-0.2,1.2c0,0.1,0.1,0.2,0.1,0.4c0,0.1-0.1,0.4-0.2,0.6c-0.1,0.2-0.1,0.4-0.1,0.6l-0.4,8.2c0,0.2,0,0.3,0.1,0.5
		s0.2,0.7,0.2,0.8c-0.1,0.1-0.4,0.5-0.4,0.6v0.3c0,0.4-0.1,1-0.1,1.3c0,0.4-0.1,1.4,0,1.8c0,0.2,0,0.7,0,1.3l0.1,1.3
		c0.1,0.1,0,1.7,0,2c0,0.2,0.1,0.3,0.1,0.5v0.3c0,0.1,0,0.3,0.1,0.5c0.1,0.3,0.1,0.7,0.1,1.1v0.4c0,0.5,0,1.1,0,1.6v0.6
		c0,0.2,0.1,0.4,0,0.7v0.3c0,0.2,0,0.3,0.1,0.4c0.1,0.5,0.1,0.6,0.1,0.7v1c0,0.2,0,0.7,0,0.7v0.5c0,0,0,0.2,0.1,0.3l0.2,0.6
		c0.1,0.3,0.2,1.5,0.2,1.8c0,0.1,0.1,0.2,0.1,0.3s0.1,0.2,0.1,0.3c0.1,0.5,0.1,1.5,0.1,1.7s0,0.3,0.1,0.6s0.1,0.7,0.1,1.3
		c0.1,0.2,0.3,0.4,0.3,0.7v0.3c0,0.1,0,0.2,0.1,0.2c0.1,0.2,0.2,0.7,0.3,1.2c0,0.2,0.1,0.2,0.1,0.3c0.1,0.6,0.5,1.2,1,1.8l0.1,0.3
		c0.3,0.5,0.9,0.9,1,0.9s1.3-0.1,1.3-0.2c0,0,0.1-0.2,0.3-0.3c0.2-0.2,0.4-0.2,0.5-0.4s0.6-1,0.7-1.1s0.4-0.8,0.5-1
		c0-0.1,0.4-0.5,0.7-0.5c0.1,0.1,0.1,0.2,0.1,0.3v0.3c0,0.1,0,0.2-0.1,0.3c-0.1,0.2-0.4,0.6-0.4,0.6c0.1-0.1-0.3,0.5-0.5,0.7
		c-0.2,0.3-0.6,0.8-0.7,0.9c-0.2,0.2-0.5,0.9-0.9,0.8c-0.3,0-0.6,0.1-0.8,0c-0.2,0.1-0.7,0-0.9,0h-0.5c-0.6,0-0.9-0.1-1.1-0.4
		c-0.1-0.1-0.2-0.2-0.2-0.2c-0.3,0-0.9-0.6-0.9-0.6l-1.5-1.3c-0.1-0.1-0.8-1.2-1-1.8l-0.3-0.4c-0.2-0.1-0.3-0.9-0.3-0.9l-0.8-2.1
		c-0.1-0.5-0.6-3-0.6-3.3c0-0.2-0.3-2.2-0.4-2.5c-0.1-0.2-0.3-2.9-0.3-3.3c0-0.4,0.1-2.3,0-2.8c-0.1-0.2,0-0.7,0-1.3l0.1-1.3
		c0-0.3,0-1.5-0.1-2c-0.1-0.2-0.1-1.1-0.1-1.5c-0.1-0.5,0-1.4,0-1.6c-0.1-0.2,0-0.7,0-0.9c0-0.3,0-0.7,0-0.9V139
		c-0.2,0.2-0.7,0.4-2.6,0.9c-0.1,0-0.2,0.1-0.6,0.1c0,0.1-0.7,0.5-0.8,0.5S290,141,290,141l-0.7,0.3c-0.2,0.1-0.5,0.1-0.7,0.1
		c-0.1,0-0.2,0.1-0.4,0.1c-0.1,0-0.3,0.1-0.4,0.1s-0.2-0.1-0.2-0.1c-0.1,0-0.8,0.4-0.9,0.5s-0.5,0.1-0.8,0c-0.1,0-0.2,0.1-0.4,0.5
		c-0.3,0.1-1.6,0.2-1.8,0.2c-0.2,0-0.5-0.1-0.6-0.2c0,0-0.2,0-0.3,0.1c-0.2,0.1-0.3,0.1-0.5,0.1l-0.6,1c-0.3,0.6-0.7,1.2-0.7,1.2
		c-0.1,0.2-0.4,0.6-0.5,0.9c-0.1,0.2-0.2,0.4-0.2,0.6c0,0.1,0,0.2-0.1,0.3c-0.1,0-0.2,0.1-0.3,0.1c-0.3,0.3-0.4,0.7-0.8,1.1
		c-0.2,0.3-0.6,0.6-0.6,0.5l-0.5,0.8c-0.1,0.1-0.1,0.2-0.1,0.2c0,0.2-1,1.3-1,1.3l-1.4,1.5c-0.1,0.3-0.4,0.5-0.7,0.7
		c-0.1,0.1-0.5,0.3-0.5,0.3c-0.3,0.2-1,0.9-1.4,1.1l-0.3,0.3c-0.3,0.2-0.6,0.5-0.8,0.4c-0.2,0-0.5,0.1-0.8,0.1
		c-0.2,0.1-0.6,0.1-0.7,0.1c-0.2,0-0.6,0.1-0.8,0.1l-0.7,0.1l-1.2-0.1l-0.7-0.4c-0.2-0.1-0.6-0.2-0.9-0.2c-0.2,0-0.4,0.1-0.4,0.1
		s-0.2,0.1-0.3,0.1c-0.2,0-0.8-0.2-1-0.4c-0.3-0.3-1.4-0.9-1.7-1l-1.4-1.1l-1.1-1.8l-0.8-0.5l-1.2-2c-0.1-0.3-0.4-0.7-0.4-0.9
		l-0.6-2.2c-0.2-0.6-0.6-1.5-0.5-1.4c-0.1-0.5-0.1-2.4-0.1-2.8c0-0.3,0-0.9,0-1.4c0-0.3,0-0.7,0-0.8c0-0.3,0.3-2.3,0.3-2.3l0.4-2.3
		c0-0.2,0.1-0.5,0.1-0.7s0-0.5,0.1-0.6c0-0.2,0.1-0.3,0.2-0.5l0.2-0.3c0-0.2,0.1-0.4,0.4-0.7l0.3-0.5c0.1-0.2,0.4-0.5,0.3-0.5
		l1.2-2.1l1.5-2.1l1.1-1.1l0.6-0.5c0.3-0.3,1.3-0.9,1.6-1.1c0.2-0.1,1.7-0.6,2.1-0.7c0.3-0.1,1.9-0.2,2.2-0.2c0.3,0,2.4,0.4,2.7,0.5
		c0.2,0.1,0.6,0.4,0.5,0.4c0.2,0.1,0.5,0.3,0.4,0.3c0.2,0,1,0.5,1,0.6l0.3,0.2l1.8,1.9c0.3,0.3,0.6,0.8,0.8,1
		c0.1,0.1,0.4,0.8,0.5,1.3c0.1,0.2,0.1,0.6,0.2,0.7c0.1,0.3,0.2,0.7,0.2,0.7l0.3,1.6c0,0.2,0.1,0.5,0,0.8s-0.1,0.6-0.1,0.8v0.3
		c0,0.2-0.1,0.6-0.1,1.1s0,1-0.1,1.1c0,0.1-0.1,0.4-0.2,0.8c-0.2,0.5-0.1,1.1-0.4,1.4l-0.7,1.7c-0.2,0.2-0.6,1.3-0.9,1.7
		c-0.3,0.5-1,1.3-1.4,1.6l-0.8,0.4c-0.3,0.1-0.8,0.5-0.8,0.4c-0.2,0.1-0.7,0-0.9,0l-1.5-0.1c-0.2,0-1.7-0.8-1.8-1
		c-0.2-0.2-0.7-1.5-0.8-1.7c-0.1-0.2-0.3-1.3-0.4-1.8v-0.8c0-0.8,0.1-2,0.2-2.5c0.2-0.4,0.5-0.9,0.8-1s1.1-0.1,1.3-0.1
		c0.1,0,0.2,0.2,0.2,0.5c0,0.1-0.1,0.2-0.1,0.6c0,0.2-0.1,0.2-0.2,0.4c0,0.2-0.2,0.5-0.2,0.6c-0.1,0.2-0.1,0.3-0.1,0.5
		s0.1,0.4,0.1,0.6c0.1,0.2,0.1,0.6,0,0.8c0,0.6,0.2,2,0.2,2l0.6,1.7c0.2,0.4,0.8,0.8,1.3,1c0.4,0,0.9-0.1,1.1-0.2
		c0.3-0.1,1.2-0.9,1.6-1.3c0.5-0.4,0.8-0.9,1-1.3l0.9-1.6c0-0.1,0.1-0.2,0.1-0.3c0-0.2,0.1-0.5,0.2-0.7c0.2-0.4,0.4-0.8,0.4-1v-0.3
		c0-0.2,0.1-0.5,0.1-0.9c0-0.1,0.1-0.2,0.1-0.3c0.1-0.2,0.1-0.4,0.1-0.6l0.1-1.1c0-0.2,0.1-0.4,0.1-0.6c0-0.3-0.1-1.3-0.2-1.7
		c0-0.1,0.1-0.2,0.1-0.6c0-0.2-0.1-0.3-0.1-0.3l-0.3-1c0-0.1,0.1-0.2,0.1-0.4l-0.4-0.4c-0.1-0.1-0.2-0.4-0.2-0.9
		c0-0.1-0.2-0.2-0.3-0.2l-0.8-1.4c-0.1-0.1-0.2-0.1-0.2-0.1l-0.6-0.8l-0.9-0.8c-0.3-0.2-0.6-0.2-0.6-0.2l-0.3-0.5
		c-0.1,0-0.4,0-0.4-0.2c0,0-0.1,0-0.2-0.2c-0.1-0.1-0.8-0.1-0.8-0.1l-3.2-0.2l-1.7,0.8c0,0,0,0.1-0.2,0.3l-0.3,0.4l-0.6,0.5
		c-0.4,0.4-0.9,1.3-0.9,1.1c0,0-0.4,0.7-0.5,0.9c-0.3,0.4-1,2-1,2.1v0.5c-0.1,0.3-0.2,0.8-0.2,0.8v0.8c0,0.2-0.1,0.3-0.2,0.5
		s-0.2,0.5-0.2,0.7v0.5c0,0.2-0.1,0.4-0.1,0.7l-0.1,1.1c0,0.2,0.1,0.6,0,1s-0.2,1.4-0.3,1.9c0,0.2-0.1,0.4-0.1,0.6
		c0,0.2-0.1,0.6-0.1,1.1v0.3c0,0.6,0.1,1.5,0.2,1.8c0.1,0.2,0.1,0.3,0.1,0.4c0,0.2,0,0.7,0.2,1.3c0.1,0.4,0.2,1.5,0.2,1.3
		c0,0.6,0.5,1.7,0.6,1.9l0.8,1.8c0.1,0.3,1.3,2.2,1.5,2.3c0.1,0.1,0.5,0.7,0.9,1.2c0.4,0.6,1,1.2,1.2,1.3c0.2,0.2,1.1,0.5,1.6,0.6
		c0.2,0.1,0.6,0.1,1,0.1s0.8,0,1,0c0.2-0.1,1.3-0.2,1.3-0.2c0.4-0.2,1.1-0.6,1.5-0.7c0.2-0.1,1-0.9,1-0.9l0.9-0.5l0.7-0.6
		c0-0.1,0-0.2,0.1-0.3c0.2-0.3,1-1.2,1.1-1.2c0,0,0.1-0.2,0.3-0.2c0,0,0.2-0.2,0.3-0.3c0.2-0.1,0.3-0.3,0.4-0.6
		c0-0.3,0.7-1.1,0.7-1.1l1-1.2c0.8-1.5,0.9-1.6,0.9-1.7c0,0.1,0.4-0.5,0.5-1c0.1-0.2,0.4-0.6,0.5-1
		C279.4,143.3,278.4,142.9,278.4,142.9z M282.2,142.5c0.2,0,0.5,0.1,0.7,0.1c0.1,0,0.2-0.1,0.3-0.1c0.2-0.1,0.4-0.1,0.6-0.1
		s0.6-0.1,0.6-0.2c0.1-0.1,0.7-0.2,1-0.3c0.1,0,0.2-0.1,0.3-0.1s0.2-0.1,0.4-0.1l0.8-0.4c0.2-0.1,0.7-0.3,0.7-0.3
		c0.1,0,0.5,0.1,0.7,0.1c0.3-0.1,0.8-0.3,0.8-0.3c0-0.1,0.2-0.2,0.2-0.2c0-0.1,0.6-0.1,0.6-0.1l0.3-0.2c0.1,0,0.2-0.1,0.4-0.1
		c0.1-0.1,0.3-0.1,0.3-0.1c0-0.1,0.2-0.1,0.5-0.1c0.1-0.1,0.3-0.1,0.3-0.1c0.1,0,0.2-0.1,0.6-0.1c0,0,0.2-0.3,0.3-0.4
		c0,0,0.2,0,0.3-0.1l0.3-0.2c0.1-0.1,0.7-0.2,0.9-0.3l0.2-4.3c0-0.2,0.1-0.9,0.2-1.5l0.1-2.1c0-0.5,0.1-1,0.2-1.5
		c0-0.7,0.4-2.2,0.5-2.7v-0.8c0-0.2,0-0.6,0.2-0.9v-0.9c0-0.2,0-0.6,0.1-0.9c0.1-0.7,0.2-2.6,0.2-2.8s0-1.8,0-1.8l0.1-1.7
		c0-0.3,0.2-2.2,0.3-2.7v-0.7c0-0.3,0-0.7,0.2-1c0.1-0.3,0.1-0.9,0.1-1.3v-0.9c0-0.5,0.1-1.4,0.3-1.8l0.1-2.5c0-0.4,0-0.6-0.1-0.6
		s-0.3,0.3-0.4,0.6l-0.5,1.7c-0.2,0.5-0.6,1.3-0.8,1.5c-0.1,0.1-0.2,0.4-0.2,0.6s-0.1,0.2-0.1,0.3c-0.1,0.2-0.6,1-0.6,1l-0.4,1.2
		c-0.1,0.4-0.3,1-0.5,1.2l-0.3,0.7c0,0.1-0.1,0.2-0.1,0.2c0,0.2-0.1,0.2-0.2,0.2c-0.1,0.2-0.3,0.5-0.3,0.4v0.4
		c0,0.3-0.6,1.1-0.6,1.1c0,0.2-0.1,0.6-0.2,0.8c-0.2,0.3-0.7,1.8-0.7,1.8l-0.3,1c-0.1,0.2-0.3,0.7-0.3,0.8c0,0.1-0.5,1-0.5,1
		l-0.9,2.7c0,0.1,0,0.2-0.1,0.3c-0.1,0.4-0.4,1-0.4,1.1c0,0.2-0.3,0.8-0.3,0.8l-0.6,1.5c-0.1,0.2-1.1,2.4-1.1,2.4l-0.4,0.7
		c-0.1,0.2-0.1,0.2-0.1,0.6c0,0.1-0.1,0.2-0.2,0.4l-0.4,0.6c0,0-0.2,0.4-0.3,0.6c-0.2,0.3-0.4,0.7-0.4,0.9c0,0.3-0.1,0.5-0.4,0.9
		s-0.3,0.7-0.3,0.8c0,0-0.1,0.2-0.2,0.4l-1,2.1v0.3c-0.2,0.4-0.8,1.2-0.8,1.2l-0.3,0.6c-0.1,0.2-0.6,1.2-0.8,1.7L282.2,142.5z"/>
	<path d="M310.1,150.8c0.1-0.2,1.3-4.5,2.2-6.2l0.8-1.2c0.5-0.8,0.8-1.7,1.2-2.5c0.4-0.3,0.6-0.8,0.7-1.3c0-0.1-0.5-0.2-0.5-0.2
		l-1.1-0.1c-0.9-0.2-1.6-0.3-2.2-0.4c-0.3,0-0.6-0.1-0.8,0.1c-0.1,0.1-0.4,0.3-0.4,0.4c0,0.2-0.3,1-0.3,1.2s-0.7,1.1-0.8,1.2
		l-0.1,0.9c-0.3,0.8-0.6,1.1-0.8,1.6c-0.3,0.7-0.4,1.7-0.8,2.4c-0.5,0.9-0.9,1.9-1.5,2.6c-0.5-0.1-0.9-0.3-0.9-0.8
		c0.6-1.1,1.4-2,1.8-3.1l0.9-2.3c0-0.1,0.2-0.4,0.2-0.5s0.4-0.4,0.4-0.4c0-0.1,0.3-0.9,0.4-1c0-0.1,0.2-0.8,0.2-0.9
		c0-0.1,0.4-0.4,0.4-0.4l0.1-0.6c0-0.2,0.2-0.4,0.3-0.9c-0.2-0.8-1.3-1.8-1.9-2.6c-1-1.3-1.3-2.7-1.2-3.8c0.3-3,3-4.2,4.6-4
		c0.9,0.1,1.4,0.6,1.6,1.4l-0.1,0.6c0,0.3,0.1,0.7,0,1.3c0,0.2-0.3,1.4-0.3,1.6c0,0.3-0.7,2.6-0.7,2.9c0,0.1-0.2,0.5-0.2,0.6
		c0,0,0.6,0.8,0.7,1c0.7,0.6,2.1,0.6,3.5,1c1.2,0.4,4.2,1.4,4,3.2c-0.1,1.1-0.2,1.5-0.6,2.4c-0.5,1.2-0.9,2.3-1.5,3.5
		c-0.2,0.5-0.5,1.2-0.7,1.7l-0.1,1c0,0.1-0.4,1-0.4,1.1c-0.1,1-0.5,2-0.6,3.1s-0.2,1.1-0.2,1.4c0,0.2-0.1,1.2-0.1,1.9
		c-0.1,0.7-0.1,2-0.1,2.7s0.2,2.5,0.2,2.7s0.1,1.6,0.3,1.9c0.1,0.3,0.2,0.6,0.4,1.2l0.4,1.2c0,0,0.6,0.7,0.8,1.1
		c0.2,0.4,0.7,1.1,1,1.3c0.3,0.3,1,0.8,1.4,1.1c0.3,0.1,0.8,0.3,1.4,0.3c0.4,0,0.8,0.1,1.1,0c0.9-0.1,1.2-0.1,1.8-0.4
		s1.3-0.8,1.8-1.1c0.4-0.4,0.7-0.9,1-1.3c0.4-0.4,0.6-1.6,0.7-1.8s0.6-0.7,0.9-0.6c0.2,0,0.4,0.1,0.4,0.6c0,0.2,0,0.3-0.1,0.5
		s-0.4,1.1-0.9,1.7c-0.5,0.6-1.3,1.8-1.9,2c-0.5,0.2-2.3,1.7-2.8,1.6c-0.4,0-2.4-0.1-3.2-0.2c-0.4-0.1-1.5-0.4-2-0.7s-1.2-0.6-1.8-1
		c-0.5-0.4-1.1-0.5-1.3-0.8c-0.2-0.3-1.2-0.9-1.3-1.2l-0.9-1.3c0,0-0.2-0.2-0.3-0.3l-0.7-0.7c0,0-0.1-0.7-0.1-0.8s-0.4-0.4-0.4-0.4
		c0-0.4,0.1-0.5,0.1-0.5c-0.1-0.1-0.5-0.6-0.6-0.8s0-0.7-0.1-0.7l-0.3-0.9V161c0,0-0.2-0.1-0.2-0.3l0.1-0.8c0,0-0.3-1.1-0.2-2.1
		c0.1-0.9,0-2.6,0.2-4.1l0.2-1.7L310.1,150.8z M310.4,134.7c0,0.2,0.1,0.7,0.1,0.7c0.1-0.2,0.1-0.4,0.2-0.8l0.2-2
		c0-0.1,0.3-0.8,0.3-0.9c0-0.3,0.1-1.5,0.1-1.8c0-0.2,0-0.5,0-0.5s-0.2,0.1-0.3,0.5c-0.2,0.6-0.4,1-0.4,1.7s-0.1,1.4-0.1,2
		L310.4,134.7z M318.8,155.3c0,0,0.4-0.9,0.4-1.1c0.4-0.4,1.5-2.2,1.8-3.1c0-0.1,0.3-0.3,0.7-0.9c0.6-1.1,1.4-2,1.8-3.1l0.9-2.3
		c0-0.1,0.2-0.4,0.2-0.5s0.4-0.4,0.4-0.4c0-0.1,0.3-0.9,0.4-1c0-0.1,0.2-0.8,0.2-0.9c0-0.1,0.4-0.4,0.4-0.4l0.1-0.5
		c0-0.2,0.2-0.5,0.4-1c-0.2-0.8-1.3-1.8-1.9-2.6c-1-1.3-1.3-2.7-1.2-3.8c0.3-3,3-4.2,4.6-4c0.7,0.1,1.4,0.3,1.6,1.4l-0.1,0.6
		c0,0.3,0.1,0.7,0,1.3c0,0.2-0.3,1.1-0.3,1.3c0,0.3-0.7,2.8-0.8,3.1c0,0.1-0.2,0.6-0.3,0.8c0,0,0.7,1,0.8,1.2c0.7,0.6,2,0.5,3.2,0.9
		c1.7,0.5,4.2,1.5,4,3.2l-0.1,0.9c-0.1,0.5-0.1,1-0.4,1.5c-0.5,1.2-0.9,2.3-1.5,3.5c-0.2,0.5-0.5,1.2-0.7,1.7l-0.1,1
		c0,0.1-0.4,1-0.4,1.1c-0.1,1-0.6,2-0.8,3.1c-0.1,0.9-0.1,2.8,1.5,3c1,0.1,1.9,0.1,2.9-0.4c1-0.6,1.5-1,2.9-2.4
		c0.4-0.4,1.5-2.2,1.8-3.1c0.1-0.2,0.5-0.5,2-2.9c0.1-0.2,0.5-0.3,0.8-0.3c0.2,0,0.4,0.4,0.3,0.5c-0.7,1.1-1.3,2.5-2.7,4.5
		c-0.3,0.5-0.5,1-1,1.6l-0.2,0.1c-0.2,0.1-0.4,0.4-0.5,0.8l-1.1,1l-0.4,0.1c-0.5,0.4-0.7,0.8-1.3,1.2c-0.9,0.4-2.3,0.9-3.9,0.7
		c-1-0.1-2.3-0.3-3.6-1.5l-1.3-1.9l-0.2-0.7c-0.6-1.1-0.6-2.5-0.5-4c0.3-2.3,0.8-4.6,1.7-6.3l0.8-1.2c0.5-0.8,0.8-1.7,1.3-2.5
		c0.4-0.3,0.7-1.1,0.7-1.2c-0.1-0.3-0.5-0.3-0.5-0.3l-1.2-0.1c-0.9-0.2-1.6-0.3-2.2-0.4c-0.3,0-0.6-0.1-0.8,0.1
		c-0.1,0.1-0.4,0.3-0.4,0.4c0,0.2-0.3,1-0.3,1.2s-0.7,1.1-0.8,1.2l-0.1,0.9c-0.3,0.8-0.6,1.1-0.8,1.6c-0.3,0.7-0.4,1.7-0.9,2.5
		l-0.7,1.3c-0.5,0.9-1.1,1.9-2,3.2c-0.3,0.5-0.5,1.1-1,1.7l-0.2,0.1c-0.2,0.1-0.3,0.6-0.8,0.9C319.2,155.6,318.8,155.3,318.8,155.3z
		 M327.5,136.5c0,0.2,0.1,0.6,0.1,0.6c0.1-0.2,0.1-0.3,0.2-0.7l0.2-2c0-0.1,0.3-0.8,0.3-0.9c0-0.3,0.1-1.3,0.1-1.6
		c0-0.2,0.1-0.7,0-0.7c-0.2,0-0.2,0.3-0.3,0.6c-0.2,0.6-0.4,1-0.4,1.7s-0.1,1.4-0.1,2L327.5,136.5z"/>
	<path d="M357.8,153.4c0.1,0.5,0,1.1-0.1,1.7c-0.1,0.8-0.4,1.7-0.6,2.6c1.2-0.1,2.1-1,2.9-1.9c0.5-0.8,1.9-2.2,2.3-3.2
		c0.3,0.1,0.3,0.5,0.4,0.6c-0.6,1.1-1.7,3.2-2.1,3.7c-0.6,0.6-1,0.7-1.2,1c-0.8,0.6-1.7,1.1-2.7,1.2c-0.4,1.2-1.1,2.6-1.7,3.6
		c-0.2,0.4-0.3,0.6-0.5,0.7l-0.4,0.3c-0.1,0.1-0.5,0.5-0.5,0.6c-1.4,1.3-3.2,1.6-5.1,1.3c-0.9-0.1-1.8-0.5-2.4-0.8
		c-2.1-1.2-3.9-3.4-4.5-5.8c-0.1-0.2-0.1-0.6-0.1-0.8s0.1-0.4,0-0.6c0-0.1-0.1-0.2-0.1-0.3c-0.1-0.2-0.1-0.3-0.1-0.4
		c0-0.1,0-0.3,0-0.3c0-0.3,0-0.7,0.2-2.3c0.1-0.6,0.3-1.5,0.6-2.1c0-0.2,0.1-0.3,0.2-0.5c0.1-0.3,0.1-0.5,0.2-0.5
		c0,0,0.1-0.1,0.2-0.4c0.1-0.1,0.2-0.4,0.2-0.5l0.1-0.3c0-0.1,0.1-0.3,0.2-0.5c0-0.1,0.1-0.2,0.1-0.2c0.1-0.1,0.2-0.3,0.2-0.3
		c-0.1-0.1-0.1-0.3-0.1-0.4l0.9-0.3c0-0.2,0.1-0.2,0.1-0.4c0.1-0.4,0.2-0.7,0.6-1.1c0.2-0.1,0.3-0.4,0.6-0.6c0,0,0.7-0.6,1-0.8
		c0.2-0.1,1-0.7,1.4-0.9l0.6-0.4c1.7-0.9,3.1-1,4.8-0.9c0.7,0,1.4,0,2.1,0.1c0.5,0.1,1,0.2,1.2,0.4c0.1,0.2,0.6,0.6,0.6,0.6
		c0.3,0.2,0.6,0.5,0.7,1c0,0-0.2,0.2-0.5,0.2l-0.2-0.3c-0.5-0.4-1.4-0.9-2.5-1.1c-0.8-0.1-1.6,0.2-2.4,0.5c-2.5,1.6-3.9,5-4.7,7.6
		c-0.4,1.1-0.6,1.7-0.8,3.1c-0.4,2.7-0.7,8.1,2.6,8.8c0.6,0.1,1.2,0,1.8-0.2c0,0,0.3,0,0.5-0.2l0.4-0.4c1.6-1.2,2.5-2.9,3.1-4.8
		c-0.2-0.1-0.5-0.2-0.6-0.4c-1.1-1-1.4-3.4-1.2-4.8c0.2-1.4,1.1-3,2.6-2.8C357.2,150.8,357.7,151.9,357.8,153.4z M355.5,157.3
		c0.2-0.7,0.3-1.4,0.4-2.1c0-0.2-0.1-0.3-0.1-0.3l0.1-0.7c0.1-1.1-0.1-2.1-0.3-2.1c-0.2,0-0.5,0.1-0.7,1.4c-0.1,0.6-0.1,2.1,0.2,3.1
		C355.2,156.9,355.4,157.1,355.5,157.3z"/>
	<path d="M359.9,162.4c0.1-0.6,0.1-0.9-0.1-1.3c0,0,0.6-3.1,0.8-4.5c0,0,0.3-0.8,0.4-1.4c0.2-0.8,0.3-1.6,0.2-2.2
		c0,0,0.3-0.4,0.4-0.5l0.3-1.6c0-0.1,0-0.3,0-0.4c0-0.2,0-0.4,0-0.6c0.2-1,0.5-2.2,0.2-2.3c-0.2,0-0.4,0.1-0.6,0.2
		c-0.2-0.1-0.3-0.5-0.3-0.5c1.7-1.3,2.9-1.3,3.8-1.1c1.3,0.3,2.3,0.6,2.3,2.1c0,0.1,0.1,0.2,0.2,0.4c0,0.9-0.1,1.5-0.3,2.3l-0.1,0.5
		c-0.1,0.2-0.2,0.5-0.3,0.8c-0.5,1.5-1,2.7-1.7,4c0,0.1-0.1,0.1-0.1,0.2c-0.5,0.8-0.9,1.6-1.3,2.5c-0.5,1.4-0.9,2.8-1.3,4.2
		c-0.1,0.5-0.3,0.8-0.3,1.1l-0.2,1c-0.1,0.4-0.1,1,0.1,1c0.9,0.2,2.9-2.4,4.1-3.9l0.4-0.5c0-0.1,0.2-0.2,0.2-0.3
		c0.8-1.1,1.7-2.4,2.4-3.6c0.5-0.8,1.2-1.7,1.7-2.8l1-2.3c0.1-0.3,0.1-0.6,0.3-0.8c0.3-0.8,0.7-1.8,0.7-1.8l1.2-3.4
		c0.1-0.3,0.4-1.2,0.6-1.5c0.4-0.9,1.2-2,1.8-2.5c1-0.4,2.3-0.8,2.7-0.7c0.4,0.1,0.9,0.7,1.2,1.4c0.2,0.5,0.2,1.2,0.1,1.8l-0.7,3.3
		c-0.5,1.1-1.1,2-1.7,3l-1.6,3.1c-0.5,1.3-1.1,2.9-1.5,4.2l-0.5,2.3c0,0.2-0.2,0.7-0.2,1.2c-0.1,0.5-0.1,1-0.2,1.1
		c0,0.1-0.1,0.3,0,0.6c0,0.4,0,0.8,0,1c-0.1,1.5,0.2,4.9,1.5,5.2c0.8,0.2,1.8-0.3,2.6-1.1c0.5-0.7,0.8-1.2,0.9-1.3
		c2.7-3.1,4.7-6.6,5.5-10.5c0.2-0.9,0.4-1.8,0.4-2.7c0.1-0.2,0-1.6-0.1-2.3l-0.7-0.4c-0.4-0.2-0.6-0.5-1-0.6c-0.5-0.3-0.7-1-0.7-1.3
		c-0.2-0.3-0.2-0.7-0.1-0.9c0.2-0.9,1-1.3,2.1-1.1c0.7,0.2,1.2,0.8,1.5,1.6c-0.1-0.1,0.1,0.6,0.2,0.8c0.1,0.4,0.1,1,0.3,1.4
		c1.4,0.2,2.6-1.3,2.8-2c0.1-0.6,0-0.7-0.1-0.8s-0.1-0.1-0.1-0.4c0-0.1,0.1-0.1,0.4-0.1c0.2,0.1,0.9,0.6,0.7,1.4
		c-0.1,0.6-0.6,1.4-1.4,1.8l-0.5,0.6c-0.4,0.2-1.1,0.2-1.7,0.3c0,1.5-0.1,3.7-0.6,5.9c-0.1,0.2,0,0.4,0,0.6
		c-0.8,3.5-3.1,6.8-5.3,9.4c0,0.2-0.2,0.4-0.4,0.5l-0.2,0.3c-0.4,0.3-0.5,0.5-0.5,0.5l-2.5,1.5c0,0-0.3,0-0.6,0.1
		c-0.3,0.1-0.7,0.2-0.8,0.2l-0.9-0.3l-0.6-0.5l-0.3-0.1c-0.4-0.2-0.4-0.2-0.4-0.3c0-0.2-0.2-0.4-0.5-0.7c-0.4-0.2-0.7-0.6-0.8-1.5
		L372,168c0-0.1,0-0.2,0-0.3c0,0,0-0.2-0.2-0.4c-0.1-0.2-0.2-0.4-0.1-0.5c-0.6-2.9-0.6-6.2-0.2-9.1l0.1-0.6c0-0.2,0.1-0.7,0.1-1.2
		l-1.5,2.5c-0.5,0.6-0.9,1.3-1.2,1.9c-1.9,2.9-3.6,5.3-6.3,7c-0.1,0-0.3,0-0.3,0c-0.2,0-0.5,0.1-0.9,0
		C359.6,167.4,359.9,164.7,359.9,162.4z M384.3,151.3l0.4,0.3c0-1-0.3-2.2-0.8-2.3c-0.3-0.1-0.5,0.2-0.6,0.5
		c-0.1,0.4,0.2,0.9,0.7,1.1C384.3,151,384.3,151.1,384.3,151.3z"/>
</g>
</svg>
