<?xml version="1.0" encoding="utf-8"?>
<!-- Generator: Adobe Illustrator 23.0.0, SVG Export Plug-In . SVG Version: 6.00 Build 0)  -->
<svg version="1.1" id="Layer_1" xmlns="http://www.w3.org/2000/svg" xmlns:xlink="http://www.w3.org/1999/xlink" x="0px" y="0px"
	 viewBox="0 0 360 360" style="enable-background:new 0 0 360 360;" xml:space="preserve">
<style type="text/css">
	.st0{fill:none;}
	.st1{fill:#8B8FBC;}
	.st2{fill:#A0A2D1;stroke:#FFFFFF;stroke-width:7;stroke-miterlimit:10;}
	.st3{fill:url(#SVGID_2_);stroke:#FFFFFF;stroke-width:7;stroke-miterlimit:10;}
	.st4{enable-background:new    ;}
	.st5{fill:#FFFFFF;}
	.st6{fill:#94507D;}
	.st7{fill:#BB679C;}
	.st8{fill:#CE8EB8;}
</style>
<pattern  y="360" width="57.6" height="57.6" patternUnits="userSpaceOnUse" id="SVGID_1_" viewBox="9.1 -66.7 57.6 57.6" style="overflow:visible;">
	<g>
		<rect x="9.1" y="-66.7" class="st0" width="57.6" height="57.6"/>
		<g>
			<rect x="9.1" y="-66.7" class="st0" width="57.6" height="57.6"/>
			<circle class="st1" cx="52.3" cy="-66.7" r="9.1"/>
			<circle class="st1" cx="23.5" cy="-66.7" r="9.1"/>
			<circle class="st1" cx="66.7" cy="-37.9" r="9.1"/>
			<circle class="st1" cx="37.9" cy="-37.9" r="9.1"/>
			<circle class="st1" cx="9.1" cy="-37.9" r="9.1"/>
			<circle class="st1" cx="52.3" cy="-9.1" r="9.1"/>
			<circle class="st1" cx="23.5" cy="-9.1" r="9.1"/>
		</g>
	</g>
</pattern>
<rect x="35.4" y="35.4" class="st2" width="289.2" height="289.2"/>
<pattern  id="SVGID_2_" xlink:href="#SVGID_1_" patternTransform="matrix(1 0 0 -1 24.0918 -16539.6992)">
</pattern>
<rect x="35.8" y="35.4" class="st3" width="289.2" height="289.2"/>
<g>
	<g class="st4">
		<path class="st5" d="M89.4,171.4c-0.5,0.1-1.1,0.3-1.7,0.3c-0.9,0-1.6-0.5-1.6-0.9c0-0.4,0.3-0.7,0.6-0.7c0.2,0,0.4,0.2,0.6,0.3
			c0.2,0.2,0.3,0.4,0.9,0.4c1.8-0.6,2.9-1.9,4.1-3.7c0-0.2,0.6-0.4,0.6-0.4c0-0.1,0.2-0.3,0.3-0.5c0-0.2,0.1-0.4,0.4-0.8
			c0,0,0.4-0.4,0.6-0.7c0.4-0.4,0.9-0.8,1.2-1.4l0.6-1.2c0.2-0.5,0.5-0.9,0.8-1.3c0,0,0.4-1.2,0.6-1.7l0.4-1.4l0.5-0.4
			c0.2-0.2,0.3-0.5,0.4-0.8l0.9-3.3l0.3-0.5c0.2-0.1,0.4-0.5,0.4-0.7l0.3-0.9c0.2-0.7,0.4-1.4,0.4-2c0.7-1.6,1.2-3.6,1.2-5.3
			l-0.2-0.8l-1.1,0.9c-1.7,1.4-3,2.4-3.8,3.2c0,0.1-0.5,0.7-1,1c-0.2,0.3-0.6,0.6-0.7,0.8c-1.1,1-2.2,2.5-3.3,4.1l-0.8,1.6l-0.5,0.7
			c-0.5,0.6-1,1.3-1.2,1.9l-1.6,3.9l-0.5,1.5c-0.1,0.7-0.2,0.9-0.3,1l-0.3,0.6l-0.1,0.8c0,0.1-0.1,0.3-0.1,0.4
			c-0.1,0.6-0.2,0.9-0.2,1.6c0,0.6,0.1,1,0.1,1.3v0.5c0,0.4-0.3,1.1-0.7,1.1c-0.2,0-0.4-0.3-0.4-0.3c-0.1-0.6-0.2-1.3-0.2-2.1
			c0-0.5,0.1-1.3,0.2-1.8c0-0.3,0.1-0.6,0.1-1l0.7-2c0.3-0.6,0.8-1.8,0.8-2c0.5-2.3,1-3.4,2.2-5.2l1.6-2.8c0.4-0.4,0.6-0.9,0.9-1.4
			c0.1-0.3,0.4-0.7,1-1.3c0.4-0.4,1-1.1,1.6-2c0.8-1,1.6-2.1,2.7-2.7l2.3-2.7l1.4-1.2c0.4-0.3,0.8-0.6,1.1-1.3
			c0.3-1.6,0.4-3.5,0.4-5.1c0-0.4-0.1-0.9-0.1-1.4v-1.4c0-1-0.1-1.9-0.1-2.9c0-1.3,0-2.8-0.1-4.1c-0.1-1.6-0.3-3-0.5-4.5
			c-0.1-0.8-0.3-1.8-0.3-2.6c0-0.5-0.2-1.4-0.4-2.1c-0.1-0.8-0.5-2-0.6-3.2l-1.1,2.3l-0.6,2l-1.2,2.3c-1,2.2-2,4.2-3.3,6.1
			c-0.6,0.6-0.6,0.9-0.8,1.4l-0.4,0.8c0,0-0.5,0.4-1.2,1.1l-0.5,0.5c-0.7,0.6-1.6,1.6-3.1,2.9l-0.7,0.5c-0.4,0.3-1,0.5-2.5,0.5
			c0,0-2.6-0.4-2.7-0.4c-0.8-0.3-2.4-1.3-3.3-2.2c-0.7-0.7-1.9-2.5-1.9-2.4c0,0-0.3-0.6-0.3-0.8c-0.1-0.1-0.2-0.1-0.2-0.3l-0.3-0.5
			c-0.6-1.1-1.1-2.9-1.4-4.3l-0.5-2c-0.8-2.9-0.9-5-1-8c0-0.2,0-1.2-0.1-2.1c0-0.8-0.1-1.6-0.1-1.7v-1c0-3.5,0.4-6.8,0.8-10.3
			c0.1-0.1,0.1-0.3,0.1-0.5c0-0.1,0.1-0.3,0.2-0.4c0.1-1.4,0.5-4,0.8-5.4c0.3-2.2,0.6-3.4,1.3-5.1c0.1-0.2,0.1-0.3,0.1-0.7l0.2-0.7
			l0.4-0.6c0.6-2.2,2-5.2,2.9-7l0.8-1.5l1.4-1.8L83,73c0.2-0.2,0.5-0.6,0.5-1.2c0.5-1.1,1.4-2.3,2.5-3.5c0.4-0.4,0.6-0.9,1-1.4
			c0.3-0.4,0.7-1.1,1.1-1.5c1.6-1.8,3.6-3.2,5.4-4.1l1.7-1.5h0.4c0.1-0.1,0.8-0.5,0.8-0.5c1.7-0.8,4.2-1,6.1-1
			c0.2,0.1,0.3,0.1,0.4,0.1c0.2,0,0.6-0.1,1-0.1c0.3,0.1,0.7,0.2,1.1,0.2c0.7,0.1,1.3,0.2,1.6,0.4l0.4,0.2c0.5,0.4,0.9,0.6,1.4,0.8
			l0.8,0.4c0.6,0.3,1.2,1.2,1.7,1.8c0.3,0.6,1,1,1.4,1.6c0.1,0.2,0.5,1.8,0.5,1.9c-0.1,0.1-0.2,0.2-0.2,0.4s0.1,0.3,0.3,0.4l0.5,0.6
			v0.9c0.5,1.2,0.7,2.4,0.8,3.4v1.5c0.1,0.9,0.2,2.4,0.2,3.5V77c0,0.3-0.1,0.7-0.1,1c-0.1,0.6-0.2,1.3-0.2,2v0.5
			c0,0.1,0.1,0.3,0.3,0.6c0,0.4-0.2,0.4-0.3,0.8c-0.1,0.4-0.2,0.8-0.2,1.2c0,0.2-0.1,0.5-0.1,0.7S113.4,85,112,85
			c-0.5,0-1.1-0.1-1.1-0.8c0-0.8,0.5-2.3,0.6-2.6c0-0.2,0.1-0.4,0.2-0.8c0.1-0.1,0.4-0.4,0.4-0.6c0.2-0.2,0.3-1.2,0.3-1.8
			c0-0.3,0.1-0.7,0.1-0.9V74l-0.1-0.4v-2.3c0-0.1-0.1-0.3-0.1-0.4c0-0.8-0.3-1.5-0.6-2.4l-0.3-1.4c-0.1-0.1-0.1-0.4-0.1-0.5
			c-0.3-0.9-1-3.4-2-3.8c-0.2-0.2-0.6-0.3-0.7-0.9c-0.3-0.3-0.6-0.4-0.8-0.6l-1-0.8c-1-0.7-2.1-0.8-3.3-0.9h-0.7
			c-0.1,0-0.4-0.1-0.8-0.1c-0.1,0-0.2,0-0.3-0.1c-0.1,0-0.3-0.1-0.3-0.1s-0.2,0.1-0.3,0.2l-0.3,0.2c-0.1,0-1.2,0.2-1.5,0.3
			c-0.2,0-0.4,0.1-0.5,0.1s-0.6,0.4-0.6,0.3l-0.5,0.6c-0.3,0.3-0.6,0.6-0.8,0.7c-0.2,0.3-0.7,0.7-0.9,1c-0.3,0.1-0.8,0.7-1.1,1.2
			l-1.7,1.9c0,0-2.2,3.5-2.3,3.8L90,72l-0.4,0.4c0,0.2-0.1,0.4-0.2,0.6s-0.1,0.5-0.1,0.5c-0.2,0.9-0.8,1.7-1.3,2.5l-0.8,1.4
			c-0.2,0.6-0.5,1.1-0.6,1.9l-0.7,2.1c0,0-0.5,0.3-0.5,0.2v0.6c0,0.8-0.4,3-1,3.7v0.8l-0.2,0.3l-0.6,3.5c0,0.1-0.1,0.4-0.1,0.6
			c-0.1,0.2-0.1,0.4-0.1,0.4c-0.2,0.5-0.3,1.2-0.3,1.7c0,0.4-0.1,1.1-0.2,1.4c0,0.1-0.1,0.3-0.2,0.5c-0.1,0.2-0.1,0.3-0.1,0.3v0.6
			l-0.4,1.4c-0.3,1-0.7,2-0.7,2.9v1.1c-0.2,0.9-0.2,2.6-0.2,3.5c-0.1,0-0.1,0.2-0.1,0.3c0,0.2-0.1,0.3-0.1,0.3v2.2
			c-0.1,0.1-0.1,0.2-0.1,0.4c0,0.4,0,0.8,0.1,1.2c0,0.2,0.1,0.4,0.1,0.5c0,0.3-0.1,1.1-0.2,1.4c-0.1,0.6-0.3,1.3-0.3,2.2
			c0,0.2,0.1,0.4,0.1,0.5c0.2,0.3,0.2,0.5,0.2,0.8c0,0.2-0.1,0.6-0.1,0.8c-0.1,0.3-0.1,0.6-0.1,1.1c0.2,0.7,0.4,1.4,0.4,2.2v1.6
			c0,0.5,0,0.9,0.1,1.4c0,0.1,0.1,0.3,0.1,0.4c0,0.3,0.1,0.7,0.1,1.1c0,0.5,0,1.2,0.1,1.6l0.3,0.3c0,0.2,0.1,0.6,0.3,1.1v0.7
			c0,0,0.2,0.3,0.3,0.5l0.3,0.6c0.2,1.6,0.9,2.8,1.9,4c0.5,0.5,1,0.8,1.4,0.8c0.3,0,0.6-0.1,0.9-0.4l1.6-1.5c0.3-0.1,2.6-2.5,3-3
			c0-0.1,0.1-0.3,0.1-0.4c0.2-0.5,0.5-0.9,1.3-1.4c0.2-0.2,0.4-0.4,0.4-0.5c0,0,0-0.3,0.1-0.5c0-0.1,0.1-0.3,0.1-0.4
			c0.1-0.2,0.2-0.4,0.5-0.7l0.9-1.7c0-0.1,0.1-0.4,0.1-0.4l0.4-0.4v-0.5c0.1-0.5,1.2-2.4,1.7-3c0.2-0.9,0.4-2.4,0.9-3.4l0.4-0.4
			c0.1-0.1,0.2-0.5,0.3-0.4v-0.8c0-0.6,0.3-0.8,0.5-1.2c0.1-0.1,0.2-0.5,0.3-0.4l0.2-1.4v-3c0-1.6,2.6-2.2,4.2-2.2
			c0.9,0.1,2.6,1.5,2.8,2.4c0,0.2-0.1,0.6-0.2,0.8l0.4,0.9l0.5,0.6c0.2,0.4,0.4,2.3,0.5,3.4c0,0.5,0.2,1,0.3,1.5
			c0.1,0.3,0.2,0.7,0.2,1.1v0.9c0,0.5,0.1,1,0.1,1.2s0.1,0.5,0.2,0.8c0.1,0.6,0.2,1.2,0.2,1.9l-0.1,0.5l0.3,0.3v0.9
			c0,0.2,0,0.4,0.1,0.6c0,0.1,0.1,0.3,0.1,0.4c0,0.1,0.1,0.2,0.1,0.4c0,0.3,0,0.5-0.1,0.7c-0.1,0.4-0.2,0.8-0.2,1.2
			c0,0.1,0,0.3,0.1,0.8c0,0.2-0.1,0.7-0.1,1.2v1.1c0,0.1,0.1,0.2,0.1,0.4c0,0.5-0.1,0.9-0.2,1.2c-0.1,0.3-0.2,0.6-0.2,0.7
			c-0.1,1.1-0.2,2.2-0.2,3.3c0,0.5-0.1,1-0.1,1.6l-0.3,1.4l-0.3,0.8c-0.1,0.4-0.2,1-0.2,1.4c0.8-0.2,2.2-0.3,3.1-0.3
			c0.7,0,1.2,0.2,1.2,0.6c-0.1,0.4-0.8,0.4-1.7,0.5c-1.1,0.1-1.6,0-2.4,0.2c0,0.8-0.7,1.6-0.8,2c0,0.1-0.1,0.4-0.1,0.5l-0.3,0.6
			c-0.1,0.2-0.3,0.5-0.3,0.5v0.8c0,0.1,0,0.6-0.1,0.9c0,0.2-0.1,0.4-0.1,0.4s-0.1,0.2-0.1,0.3s-0.1,0.3-0.1,0.4l-0.3,0.9
			c0,0.1-0.1,0.2-0.1,0.3c-0.3,0.9-0.6,2-1.1,2.6c0.1,0.1,0.1,0.2,0.1,0.3c0,1-1.3,2-1.3,2.9c-0.1,0.1-0.3,0.4-0.3,0.4l-0.4,1.1
			c-0.5,1.4-1.1,3.3-1.8,3.9c-0.2,1-0.8,1.9-1.4,2.8c0,0.1-0.2,0.3-0.2,0.4c-0.2,0.2-0.9,1.5-1.3,2.2l-1.5,2c-1,1.2-2,2.4-3.2,3.5
			c-0.5,0.6-0.9,0.7-1.4,0.9l-1,1.2c-0.3,0-0.7,0.1-1.2,0.4C89.6,171.3,89.5,171.4,89.4,171.4z"/>
		<path class="st5" d="M122.8,105.6c1.3,0,2,0.8,2.9,2.3c0.6,1.4,0.6,2.8,0.6,4.1v1.1c0,0-0.1,0.6-0.2,0.8c0,0.1-0.1,0.5-0.2,0.7
			c-0.1,0.3-0.2,0.7-0.2,0.7c0,0.1-0.1,0.5-0.1,0.6c-0.1,0.2-0.1,0.5-0.1,0.5c-0.1,0.3-0.4,0.8-0.4,0.8c-0.1,0.1-0.2,0.2-0.2,0.3
			l-0.2,0.4c-0.3,0.6-0.4,0.8-0.6,1c-0.1,0.1-0.4,0.4-0.6,0.4c-0.7,0.7-1.5,1.4-1.9,1.4c-0.5,0.2-1.1,0.3-1.7,0.4l0.1,1.5
			c0.1,2.8,0.7,5.8,2.8,7.9c0.5,0.6,2.1,0.6,2.6,0.6c0.9,0,1.8-0.1,2.1-0.3l0.6-0.7l0.7-0.5c0.6-0.4,1.8-1.4,1.7-1.3
			c1.6-1.6,2.8-3.3,3.7-4.8c0.5-0.9,1.1-2.2,2.7-5.4c0.1-0.1,0.4-0.2,0.5-0.2c0.3,0,0.3,0.2,0.4,0.7c-1.3,3.1-2.2,4.6-2.8,5.6
			c-0.2,0.3-0.3,0.8-0.5,1l-0.8,1.5c-1.4,2-3.4,3.9-5.4,5.1c-0.5,0.3-3,0.8-3.5,0.8c-2.8,0-5.1-1-7.3-3c-0.6-0.5-1.5-1.8-1.8-2.3
			c-1.2-2.1-1.6-4.5-1.6-7.6c0-0.9,0.1-1.6,0.2-2.2c0.1,0,0.2-0.2,0.2-0.3v-1.6c0.7-3.8,2.4-6.5,5.3-9
			C120.4,106,121.2,105.6,122.8,105.6z M120.4,119.9c1.2,0,3.4-2.2,3.8-3.2c0.2-0.5,0.4-1.2,0.5-1.8l0.3-1.2
			c0.1-0.2,0.2-0.7,0.2-0.8v-1.3c0-1.4-0.1-2.5-0.9-3.9c-0.4-0.7-0.8-1.1-1.4-1.1c-0.5,0-1.3,1.5-1.3,1.4c0,0.1-0.5,1.6-0.7,2.2v0.4
			c0,0.1-0.1,0.3-0.2,0.5c-0.1,0.2-0.1,0.4-0.1,0.4c-0.2,0.8-0.3,1.6-0.4,2.4l-0.2,2.2c0,0.2-0.1,0.5-0.1,0.8c0,0.4,0,1-0.1,1.4
			c0,0.2,0,0.8,0.1,1.1C120,119.8,120.2,119.9,120.4,119.9z"/>
		<path class="st5" d="M133.2,94.4c-0.1,0-0.3-0.1-0.5-0.2l-0.6-0.3h-0.6c-0.6-0.1-1.5-0.3-1.9-0.7l-1.1-1.2c-0.5-0.7-1-1.7-1-3
			c0-1.6,0.7-3.4,2.2-3.4c0.2,0,0.6,0,1,0.2c-0.4,0.6-0.8,1.7-0.8,2.8c0,1.9,0.8,3.6,2.4,3.9c0.2,0.1,0.7,0.1,1.2,0.1
			c1.1,0,2.2,0,3.4-0.1l0.2-0.8c0.4-1.7,0.7-3.8,0.7-5.7v-1.4c0.5-3.5,1.1-6.3,1.1-7.2c0-0.2,0.3-0.5,0.4-0.5l1.3-0.2
			c0.3,0,0.5-0.2,0.7-0.2l2.4,0.1l0.7,0.5c0,0,0.4,1.2,0.4,2.7l-0.2,0.8c-0.1,0.4-0.1,0.8-0.1,0.8s-0.1,0.2-0.1,0.5
			c-0.1,0.7-0.2,2.1-0.2,2.6c-0.5,3.2-0.8,5.4-1,7.3l3.1-0.6c2.2-0.4,4.3-0.9,6.6-1.5c0.7-0.2,3.5-0.5,5.4-0.5
			c0.7,0,2.3,0.1,2.3,1.5c0,0.5-0.4,1-0.5,1c-0.4,0-0.4-0.2-0.5-0.3c-0.2-0.2-0.4-0.4-0.7-0.5c-0.7-0.2-1.5-0.2-1.9-0.2
			c-2.1,0-3.1,0.3-3.7,0.5c-0.1,0-0.4,0.1-0.5,0.1c-1.4,0.2-3.1,0.6-4.8,1.1l-5,1.1c-0.4,3.1-0.5,4.3-0.5,5.3l-0.4,2.6
			c-0.1,1.4-0.2,4.4-0.2,4.6c0,1.4-0.2,4.1-0.4,6.2c0,1.9-0.1,5.3-0.1,6.6c0,3.1,0,5.9,0.6,8.8c0,1.6,0.3,3,0.7,4.6
			c0.2,0.7,0.3,1.3,0.4,2c0.3,1.4,0.4,4.4,1.5,5.7l0.1,0.6l0.4,1.2c0.7,2.5,2.9,5.6,5.1,6.9c0.2,0.2,1,0.2,1.8,0.2
			c1.9,0,3.7-0.8,5.3-2.4l1.7-1.8l0.2-0.4c0-0.2,0.1-0.5,0.2-0.6l0.4-0.1c0,0,0-0.2,0.1-0.4c0-0.1,0.1-0.3,0.1-0.4l1.8-4.2
			c0.4-1.2,0.8-2.5,1-3.4c0.1-0.4,0.4-0.6,1-0.6c0.2,0,0.6,0.3,0.6,0.8l-1.7,4.7c-0.3,0.9-0.8,2.2-1.3,3c-0.8,1.2-1.1,1.8-1.4,2.3
			c-2.5,3.1-5.1,4.6-8.3,4.6c-0.8,0-2-0.1-2.9-0.3c-2.7-0.8-5.7-3.3-7.4-5.4c-0.3-0.3-0.7-0.9-1-1.7l-1-1.9
			c-0.5-0.9-0.9-2.2-1.2-3.2c-0.2-0.2-0.4-0.3-0.4-0.6l-1.2-4.3c-0.2-0.7-0.3-1.6-0.4-2.5l-0.2-2c0,0-0.1-0.2-0.1-0.4
			c0-0.1-0.1-0.3-0.1-0.4c-0.1-0.7-0.2-2.3-0.2-2.6v-13.9c0-0.8,0.1-2.1,0.1-2.4c0-1.7,0.4-8.8,1.1-14.3
			C135.3,94.3,133.9,94.4,133.2,94.4z"/>
		<path class="st5" d="M193.1,133.8c0.1,0,0.3,0.1,0.4,0.1c0.4,0.1,0.8,0.3,1.4,0.3h0.7c0.3,0,0.4-0.1,0.8-0.1
			c0.1-0.1,0.3-0.2,0.6-0.2c0.1,0,0.1,0.1,0.3,0.1c0.4-0.3,1.2-0.2,2-0.4l2-1.1c0,0,3-2.4,3.5-3.1l0.7-1.8c0.1-0.3,0.3-0.4,0.5-0.4
			c0.1,0,0.4,0,0.4,0.9c-0.6,1.9-1.8,3.5-3.4,4.6c-0.4,0.2-0.6,0.4-0.8,0.6l-0.6,0.5l-1.1,0.4c0,0-2.8,1.3-3.5,1.4
			c-0.5,0.2-1.4,0.4-2.3,0.4c-0.7-0.1-1.5,0.1-2.2-0.5c-0.4,0.1-0.7,0.1-1,0.1c-0.3,0-0.7,0-1-0.1c-2.6-0.5-6.5-2.5-7.6-4l-0.4-0.3
			c-0.2-0.1-0.5-0.4-0.6-0.5l-1.9-3.1c-0.5-0.8-1.1-1.8-1.6-2.9c-0.2-0.4-0.3-0.8-0.4-1.2l-0.3-0.9c-1.5-3.1-2.2-6.2-2.6-9.3
			c0-0.1-0.1-1.3-0.2-1.8c-0.1-1,0-1.9-0.3-2.2v-4.1c0-0.2,0.1-0.4,0.1-0.5v-3.5c0-0.9,0.2-1.6,0.3-2.3c0.2-0.9,0.3-1.9,0.3-2.8
			v-0.5c0.7-4.1,0.7-4.4,0.7-4.4l0.6-3.3l0.8-1.7c0.3-0.4,0.4-1.3,0.4-1.7c0-0.2,0-0.8,0.1-1.1c0.9-3.5,2.3-6.7,4.1-10.1
			c0.3-0.6,0.5-1.1,0.8-1.4c0.3-0.5,0.8-1.1,1-1.5c2.1-2.7,4.3-5.5,6.7-7.8c0,0,0.8-0.5,1.2-0.8c1.2-0.7,2.3-1.3,4-2
			c1.4-0.6,2.8-1.1,5.1-1.1c4.2,0,6,4.8,7.1,9.3c0,0.2-0.1,0.4-0.1,0.8l0.4,1.7V74l0.2,0.6v3.6c-0.1,0.4-0.2,0.8-0.2,1.2v0.9
			c0,0.8-0.1,2-0.3,2.8c0,0.1-0.2,0.4-0.4,0.6v1.2c-0.1,1-0.3,1.9-0.6,2.8c-0.1,0.1-0.2,0.6-0.2,0.7c-0.1,0.4-0.2,0.9-0.2,1.3
			l-0.2,1.3c-0.3,1-1,2.8-1.5,3.9c-0.1,0.4-0.4,1-0.4,1c0,0.6-0.5,1.3-1.1,2l-0.3,0.4c-0.5,0.6-0.7,1-1.5,1c-0.3,0-0.5,0-0.8-0.1
			c-0.1,0-0.4-0.1-0.5-0.1l-0.7-0.1c-0.1,0-0.6-0.6-0.6-0.7c0,0-0.3-0.1-0.4-0.3c-0.2-0.1-0.3-0.3-0.3-0.4c-0.4-0.4-0.7-1.2-0.8-1.9
			c-0.1-0.4-0.2-1.1-0.5-1.4c-0.1-1.4-0.2-2.8-0.2-4c0-3.3,0.5-6.5,1.9-9.7c0-0.2,0.4-0.9,0.7-1.4l0.3-0.4c0.7-1.2,1.9-1.7,3.2-1.7
			h0.6c0.7,0.2,0.9,0.5,0.9,1c0,0.6-0.3,1.1-0.6,1.7c-0.4,0.8-0.8,1.7-0.9,3.3c0,0.6-0.1,1.4-0.1,2c0,0.7-0.4,1.7-0.7,2.4
			c0,0.3-0.1,0.6-0.2,0.9c0,0.2,0,0.7-0.1,0.7c-0.1,0.6-0.1,1.1-0.1,2c0.1,0.1,0.1,0.5,0.1,0.7l-0.3,0.3c0,0.1,0.1,0.3,0.1,0.4
			s0.1,0.2,0.1,0.3c0,0.2-0.1,0.4-0.2,0.6c-0.1,0.1-0.1,0.2-0.1,0.4c0,0.1,0,0.3,0.1,0.3c0.2,0.2,0.2,0.8,0.2,1.1
			c0,0.5,0.2,1.5,0.3,1.6h0.5l1.1-1.1l0.6-1.9c0-0.2,0.3-0.7,0.3-0.7l0.2-0.5c0-0.2,0.1-0.3,0.1-0.4L205,91l0.4-1.6l0.3-0.4v-0.5
			c0-0.7,0.3-1.1,0.6-1.6v-1.1c0-0.4,0-0.9,0.1-1.2c0-0.1,0.2-0.5,0.2-0.6v-1.3l0.4-2.1c0-0.2-0.1-0.4-0.1-0.9
			c0.1-0.9,0.3-2.3,0.3-3.6c0-0.8,0-1.5-0.2-2.1v-0.5c0-0.3,0.1-0.7,0.1-1.1c0-0.8-0.1-1.8-0.4-2.3c0-0.1-0.1-0.2-0.1-0.4v-0.5
			c0-0.3,0.1-0.6,0.1-0.9l-1.1-3.3c-0.4-1.1-1.2-2-2-3.2l-1.5-1.4c-0.3,0-0.8-0.1-1-0.2h-1.4c-0.5,0-1,0-1.4,0.2
			c-0.7,0.2-1.4,0.5-2.1,0.8l-0.8,0.4c-1.3,0.7-2.6,1.7-3.9,3c-0.4,0.4-0.6,0.9-0.9,1.3c-0.4,0.8-0.7,1.3-1.1,1.7l-0.5,0.7
			c-0.4,0.3-0.5,0.7-0.6,1.1c-0.1,0.3-0.4,0.8-0.4,0.7c-1.2,2.6-1.9,4.5-2.8,7.1l-0.1,0.3l-0.3,0.9l-0.3,1.5c0,0.3-0.1,0.7-0.2,1
			c-0.1,0.1-0.1,0.5-0.1,0.6c-0.1,0.6-0.3,1.2-0.3,1.9c-0.5,2.7-0.5,2.8-0.5,2.8v0.4c-0.1,0.1-0.2,0.2-0.2,0.3
			c-0.7,2.6-0.7,5.6-0.8,8.3c0,0.9-0.2,2.3-0.2,3.2l-0.1,0.4v2.4c0,0.1,0,0.6-0.1,0.9c-0.1,0.4-0.2,1-0.2,1.2v3.4
			c0,0.1-0.1,0.3-0.1,0.5l0.4,2.6v1c0,0.4,0,0.6,0.1,1l0.3,2.6c0,0.1,0.2,0.5,0.3,0.5v0.8c0.1,0.7,0.3,1.5,0.5,2.1l0.2,1
			c0,0.2,0.1,0.3,0.1,0.5c0.2,1.2,0.4,2.9,0.7,4c0.2,0.6,0.4,1.2,0.7,1.7l0.6,1.3c0,0.5,0.4,1,0.7,1.5
			C187.7,130.1,190.2,133,193.1,133.8z"/>
		<path class="st5" d="M227.1,117.6c0.2,0.6,0.2,1.3,0.2,2.1c0,1-0.1,2.2-0.2,3.3c1.4-0.3,2.4-1.7,3.1-2.9c0.5-1.1,1.9-3.1,2.2-4.3
			c0.4,0.1,0.5,0.5,0.6,0.6c-0.5,1.4-1.4,4.1-1.8,4.8c-0.6,0.8-1.1,1.1-1.3,1.5c-0.9,0.9-1.9,1.7-3,2c-0.3,1.6-0.8,3.4-1.4,4.6
			c-0.2,0.5-0.3,0.8-0.5,1l-0.4,0.5c-0.1,0.1-0.5,0.7-0.5,0.8c-1.4,1.8-3.6,2.6-5.8,2.6c-1.1,0-2.3-0.2-3.1-0.5
			c-2.8-1.1-5.3-3.4-6.6-6.1c-0.1-0.2-0.3-0.7-0.3-0.9s0-0.5-0.1-0.7c0-0.1-0.1-0.2-0.2-0.4c-0.1-0.2-0.2-0.4-0.2-0.5
			c0-0.1-0.1-0.3-0.1-0.4c-0.1-0.4-0.2-0.9-0.2-2.8c0-0.7,0.1-1.9,0.3-2.7c0-0.2,0.1-0.4,0.1-0.6c0-0.4,0-0.6,0.1-0.6
			c0,0,0.1-0.2,0.2-0.5c0.1-0.2,0.2-0.5,0.2-0.6v-0.4c0-0.1,0-0.4,0.1-0.6c0-0.1,0.1-0.3,0.1-0.3c0.1-0.1,0.2-0.4,0.2-0.4
			c-0.1-0.1-0.2-0.4-0.2-0.5l1-0.6c0-0.2,0.1-0.3,0.1-0.5c0-0.5,0.1-0.9,0.5-1.4c0.2-0.2,0.3-0.5,0.6-0.8c0,0,0.7-0.9,1-1.2
			c0.2-0.1,1.1-1,1.5-1.4l0.7-0.6c1.9-1.4,3.6-1.8,5.5-2.1c0.8-0.1,1.7-0.3,2.6-0.3c0.6,0,1.3,0.1,1.6,0.3c0.2,0.2,0.8,0.6,0.8,0.6
			c0.4,0.2,0.8,0.5,1.1,1.1c0,0-0.2,0.3-0.6,0.3l-0.3-0.3c-0.7-0.4-1.9-0.8-3.3-0.8c-1,0-1.9,0.5-2.8,1.1c-2.7,2.4-3.8,6.8-4.1,10.1
			c-0.3,1.4-0.4,2.2-0.4,4c0,3.4,0.7,9.9,4.8,10.1c0.7,0,1.5-0.2,2.2-0.6c0,0,0.4-0.1,0.6-0.3l0.4-0.6c1.7-1.8,2.5-4,2.8-6.4
			c-0.3-0.1-0.6-0.2-0.8-0.4c-1.5-1-2.4-3.8-2.4-5.5c0-1.7,0.7-3.9,2.6-3.9C225.8,114.6,226.6,115.8,227.1,117.6z M225,122.7
			c0.1-0.9,0.1-1.8,0.1-2.7c0-0.2-0.2-0.3-0.2-0.4v-0.9c-0.1-1.4-0.5-2.5-0.8-2.5c-0.2,0-0.6,0.2-0.6,1.9c0,0.7,0.3,2.6,0.9,3.7
			C224.6,122.3,224.8,122.5,225,122.7z"/>
		<path class="st5" d="M223.7,179.7c0-0.3,0-0.9,0.1-1.6c0-0.6,0.2-1.5,0.5-2.2c0.2-0.3,0.2-0.7,0.2-1.2V174l0.2-0.6
			c0.5-1,1-1.8,1.2-3l2.2-4.8c0.4-0.6,0.4-0.7,0.5-0.7c0-0.1,0.1-0.3,0.1-0.4c0.1-0.2,0.3-0.5,0.3-0.5l0.5-0.3l0.3-1
			c0-0.1,0.1-0.3,0.1-0.4l0.9-1.6l0.6-0.5l0.2-0.4c0.1-0.2,0.2-0.4,0.2-0.6l0.7-0.8c0.1-0.4,0.4-0.9,0.5-1.3l1.9-2.1
			c0.3-0.3,0.7-0.8,0.7-0.9l0.2-0.4l1.8-2.1l2.3-2.3l0.6-0.4l1.3-1.8c0.7-1,1.5-1.9,2.6-3l1.3-1.4l0.4-0.2c0,0,0.2-0.2,0.3-0.4
			c0,0,0.1-0.2,0.1-0.3l1.7-1.6c0.5-0.6,1-1,1.6-1.8l0.2-3.1c0.1-1.4,0.1-2.5,0.3-2.5c0,0.1-0.1-2-0.1-2s-0.3-1-0.5-4.5
			c-0.1-0.1-0.2-0.3-0.2-0.5v-0.6c0-1-0.2-2.1-0.4-3.1c0-0.4-1.1-1.8-1.7-1.8c-0.9,0-2.4,0.7-3.4,1.4l-0.1,0.4l-1,1.4
			c-0.7,0.8-2.1,1.8-3.2,1.8c-0.9,0-1-0.2-1-0.9v-0.4l0.2-2.5c1.7-5.2,2.7-9.9,2.7-10.5l0.4-2.8c0-0.2,0.1-0.8,0.2-1.2
			c0-0.3,0.1-0.7,0.1-1c0-0.4,0.1-0.8,0.1-1c0-1.1-0.8-2.3-1.8-2.3c-0.4,0-1.3,1-2.1,1.8l-0.7,0.7l-0.8,1.1l-4.4,10.9
			c-0.2,0.4-0.6,0.5-0.8,0.5c-0.4,0-0.6-0.4-0.6-0.6l2-4.7c0.1-0.2,0.8-2.2,0.8-2.2c0.5-0.7,0.9-1.5,1.1-2c0-0.1,0.1-0.3,0.1-0.4
			l0.4-0.6c0,0,0-0.3,0.1-0.5c0.1-0.2,0.2-0.4,0.2-0.5c0,0,0-0.3,0.1-0.4s0.2-0.2,0.2-0.3c1-1.6,2.9-4.3,5.1-4.3c2,0,3.2,1,4.3,2
			l0.4,0.3c0.2,0.5,0.4,0.9,0.7,1.2c0.2,0.2,0.3,0.5,0.4,0.9l0.5,1.3c0,0.2,0.2,0.9,0.2,1.8c0,0.6,0,1.2-0.2,1.8
			c-0.1,1-0.5,1.9-0.5,1.9c-0.1,0.2-0.5,1.4-0.5,1.7c-0.1,0-0.2,0.7-0.3,1c-0.2,0.4-0.4,0.8-0.4,0.9l-0.5,1.1
			c-0.3,0.6-0.8,1.3-0.9,2c0,0.1-0.1,0.2-0.1,0.3c-0.1,0.2-0.1,0.4-0.1,0.6c0.9-0.4,2.4-1,3.5-1c2.2,0,4.3,1.6,5.7,3.3
			c0.3,0.3,1.1,1.4,1.6,2.8c0,0.6,0.2,1.2,0.3,1.7c0.1,0.6,0.3,1.6,0.3,1.5l-0.4,1l0.6,0.6c-0.1,1.1-0.1,1.9-0.1,2.6l1.3-1.4
			c2.3-2.5,3.4-4.4,4.1-6l0.3-0.6c0.5-1,1.2-2.3,1.4-3.1c0.2-0.6,0.9-2,1.3-2.8l0.6-1.4c0.1-0.2,0.4-0.5,0.8-0.5
			c0.2,0,0.5,0.4,0.5,0.5l-1.3,3.3l-1.5,3.2c-0.6,1.4-1.4,2.9-2.3,4.3c-1.3,1.9-3.6,4.9-5.2,6.5v0.4l-0.6,3.4c0.1,0.3,0.1,1,0.1,1.3
			l-0.6,2.4c0,0.3-0.1,0.7-0.1,1.1v0.6c0,0-0.1,0.3-0.2,0.4c-0.1,0.2-0.2,0.5-0.2,0.5v1.1c-2.1,6.8-2.8,8.9-3.5,10.9
			c0,0.1-0.3,0.5-0.3,0.6c-0.1,0.2-0.3,0.8-0.3,0.9c-0.3,0.3-0.5,1.1-0.5,1.2l-0.9,1.6l-0.5,1.4l-2.6,4.3l-0.3,0.9
			c-0.8,1.8-2.1,3.5-3.2,4.7l-1.4,1.9l-0.2,0.3c-0.7,0.8-1.4,1.5-1.7,2.6c-0.4,0.4-3.2,3.1-4,3.6l-1.5,1.2c-0.9,0.7-0.8,0.9-1.8,1.2
			l-0.7,0.5c-0.9,0.7-2.1,1.4-3.6,1.4C225.3,184.7,223.7,182.3,223.7,179.7z M249.4,141.3l-4,4.1l-1.2,1.6l-1.3,1.2
			c-0.3,0.2-0.5,0.5-0.5,0.5l-0.6,1l-4,4.6l-2.8,3.7l-0.2,0.3c-0.1,0.1-0.1,0.3-0.1,0.3l-0.7,0.7l-0.7,1.4l-0.3,0.4
			c-0.2,0.2-0.6,0.5-0.8,0.9l-0.2,0.3c0,0-0.3,0.5-0.5,1c-0.1,0.1-0.5,0.8-0.5,0.9l-0.3,0.6c-0.1,0.2-0.3,0.7-0.3,0.7
			s-0.2,0.2-0.3,0.4l-0.3,0.6l-1,1.2c0-0.1-0.3,0.6-0.5,1.1l-0.4,1c-0.5,1-0.9,2.2-1.2,3.2c-0.7,1.7-1.5,3.6-1.5,7.4
			c0,1.3,0.4,3.3,2,3.3c1,0,1.6-0.2,2-0.5l0.7-0.4l1.5-1.2c0.4-0.2,1-0.5,1.1-1c4.5-4.4,4.5-4.5,4.6-4.5c0-0.1,0.1-0.2,0.1-0.3
			c0.3-0.8,0.6-1.2,1-1.7l0.3-0.4c0-0.3,0.1-0.3,0.3-0.5l1.8-3.3c0,0.1,0.5-0.9,0.6-1.1c0.6-1.1,1-1.8,1.3-2.5l0.8-1.7
			c0.6-1.3,1.7-4,1.7-4v-0.4c0.1-0.4,0.3-0.8,0.5-1.2l0.8-2.1c0.1-0.1,0.1-0.3,0.2-0.5l0.7-2.4c0.9-2.8,1.5-4.7,1.5-4.8
			c0-0.1,0-0.3-0.1-0.5C248.9,146.5,249.3,143.5,249.4,141.3z"/>
		<path class="st5" d="M282.9,134.5l-0.4,3.5c0.1,0.3,0.1,1,0.1,1.2l-0.2,0.7c-0.1,0.4-0.2,1.7-0.3,1.5c0,0.3-0.1,0.6-0.1,0.9v0.6
			c0,0-0.1,0.3-0.2,0.4l-0.2,0.4v1l-1.3,4.1c-0.5,1.9-1.2,3.7-1.9,5.4c0,0.1-0.2,0.5-0.2,0.6c-0.1,0.1-0.1,0.6-0.1,0.7
			c-0.3,0.3-0.5,1-0.5,1.1l-0.9,1.4l-0.4,1.5l-2.6,3.9c-1.7,4-4.1,6.9-6.8,9.7c-0.5,0.5-3.1,2.7-4,3.3c-0.8,0.4-1.4,0.9-1.8,1.2
			c-0.6,0.6-0.5,0.7-1.4,1c0,0-0.5,0.5-0.8,0.7c-1.1,0.6-2.5,1.3-4.4,1.3c-1.9,0-3.4-2.3-3.4-4.6c0-0.3,0-0.8,0.1-1.4
			c0-0.5,0.2-1.3,0.5-2c0.2-0.3,0.2-0.7,0.2-1.1v-0.7l0.3-0.4c0.5-0.9,0.8-1.7,1.1-2.6l2.3-4.3l0.5-0.6c0-0.1,0.1-0.3,0.1-0.4
			c0.1-0.1,0.2-0.4,0.2-0.4l0.5-0.4c0.1-0.1,0.2-0.4,0.3-0.7c0-0.1,0.1-0.3,0.1-0.4l0.9-1.5l0.6-0.6l0.2-0.4
			c0.1-0.2,0.2-0.5,0.2-0.5l0.7-0.7l0.5-1.2l1.2-1.3c0.1-0.2,0.5-0.6,0.6-0.7c0.3-0.3,0.7-0.9,0.7-0.8l0.2-0.4l1.8-1.9l1-0.9
			c0.4-0.3,0.8-0.8,1.2-1.3l0.5-0.4l1.3-1.8c0.6-0.9,1.4-1.6,2.3-2.5l1.5-1.6l0.4-0.1l0.3-0.4c0,0,0.1-0.2,0.1-0.3l1.4-1.4
			c0.7-0.7,1.9-1.5,2.3-2.5c0.5-2.6,0.5-4.3,0.5-4.3c0-0.4,0.1-1.9,0.2-3.6c0.1-2.5,0.3-5.3,0.3-6.7c0-0.5,0-1.4-0.1-2
			c-0.1-0.3-0.1-1.1-0.1-1.8c0-1.1-0.1-2.6-0.3-3.3l-1,2.2c-0.1,0.1-0.4,0.7-0.4,0.8l-0.2,0.7l-0.3,0.4c-0.1,0.3-0.3,0.8-0.4,0.8
			l-0.4,0.9c-1.1,2.1-2.2,4.5-3.7,6.2c0,0-0.6,0.9-0.9,1.2c-1,1.5-2.2,3.2-3.9,3.2s-3.3-0.8-4.2-1.8c-0.4-0.5-1.1-1.7-1.3-2.3
			c-0.3-1.3-0.5-2.5-0.5-3.8c0-1.2,0.2-2.6,0.4-3.7c0-0.3,0.2-0.9,0.2-1.3c0.1-0.1,0.2-1.3,0.4-2c0.2-1.5,0.5-3.3,0.5-3.8
			c0-0.7-0.2-1-0.7-1c-0.3,0-0.7,0-1.2,0.1c-0.4,0-0.4-0.3-0.4-0.5c0.8-0.6,2.8-1.1,4.1-1.1c2.4,0,4.9,0.4,4.9,3.2
			c0,0.3-0.1,1.7-0.2,2.3c0,0.1-0.2,0.4-0.2,0.5l-0.2,0.4c-0.4,1.3-0.3,3.1-1.1,4.3c0,0.2-0.2,0.7-0.3,1c0,0.6-0.1,1.8-0.4,2.3
			c-0.2,0.1-0.3,1.3-0.3,2.7c0,0.3,0.2,2.1,0.3,2.3c0.1,0.3,0.4,0.6,0.6,0.6c0.6,0,1.2-1.3,3.5-4c0-0.1,0.2-0.3,0.2-0.4
			c0.1-0.2,0.2-0.4,0.2-0.5l0.4-0.2c0-0.1,0.1-0.2,0.1-0.3s0.1-0.2,0.2-0.4l0.7-0.7c0.1-0.2,0.2-0.5,0.2-0.6l0.4-0.5
			c0.1,0,0.6-0.3,0.6-0.4c0.1-0.1,0.2-1,0.2-1.1l1.3-2.9c0.2-0.2,0.6-0.6,0.7-0.8c0-0.2-0.1-0.4-0.1-0.6l0.3-0.7
			c0.3-0.8,0.9-2.1,0.9-2c0-0.1,0.2-0.2,0.2-0.3l0.7-1.7c0.2-1.1,0.3-2.4,1-3.4c0.1-0.7,1.5-0.8,1.6-0.8c2.6,0.4,3.3,1.8,3.3,4v1.6
			c0,0.1,0.1,0.5,0.1,0.6v0.6c0,0.2-0.1,0.4-0.1,0.7c0,0.5,0.1,1.1,0.3,1.5c0,0.9-0.2,2-0.2,3c0,0.6,0,1.1,0.3,1.6
			c0,0.2,0.1,0.4,0.1,0.4l0.2,2.7l-0.8,6.6c2.7-2.4,4.4-5.1,5.2-6.6l0.3-0.6c0.5-1,1.1-2.5,1.5-3.2l1.9-4c0.1-0.2,0.3-0.5,0.7-0.5
			c0.2,0,0.5,0.4,0.5,0.5c-0.3,1-0.9,2.4-1.3,3.3l-1.5,3.1c-0.6,1.4-1.5,2.9-2.4,4.3C286.9,129.7,284.6,132.8,282.9,134.5z
			 M256.9,178.6l2.3-1.4c0.8-0.3,0.8-0.4,1.2-0.9l4.5-4.1c0-0.1,0.1-0.2,0.1-0.3c0.3-0.7,0.5-1,0.8-1.3l0.5-0.6
			c0-0.1,0.1-0.3,0.3-0.4l0.5-1.1l1-1.4c0.2-0.4,0.3-0.5,0.3-0.4c0,0.1,0.5-0.9,0.6-1.1l1.4-2.3l2.4-4.8c0-0.2,0.1-0.4,0.1-0.6
			c0.1-0.4,0.2-0.8,0.4-1.2c0.2-0.3,0.3-0.9,0.4-1.2c0-0.1,0.2-0.5,0.3-0.6c0-0.1,0.2-0.4,0.2-0.5l0.6-2.2l0.6-1.7
			c0.5-2.5,1-5.5,1.4-10.2c-0.7,0.7-1.3,1.2-1.8,1.8l-2.4,2.2l-1.8,2c0,0.1-0.2,0.2-0.3,0.3c-0.4,0.3-0.6,1-0.6,1l-0.8,0.7l-6.7,7.5
			c0,0.1-0.2,0.4-0.3,0.5l-0.7,0.8c-0.2,0.3-0.4,0.9-0.6,1.1l-0.4,0.4c-0.3,0.2-0.5,0.4-0.7,0.7l-0.3,0.5c-0.1,0.2-0.4,0.7-0.4,0.7
			c-0.1,0.1-0.6,0.9-0.6,1c-0.1,0-0.3,0.3-0.4,0.6c-0.1,0.2-0.2,0.5-0.2,0.5s-0.2,0.2-0.3,0.4l-0.3,0.6c-0.2,0.2-0.7,0.7-0.9,1.1
			c0,0-0.9,1.8-0.9,1.9c-0.5,0.9-0.9,2-1.2,2.9c-0.7,1.5-1.5,3.3-1.5,6.7c0,1.2,0.3,3,2.2,3C256,179.1,256.7,178.8,256.9,178.6z"/>
	</g>
</g>
<path class="st6" d="M228.8,198v10c0,0,6-4.1,14.9-1.9s16.3,16.5,15.7,24.9c-0.6,8.5-7.2,26.2-15.3,27.8c-8.1,1.6-12.6,1.1-15.9-1.1
	v8.6c0,0,10.8,4.7,21.3-1.7c10.5-6.4,16.8-21.6,16.8-32.3c0.1-14.3-6.2-26.7-15.3-31.7C242,195.7,228.8,198,228.8,198z"/>
<path class="st7" d="M128.5,177v115.4c0,0,15.2,18.4,53.1,14.6s49.6-15.3,49.6-15.3V178c0-3.6-1.8-7-4.8-9
	c-7.1-4.7-22.4-12-47.4-10.9c-25.6,1.1-40.1,7.9-46.5,11.8C130,171.4,128.5,174.1,128.5,177z"/>
<ellipse class="st6" cx="179.9" cy="177.9" rx="46.7" ry="15.8"/>
<path class="st8" d="M139.8,193.2c0,0,23.8,7.5,34.8,5.3v109c0,0-22.1,2-34.1-6.6L139.8,193.2z"/>
<circle class="st1" cx="-259.4" cy="149.2" r="9.1"/>
</svg>
