<?xml version="1.0" encoding="utf-8"?>
<!-- Generator: Adobe Illustrator 23.0.0, SVG Export Plug-In . SVG Version: 6.00 Build 0)  -->
<svg version="1.1" id="Layer_1" xmlns="http://www.w3.org/2000/svg" xmlns:xlink="http://www.w3.org/1999/xlink" x="0px" y="0px"
	 viewBox="0 0 360 360" style="enable-background:new 0 0 360 360;" xml:space="preserve">
<style type="text/css">
	.st0{fill:none;}
	.st1{fill:#8B8FBC;}
	.st2{fill:#A0A2D1;stroke:#FFFFFF;stroke-width:7;stroke-miterlimit:10;}
	.st3{fill:url(#SVGID_1_);stroke:#FFFFFF;stroke-width:7;stroke-miterlimit:10;}
	.st4{fill:#FFFFFF;}
	.st5{font-family:'CantoniPro-Bold';}
	.st6{font-size:98.7841px;}
	.st7{fill:#94507D;}
	.st8{fill:#BB679C;}
	.st9{fill:#CE8EB8;}
</style>
<pattern  width="57.6" height="57.6" patternUnits="userSpaceOnUse" id="New_Pattern" viewBox="9.1 -66.7 57.6 57.6" style="overflow:visible;">
	<g>
		<rect x="9.1" y="-66.7" class="st0" width="57.6" height="57.6"/>
		<circle class="st1" cx="52.3" cy="-9.1" r="9.1"/>
		<circle class="st1" cx="23.5" cy="-9.1" r="9.1"/>
		<circle class="st1" cx="66.7" cy="-37.9" r="9.1"/>
		<circle class="st1" cx="37.9" cy="-37.9" r="9.1"/>
		<circle class="st1" cx="9.1" cy="-37.9" r="9.1"/>
		<circle class="st1" cx="52.3" cy="-66.7" r="9.1"/>
		<circle class="st1" cx="23.5" cy="-66.7" r="9.1"/>
	</g>
</pattern>
<rect x="35.4" y="35.4" class="st2" width="289.2" height="289.2"/>
<pattern  id="SVGID_1_" xlink:href="#New_Pattern" patternTransform="matrix(1 0 0 1 33.1918 -44.4)">
</pattern>
<rect x="35.8" y="35.4" class="st3" width="289.2" height="289.2"/>
<g>
	<text transform="matrix(1 0 0 1 71.0908 132.9769)" class="st4 st5 st6">Get Cozy</text>
</g>
<image style="overflow:visible;" width="260" height="277" xlink:href="cozy.jpg"  transform="matrix(1 0 0 1 253.9695 484.5912)">
</image>
<path class="st7" d="M228.8,198v10c0,0,6-4.1,14.9-1.9s16.3,16.5,15.7,24.9c-0.6,8.5-7.2,26.2-15.3,27.8c-8.1,1.6-12.6,1.1-15.9-1.1
	v8.6c0,0,10.8,4.7,21.3-1.7c10.5-6.4,16.8-21.6,16.8-32.3c0.1-14.3-6.2-26.7-15.3-31.7C242,195.7,228.8,198,228.8,198z"/>
<path class="st8" d="M128.5,177v115.4c0,0,15.2,18.4,53.1,14.6s49.6-15.3,49.6-15.3V178c0-3.6-1.8-7-4.8-9
	c-7.1-4.7-22.4-12-47.4-10.9c-25.6,1.1-40.1,7.9-46.5,11.8C130,171.4,128.5,174.1,128.5,177z"/>
<ellipse class="st7" cx="179.9" cy="177.9" rx="46.7" ry="15.8"/>
<path class="st9" d="M139.8,193.2c0,0,23.8,7.5,34.8,5.3v109c0,0-22.1,2-34.1-6.6L139.8,193.2z"/>
<circle class="st1" cx="-259.4" cy="149.2" r="9.1"/>
</svg>
