<?xml version="1.0" encoding="utf-8"?>
<!-- Generator: Adobe Illustrator 23.0.0, SVG Export Plug-In . SVG Version: 6.00 Build 0)  -->
<svg version="1.1" id="Layer_1" xmlns="http://www.w3.org/2000/svg" xmlns:xlink="http://www.w3.org/1999/xlink" x="0px" y="0px"
	 viewBox="0 0 360 360" style="enable-background:new 0 0 360 360;" xml:space="preserve">
<style type="text/css">
	.st0{fill:#A4D7B9;stroke:#FFFFFF;stroke-width:7;stroke-miterlimit:10;}
	.st1{fill:none;}
	.st2{enable-background:new    ;}
	.st3{fill:#FFFFFF;}
</style>
<rect x="35.4" y="35.4" class="st0" width="289.2" height="289.2"/>
<rect x="-6.8" y="84" class="st1" width="373.6" height="220.9"/>
<g class="st2">
	<path class="st3" d="M127.5,113.3c0,7.4-2.6,13.1-7.1,18.6c0.6,1.7,1.4,4,2.8,4c0.6,0,1.8-2.2,3.6-2.2c2.3,0,2.3,1.6,2.3,2.7
		c0,3.1-3.6,5.1-6.2,5.1c-3.9,0-6.1-3.3-7.1-5.5c-4.3,2.8-9.1,3.6-14.1,3.6c-11.7,0-22.6-7.5-22.6-20.5c0-17.3,11.8-30.4,29.9-30.4
		c1.7,0,3.4,0.2,4.8,1.6c4.5,1,7.4,3.1,9.7,7.8c1.8,4.3,3.5,9.2,4.1,13.9V113.3z M109.3,93.7c-14.8,0.1-24.9,10-24.9,24.7
		c0,9.9,8.1,16,17.4,16c2.1,0,12.3-1.3,12.3-3.1c0-3.8-4.4-12.6-9-12.6c-2.1,0-2.7,2.1-2.7,4.3c0,0.8,0.5,1.3,0.5,2.1
		c0,1.7-1.3,2.2-2.3,2.2c-1.4,0-3.6-1.4-3.6-4.9c0-4.5,2.7-8.9,7.9-8.9c7.4,0,11.2,7,13.6,12.7c1.4-2.7,3.2-8.2,3.2-12.2
		c0-6.5-3-18.7-10.6-18.7C109.9,95.3,109.5,94.3,109.3,93.7z"/>
	<path class="st3" d="M153.2,133.3v-0.3c-1.1,3.9-3.6,7.1-9,7.1c-4,0-8.3-3.7-8.3-9.2v-12c-0.5,0,0.1,0.2-1.6,0.2
		c-1.5,0-4-0.4-4-2.9c0-2.4,2.3-2.9,4.7-2.9c1.4,0,2.7,0.2,3.3,0.2h0.5c2.1,0,6-0.2,6,2.9c0,2.7-4,2.8-3.7,2.8c-0.1,0-0.1,0-0.2-0.1
		v1.1c0,1.6,0.1,3.5,0.1,5.2c0,3.4-0.4,9.3,4.5,9.3c6.2,0,6.8-10,6.8-16c-0.6,0-1.1,0.2-1.9,0.2c-1.3,0-3-1.3-3-2.7
		c0-0.2-0.1-2,2.1-2.4c1.7-0.4,3.4-0.4,7.4-0.4c3,0,6,0.5,6,3c0,1.6-1.7,2.3-2.9,2.3c-0.7,0-1.8-0.2-2.6-0.2
		c0.5,5,0.9,10.2,1.3,15.2c0.8-0.2,1.7-0.4,2.2-0.4c1.6,0,3.3,0.7,3.3,2.7c0,2.3-5.1,3.2-6.1,3.2C155.6,139.2,153.2,139,153.2,133.3
		z"/>
	<path class="st3" d="M183.6,112.9c6.3,0,12.3,6.8,12.3,13.6c0,8.5-7.4,13-14.4,13c-7.2,0-14.5-6.2-14.5-14.4
		C167.1,114.9,176.4,112.9,183.6,112.9z M182.4,134.2c4.1,0,7.8-3,7.8-7.8c0-3.3-1.8-5.6-4.5-7.3c-1.5-0.5-1.7,1-3.1,1
		c-1.3,0-0.9,0-5.4-1.7c-2.6,0.3-4.4,3.8-4.4,6.5C172.9,130.7,177.3,134.2,182.4,134.2z"/>
	<path class="st3" d="M209.3,118.4c-0.2,1.1-0.4,3-0.4,6.8c0,4.7,0.7,10.1,4.9,10.1c5,0,0-8.3,5.2-8.3c1.3,0,3.2,0.5,3.2,2.4
		c0,5.7-1.3,10.8-8.4,10.8c-8.8,0-10.4-7.4-10.4-14.8c0-3.1,0.3-5.2,0.3-6.9c-2.6,0-6.1,0.2-6.1-3c0-2.4,5.1-2.4,7.2-2.4
		c-0.2,0-0.2-6.6-0.2-8c0-2.5,0.4-5,2.9-5c0.8,0,2.9,1,2.9,2.5c-0.3,6.8-0.5,9.3-0.7,10.7v0.2c1.9,0.2,5.8,0,9.1,0
		c1.8,0.8,1.8,1.5,1.8,2.5c0,1.6-0.9,2.4-2.5,2.4H209.3z"/>
	<path class="st3" d="M224.8,123.3c2.4-5.7,5.7-10.6,13-10.6c4.6,0,11.6,2.2,11.6,8.4c0,2.1-3.7,3.5-4.9,3.7
		c-5.9,0.6-8.5,0.9-14.2,1c0.3,4.6,3,8.7,7.9,8.7c3.5,0,6.2-3.8,9.3-3.8c1.8,0,2.8,0.6,2.8,2.6c0,4.6-9,6.4-11.7,6.4
		c-7.8,0-13.9-6.2-13.9-14V123.3z M231.1,121.5c1-0.1,2.1-0.2,2.4-0.2c3,0,7.1-0.3,10-1.2c-0.8-1.5-2.9-2.6-5.6-2.6
		C234.7,117.5,231.7,119.5,231.1,121.5z"/>
	<path class="st3" d="M256.8,140.6c-1-0.3-1.6-2.4-1.6-4.8c0-4.9,0-7.6,2.6-7.6c3.2,0,3,2.7,3,4.9v0.1c1.2,1.4,4,1.7,6.4,1.7
		c2.1,0,4.6-0.4,4.6-2.4c0-4.4-16.1-4-16.1-12.5c0-5.8,6.2-7.6,10.9-7.6c2.1,0,4,0.5,5.2,1v-0.2c0-2.5,1.6-2.5,2.7-2.5
		c2.6,0,2.6,2.3,2.6,4.6v0.3c0,6.2-0.5,7.5-2.6,7.5c-2.4,0-3-1.7-3-3.3c0-0.8,0.2-1.6,0.2-2.1c0-0.1-4-0.4-5.2-0.4
		c-2.3,0-5.3,0.7-5.3,2.9c0,3.6,16.2,4,16.2,12.8c0,5.5-5.4,6.9-10,6.9c-3,0-4.9-0.5-6.8-1.1c-0.2,1.2-0.8,2.1-2.2,2.1L256.8,140.6z
		"/>
</g>
<g class="st2">
	<path class="st3" d="M83,205l18.4-37.2c-0.1-0.3-0.1-0.6-0.1-0.9c0-2.6,7.1-2.7,9.5-2.7c2,0,3.5,0.2,3.5,2.7c0,3-4,1.4-6.5,2.2
		c-0.5,4.3-0.5,8.4-0.5,12.5c0,8.7,0.6,17.1,0.6,25.7v1.7h1.7c1.6,0,4,0.2,4,1.7c0,2.3-1.4,3-3.2,3c-4,0.2-7.9,0.5-11.9,0.5
		c-1.4,0-2.4-0.5-2.8-2.7c0.4-2.7,3.3-2.4,6.3-2.4c0.2-2.6,0.4-4.7,0.4-6.4c0-4.5-0.7-7.6-0.7-21.3v-2.3L85,212.2
		c-0.5,1-1.2,1.8-2.7,1.8c-0.7,0-1.4,0-2.3-0.9L65,176c0,1.6-0.1,3-0.1,4.2c0,2.4,0.1,4.5,0.1,7.6c0,12,0,16.2-0.1,21.2
		c0.4-0.1,4.1-0.5,5.4-0.5c1.6,0,3.2,1.5,3.2,2.7c0,2.6-3,2.6-4.6,2.6h-0.2c-1.9,0-4.6-0.2-7.1-0.2c-1.2,0-2.4,0.1-3.5,0.1
		c-2.4,0-4-0.4-4-2.9c0.2-0.7,0.3-2.4,2.4-2.4l2.9-0.1c0-9.7,0.3-18.8,0.3-28.3c0-3.7,0-5.9-0.1-9.9l-4.3,0.2
		c-1.6,0.1-2.1-1.8-2.3-3c0.2-1.3,1.9-2.2,2.7-2.2c5.6,0,6.8-0.3,11.3-0.3c1,0.5,1.5,1.3,1.5,2.1c0,0.9-0.5,1.5-0.9,1.9L83,205z"/>
	<path class="st3" d="M132,188.2c3.3,0,8.7,1.9,8.7,6.2c0,1.5-1.3,5.1-3.3,5.1c-1,0-2.8-0.6-2.8-2.1c0-0.8,0.4-2.2,0.4-2.6
		c0-1-1.7-1.6-2.9-1.6c-6.1,0-9,4.6-9,9.1c0,4.5,4.5,6.6,8.8,6.6c0.9,0,2.1-0.5,4-0.5c1.5,0,3.5,0.5,3.5,2.7c0,3.6-5.3,3.4-7.4,3.4
		h-0.4c-7.2,0-14-4.7-14-12.2C117.5,195.1,122.3,188.2,132,188.2z"/>
	<path class="st3" d="M185,208.5v-0.5l-0.6,0.8c-4,4.9-10.1,6.8-16.3,6.8c-13.5,0-24.5-12.8-24.5-26.1c0-15.9,13.3-25.5,28.3-25.5
		c3.2,0,6.3,0.5,9.2,1.7c0.2-1.2,0.7-2.3,2.5-2.3c1.1,0,1.7,0.4,2.4,1c0.8,0.5,0.8,9.9,0.8,13.2c0,2.3-2.1,2.3-2.8,2.3h-0.9
		c-1.4,0-1.6-3.1-1.6-6.7c0-2.8-7.1-4.1-9.7-4.1c-11.9,0-22.6,8-22.6,20.1c0,10.9,8.4,20.8,19.6,20.8c6.6,0,15.4-4.9,15.4-12v-0.2
		c-1.4-0.5-5.5-0.6-9.2-0.6c-3.3,0-6.8,0-8.1,0.1c-1.4-0.6-1.8-1.8-1.8-2.7s0.4-2.7,2.3-2.7h3.6c1.3,0,4.1-0.2,6.8-0.2
		c1.5,0,12.1,0.2,12.1,3.3c0,0.4-0.1,0.7-0.1,2c0,4.2,0.5,8.4,1.3,13.5c0,2.2-0.9,3-2.7,3C185.1,213.6,185,210.4,185,208.5z"/>
	<path class="st3" d="M212.8,188.1c6.3,0,12.3,6.8,12.3,13.6c0,8.5-7.4,13-14.4,13c-7.2,0-14.5-6.2-14.5-14.4
		C196.2,190.1,205.5,188.1,212.8,188.1z M211.6,209.4c4.1,0,7.8-3,7.8-7.8c0-3.3-1.8-5.6-4.5-7.3c-1.5-0.5-1.7,1-3.1,1
		c-1.3,0-0.9,0-5.4-1.7c-2.6,0.3-4.4,3.8-4.4,6.5C202,205.9,206.5,209.4,211.6,209.4z"/>
	<path class="st3" d="M243.9,211c-1.7,2.1-4.8,3.4-7.4,3.4c-3.6,0-8.4-1.3-8.1-6.7c0.2-6.1,5-7.6,9.6-7.6c1.8,0,2.9,0.2,4.7,0.5
		c0-4.3-1.3-7.4-4.6-7.4c-1.7,0-2.4,1.2-3,2.1c-0.7,1.1-1.1,2.1-2.7,2.1c-1.5,0-2.7-1.6-2.5-3c0.2-4.6,4-6.2,7.8-6.2
		c10.2,0,10.7,7.4,10.7,14.1c0,4.2-0.8,7,0.5,7c0.8,0,1.7-2,2.7-2c0.8,0,1,0.3,1.4,0.7c0.2,0.2,0.5,0.8,0.5,1.1
		c-0.2,2.7-0.8,5.5-4.3,5.5C247,214.5,244.5,213.2,243.9,211z M234.1,207.2c-0.1,1.8,1.4,2.1,2.8,2.1c2.7,0,5.4-1.6,6-4.1
		c-1.6-0.7-2.4-1.2-4.4-1.2C236.3,204,234.3,204.7,234.1,207.2z"/>
	<path class="st3" d="M264.3,193.6c-0.2,1.1-0.4,3-0.4,6.8c0,4.7,0.7,10.1,4.9,10.1c5,0,0-8.3,5.2-8.3c1.3,0,3.2,0.5,3.2,2.4
		c0,5.7-1.3,10.8-8.4,10.8c-8.8,0-10.4-7.4-10.4-14.8c0-3.1,0.3-5.2,0.3-6.9c-2.6,0-6.1,0.2-6.1-3c0-2.4,5.1-2.4,7.2-2.4
		c-0.2,0-0.2-6.6-0.2-8c0-2.5,0.4-5,2.9-5c0.8,0,2.9,1,2.9,2.5c-0.3,6.8-0.5,9.3-0.7,10.7v0.2c1.9,0.2,5.8,0,9.1,0
		c1.8,0.8,1.8,1.5,1.8,2.5c0,1.6-0.9,2.4-2.5,2.4H264.3z"/>
	<path class="st3" d="M282.5,215.8c-1-0.3-1.6-2.4-1.6-4.8c0-4.9,0-7.6,2.6-7.6c3.2,0,3,2.7,3,4.9v0.1c1.2,1.4,4,1.7,6.4,1.7
		c2.1,0,4.6-0.4,4.6-2.4c0-4.4-16.1-4-16.1-12.5c0-5.8,6.2-7.6,10.9-7.6c2.1,0,4,0.5,5.2,1v-0.2c0-2.5,1.6-2.5,2.7-2.5
		c2.6,0,2.6,2.3,2.6,4.6v0.3c0,6.2-0.5,7.5-2.6,7.5c-2.4,0-3-1.7-3-3.3c0-0.8,0.2-1.6,0.2-2.1c0-0.1-4-0.4-5.2-0.4
		c-2.3,0-5.3,0.7-5.3,2.9c0,3.6,16.2,4,16.2,12.8c0,5.5-5.4,6.9-10,6.9c-3,0-4.9-0.5-6.8-1.1c-0.2,1.2-0.8,2.1-2.2,2.1L282.5,215.8z
		"/>
</g>
<g class="st2">
	<path class="st3" d="M150.7,240.9c0,0.4,0.1,0.7,0.3,0.7c2.4,0,3.7,1.7,3.7,4.3c0,3.5-2.4,4.9-4,4.9c-5,0-5.1-4.3-5.1-7v-0.4
		c0-5.2,1.7-12.7,8.6-12.7c1.1,0,2.7,0.5,2.7,2.4C157,236,150.7,234.7,150.7,240.9z M164.5,235.5c-1.1,0-3,0.5-3,4.3
		c0,0.6,0,1.4,0.2,2.1l0.2,0.1c1.7,0.7,3.3,1.1,3.3,3.6c0,2.5-2.3,5.2-4.9,5.2c-2.4,0-4-0.6-4-7.5c0-4.9,1.7-12.3,7.1-12.3
		c1.7,0,3.3,1.4,2.9,3C165.9,235.9,165,235.5,164.5,235.5z"/>
	<path class="st3" d="M192.5,256.1c2,0,4.6-2.4,4.6-5.5l-0.1-0.8c-2.9,0-4.7-1.4-4.7-4c0-0.6,0-5,4.8-5c3.7,0,5,5.4,5,7.8
		c0,5.4-2.5,12.7-9.4,12.7c-1.4,0-3-0.6-3-2.8C189.7,257.4,190.5,256.1,192.5,256.1z M204.3,256.9c3-1.9,3.6-3.7,3.8-6.6l0.1-1.1
		c-2.8,0-5.1-0.3-5.1-3.2c0-0.7,0-5.7,4.9-5.7c3.6,0,5.3,4.7,5.3,9.3c0,1.9-1.1,11.8-7.5,11.8c-1.4,0-2.7-1.1-2.7-2.9
		C203,257.3,203.6,257.4,204.3,256.9z"/>
</g>
</svg>
