<?xml version="1.0" encoding="utf-8"?>
<!-- Generator: Adobe Illustrator 23.0.0, SVG Export Plug-In . SVG Version: 6.00 Build 0)  -->
<svg version="1.1" id="Layer_1" xmlns="http://www.w3.org/2000/svg" xmlns:xlink="http://www.w3.org/1999/xlink" x="0px" y="0px"
	 viewBox="0 0 360 360" style="enable-background:new 0 0 360 360;" xml:space="preserve">
<style type="text/css">
	.st0{fill:#D07A54;stroke:#FFFFFF;stroke-width:7;stroke-miterlimit:10;}
	.st1{enable-background:new    ;}
	.st2{fill:#BBE0C2;}
	.st3{fill:#D07A54;}
	.st4{fill:#7EBE4B;}
	.st5{fill:#F4F2E2;}
	.st6{fill:#FFFFFF;}
</style>
<rect x="35.4" y="35.4" class="st0" width="289.2" height="289.2"/>
<g class="st1">
	<path class="st2" d="M120.1,81.3c-5.8-2-12.3-5.2-12.3-12.5c0-5.6,4.9-11.1,12.9-11.1c8.2,0,12.8,6.2,12.8,6.2l-4.7,4.6
		c0,0-3.3-4.4-8.1-4.4c-3.4,0-6,2.1-6,4.7c0,3.4,3.1,4.5,8.5,6.5c6,2.2,11,4.9,11,12.1c0,7.1-6.3,10.9-13.7,10.9
		c-9.8,0-14.4-8-14.4-8l5.1-4.3c0,0,3.4,5.9,9.3,5.9c3.4,0,6.8-1.3,6.8-4.5C127.3,84.1,124.8,82.9,120.1,81.3z"/>
	<path class="st2" d="M140.3,88.3V71.1h6.7v15.4c0,3.9,1.9,5.6,5.3,5.6c3.5,0,5.3-3.3,5.3-3.3V71.1h6.7v26.6H158v-3.9
		c0,0-2.5,4.5-8,4.5C144.9,98.3,140.3,94.7,140.3,88.3z"/>
	<path class="st2" d="M177.3,71.1v3.5c0,0,2.5-4.2,8-4.2c6.9,0,13,5.8,13,14s-6.1,14-13,14c-4.2,0-6.6-2.3-7.5-3.4v15.7H171V71.1
		H177.3z M177.8,88.4c0,0,1.9,3.7,6.3,3.7c4.5,0,7.3-3.3,7.3-7.7s-2.8-7.7-7.3-7.7c-4.4,0-6.3,3.7-6.3,3.7V88.4z"/>
	<path class="st2" d="M228.2,84.3c0,0.5,0,1.5-0.1,2.5h-19.9c0.5,2.4,3.3,5.4,7.5,5.4c4.7,0,7.3-2.7,7.3-2.7l3.4,5.1
		c0,0-4.2,3.8-10.7,3.8c-8.1,0-14.3-6.2-14.3-14c0-7.8,5.7-14,13.4-14C222.1,70.4,228.2,76.1,228.2,84.3z M221.4,81.9
		c-0.1-2.3-2.2-5.4-6.7-5.4c-4.3,0-6.3,3-6.5,5.4H221.4z"/>
	<path class="st2" d="M251.4,71.2l-2.4,6.1c0,0-1.2-0.6-3.2-0.6c-4.1,0-6,3.6-6,3.6v17.4h-6.7V71.1h6.4v3.9c0,0,2.3-4.5,7.2-4.5
		C249.2,70.4,251.4,71.2,251.4,71.2z"/>
</g>
<g>
	<path class="st3" d="M110.4,257.1"/>
	<path class="st4" d="M162.2,213.5c2.9-2.1,4-1.4,4.2,1.8c0.2,2.5,0.4,5.6,4.6,4.7c0.5-0.1,1.3,0.4,1.2,1.3
		c-0.4,4.9,3.3,7.2,6.4,10.4c0.6-3.5,2.1-3.7,4.9-2.3c3.5,1.7,7.2,1.4,10.7-0.6c1.2-0.7,2.7-1.7,4-0.2c1.1,1.3-0.1,2.5-0.5,3.7
		c-1,2.6-2.2,5.1-4.3,8c3.1-2.8,4.9-5.5,6.5-8.4c0.7-1.3,1.9-0.4,2.8,0.1c4.5,2.4,8.8,1.5,12.8-1c2-1.3,3.4-1.6,5,0.6
		c1.1,1.4,3.1,1.6,5,1.7c4.5,0.3,5.6,1.8,5.4,6.2c-0.2,5.2-0.8,10.4,0,15.6c0.2,1.6-0.4,2.3-1.8,3.1c-7.8,4.3-20.1,1.9-26.3-4.3
		c-3.3-3.3-5.4-7.2-8.5-10.5c-1.5-1.6-2.7-2.6-3.6,0.2c-0.9,2.9-2.3,3-4.6,1.3c-1.6-1.2-3.5-1.8-5.2-2.8c-1.9-1.1-4.3-2.1-4.8-4.3
		c-0.9-4.1-3.1-5.6-7.1-5.2c-1,0.1-2.1-0.3-3.1-0.6c-5-1.1-5.5-1.9-5.1-6.7c0.1-1.3,0-2.7,0-4.9c-1.7,3.3-3.2,5.6-6.7,4.1
		c-0.5-0.2-1.1,0.1-1.2,0.7c-0.1,0.6,0.5,1.2,0.9,1.1c4.8-1.1,4,4.1,6.3,5.7c0.6,0.4-0.3,1.2-0.8,1.4c-4.5,1.4-8.3,4.1-12.3,6.4
		c-5.3,3.1-10,0.8-14.9-1c-4.9-1.8-9.4-4.3-13.8-7c-1.2-0.7-1.9-1.4-1.8-2.8c1.1-11,6.8-22.2,20.8-20.8c2.3,0.2,3.7,1,4.1,3.4
		c0.9,4.8,3.5,8.5,7,12c-0.1-2.5-0.1-2.5-2.1-5c-4-4.7-3.8-10.3-4.1-15.9c0-0.9,0.3-1.7,1.2-1.9c6.6-1.5,12.1-6.2,19.2-6.2
		c5.3,0,5.7,0.3,4.3,5.1c-0.7,2.5,1.3,5.2-0.7,7.2C164.6,208.7,163,210.5,162.2,213.5z"/>
	<path class="st4" d="M145.9,248.2c1.9-0.8,1.3-2.2,1.4-3.3c0.3-3.2,2.7-4.7,5-6.2c4.9-3,9.9-5.3,16-4.7c3.1,0.3,5.9-0.4,6.5,4.2
		c0.4,2.8,3.6,4.4,6.2,5.8c3.9,2,4.8,6.8,1.5,9.9c-2.8,2.6-6.1,4.8-10.2,4.9c-4.9,0.2-9.6,1.2-14.3,2.5c-2.7,0.8-4.3-0.1-5.5-2.5
		c-1.6-3.1-3.3-6.2-5-9.3c-1.1,0.6-1.5,1.4-1.1,1.9c2.9,3.7,4,8.5,7.5,11.6c1.9,1.6,1,2.3-0.2,3.3c-4,3.2-8.8,4.5-13.7,5.1
		c-4.2,0.5-8.5-0.1-12.8-0.1c-1.2,0-2.3-0.2-2.3-1.6c0-6.3-3.5-11.7-3.9-17.9c-0.2-3,0-5.9,0.5-8.7c0.7-3.6,3.2-5,6.7-3.9
		c2.7,0.8,5.2,1.9,7.8,3c1.4,0.6,2.7,1,4.2,1.1c1.7,0.1,3.8-1.5,4.9-0.2C146.3,244.2,145.8,246.4,145.9,248.2z"/>
	<path class="st4" d="M183.8,188.5c-1.2-2.6-2.1-4.4-4.3-2.2c-2.5,2.5-6.7,2.8-7.9,6.7c-0.1,0.3-0.6,0.4-1,0.6
		c-2.2,1.1-12.1-1.3-13.6-3.3c-2.4-3.2-3-12.3-0.5-15.3c3.1-3.8,6-7.8,10.3-10.5c1-0.6,1.9-1.5,3.3-1.1c7.3,2.1,14,5.1,18,12.1
		c1.1,1.9,1.5,3.6,0.4,5.7c-0.8,1.4-1,3-0.9,4.7c0.2,2.2-0.5,3.6-3.6,3.5c4.2,3.3,7.7,6.2,8.8,11.1c0.9,4.2-1.7,8.7-5.9,9.8
		c-0.9,0.2-1.2,0-1.6-0.5c-2.9-4.4-7.2-5.1-11.9-4.2c-4.5,0.9-5.4,0.4-4.6-4.1c0.7-4.3,2.6-8.1,6.9-10
		C178.2,190.2,179.5,186.5,183.8,188.5z"/>
	<path class="st4" d="M139.7,164c4.1,3,9.3,4.5,12.8,8.6c1.2,1.4,2,2.6,1.5,4.6c-1.3,5.8-0.7,11.4,3.9,16.3
		c-5.4,1.9-10.5,3.8-15.2,6.2c-5.3,2.8-9.8-0.6-14.6-0.1l0.1,0.1c0.4-0.9-0.3-1.3-0.8-1.7l0.1,0.1c-5.1-6.7-6.6-14.6-7.6-22.7
		c-0.3-2,0.3-2.8,2.1-3.6c5.9-2.7,10.9-7.1,17.5-8.3C139.4,163.7,139.6,163.9,139.7,164z"/>
	<path class="st4" d="M203.7,264.8c1.1,10.8-6.4,15.8-12.9,21.4c-0.3,0.3-1,0.5-1.4,0.3c-6.5-2.6-13.6-4.2-19.2-8.6
		c-2.6-2-3.9-4.8-2.7-8.2c1.6-4.3,2.2-8.9,8.5-9.9c4.7-0.7,8.9-3.7,10-9.2c0.3-1.4,1.1-2,2.5-2.1c0.7-0.1,1.9-0.4,2.1-0.9
		c2.4-6,3.8-1.3,5.3,0.5C200.2,253,205.2,257.7,203.7,264.8z"/>
	<path class="st4" d="M194.6,201.5c-0.9-3.7-2.3-6-3.9-8.3c-3.7-5.7-0.8-14,4.7-18c7-5.1,14.8-4.4,22.5-4.7c1,0,1.8,0.2,2.4,1.1
		c5.2,7.8,7.7,15.9,3.6,25.1c-1.5,3.4-3.9,4-7,2.2c-2.3-1.4-4.3-3.3-7.3-3.9C203.4,193.6,198.8,196,194.6,201.5z"/>
	<path class="st4" d="M232.7,193.2c4.2-0.4,7.6,1.3,10.5,4.1c2.8,2.7,5.5,5.4,8.7,7.5c1.8,1.2,1.7,2.6,0.7,4.1
		c-3.4,5.3-7.6,10.1-11.2,15.3c-1.6,2.4-4.4,4.9-7.5,6.4c-3.9,1.9-9.6,1.7-12.8-1.1c-1.2-1.1-1.3-2.2-0.4-3.5
		c1.7-2.5,3.1-5.3,5.1-7.6c2.5-2.8,1.3-5.2-0.1-7.7c-0.1-0.2-0.3-0.5-0.4-0.7c-4.9-7.4-4.8-8.7,1-15.3
		C228.3,192.7,230.6,193.4,232.7,193.2z"/>
	<path class="st4" d="M212.8,166.6c0.6,1.8-0.5,2.1-1.8,2.4c-1.5,0.3-3.1,1-4.6,0.9c-5.5-0.4-9.6,2.6-13.7,5.5c-1.4,1-2.5,1-3.2-0.5
		c-2.6-5.5-7.5-8.5-12.7-10.9c-2.8-1.3-2.7-2.6-1.1-4.8c3.2-4.2,7.3-7.3,12.3-9.1c0.9-0.3,1.7-0.7,2.6-0.9c2.7-0.7,4.9-3.5,8.2-1.8
		c4.5,2.4,9.2,4.5,11.4,9.8C211.3,160.3,212.6,163.3,212.8,166.6z"/>
	<path class="st4" d="M206,196.2c7.3,0,11.3,4.4,14.8,9.4c1.4,1.9,2.3,4.3,3.8,6.1c1.9,2.1,1.8,3.8,0,5.8c-2.5,2.7-3.8,6.4-6.3,9.1
		c-5.5,5.8-12.5,6.7-17.6,2c-1.5-1.4-2.1-2.5-0.1-4.1c1.8-1.4,2.2-3.4,1.5-5.7c-1.1-4.2-1.8-8.4-5.1-11.9c-2.6-2.7,1.6-9.4,6.2-10.3
		C204.3,196.3,205.4,196.3,206,196.2z"/>
	<path class="st4" d="M128.1,199.6c2.2,2.3,5.1,2.6,8,3.1c0.9,0.2,1.9,0.2,2.8,0.4c1.3,0.2,2.2,0.7,2.2,2.3c0,1.9-1.3,1.6-2.5,1.6
		c-2.4,0-4.8-0.1-7.1,0.1c-7.9,0.8-11.6,6.3-14.2,12.9c-0.2,0.5-0.2,1.1-0.5,1.5c-1.1,1.7-0.2,5.2-2.5,5.1c-2.8-0.1-5.5-2.4-6.6-5.1
		c-1.7-3.9-2.6-8.1-3.9-12.2c-0.3-0.9,0.2-1.5,0.7-2.2c3.2-4.3,6.2-8.6,10.2-12.2c4.1-3.6,6.7-3.3,10,0.9c0.7,0.9,1.1,2.6,3,2.1
		l-0.1-0.1C126.8,199,127.6,199.3,128.1,199.6L128.1,199.6z"/>
	<path class="st4" d="M139.3,163.5c-0.6-2.6,0.4-4.5,2.3-6.4c4-4,9.4-6,13.5-9.9c0.7-0.6,1.5-0.2,2.3-0.1c5.5,0.8,10.3,3.3,14.8,6.2
		c1.4,0.9,3.2,2.7,2,5.1c-0.9,1.8-1.2,4.4-4.4,3c-1-0.5-1.7,0.5-2.5,0.9c-3.7,2.2-7,5-9.5,8.5c-2,2.7-3,1.8-4.9,0.2
		c-3.9-3.2-7.4-7.3-13.2-7C139.6,163.9,139.4,163.7,139.3,163.5z"/>
	<path class="st4" d="M241.3,256.6c-0.1,8.4-0.6,9.2-8.4,12.1c-7.5,2.8-14.6,2.4-20.9-3.1c-1.2-1.1-2.7-2.4-2-4
		c0.9-2,2.5-0.2,3.8-0.1c6.3,0.9,12.2-0.4,18-2.7c1.4-0.5,1.9-1.3,1.4-2.7c-1.8-4.6-0.3-9.2-0.6-13.9c0-0.8-0.2-1.8,0.7-2.1
		c0.8-0.3,1.5,0.5,2,1C239.7,245.4,241.3,250.7,241.3,256.6z"/>
	<path class="st4" d="M187.2,218.7c-2.9-3.9-1.2-6.3,4.6-9.8c3.2-1.9,5.5-0.5,7.1,3.7c0.1,0.2,0.2,0.5,0.3,0.8
		c2.9,8.1-0.2,13.5-8.8,15.1c-1.7,0.3-3.4,0.7-5-1.1c-1.6-1.7-4.2-1.5-6.3-0.7c-2.3,0.9-3.6-0.1-4.5-1.9c-1-2-1.4-4.1,0.2-6
		c0.7-0.8,1.7-1.5,2.8-0.7C180.4,220.2,183.6,219.2,187.2,218.7z M188.6,222.2c0.1-0.4,0.1-0.4,0.1-0.5c0,0.1,0,0.2,0,0.3
		C188.6,222,188.7,222,188.6,222.2z"/>
	<path class="st4" d="M254.2,231.3c0.2,1.9-0.4,3.4-1.7,4.7c-2.9,2.9-5.9,5.7-8.7,8.7c-1.5,1.7-2.3,2.3-3.7-0.1
		c-1.5-2.4-3.3-4.7-5.8-6.4c-2.6-1.7-2.2-4.7,0.5-6.1c4-2.1,7.4-4.9,9.8-8.5c2.3-3.5,4.2-2.3,6.4-0.5
		C253.4,225.2,253.9,228.3,254.2,231.3z"/>
	<path class="st4" d="M165.8,261c1.4,0.2,2.5-0.7,3.1,0.2c0.6,0.8-0.2,1.7-0.6,2.6c-2.7,5.3-4.7,10.5,1.1,15.2c1.3,1,0.3,2-0.9,2.2
		c-3.4,0.5-6.9,0.4-10.2,1.8c-0.4,0.2-1.2,0-1.4-0.3c-2.5-3.5-6.5-5.4-9.3-8.6c-1.3-1.5-0.8-2.4,1-3.1c3.7-1.4,6.9-3.5,9.3-7.1
		C159.7,261.2,163.4,261.6,165.8,261z"/>
	<path class="st4" d="M227.1,191.9c0.9-4.6,0.8-8.5-0.9-12.3c-1.5-3.5-0.7-4.4,2.9-3.8c5.5,0.8,10.5,3.3,13.8,7.3
		c2.9,3.5,3.4,8.6,2.8,14.6C240.4,191.6,234,191.1,227.1,191.9z"/>
	<path class="st4" d="M206.2,260.6c1,0.3,1.3,1.3,1.6,2.1c1.3,4.7,5.4,6.3,9.2,8c3,1.4,3.8,3.5,1.4,5.9c-3.2,3.4-10.8,4.3-14.9,1.8
		c-1.1-0.7-1.3-1.4-0.8-2.2c2.3-4.3,2.6-8.9,2.2-13.6C204.9,261.9,204.7,260.7,206.2,260.6z"/>
	<path class="st4" d="M170.8,207.7c2.1-0.3,4.1-0.7,6.1-0.8c1.1-0.1,3.3,0.7,2.3,1.6c-3.2,2.8-2.8,7.7-6.7,9.8
		c-2.2,1.2-3.8,1.1-4.4-1.7c-0.3-1.7-0.6-3.4-0.7-5.1C167.3,209,166.9,206.2,170.8,207.7z"/>
	<path class="st4" d="M184.4,214.1c0.3,2.1-0.3,3.6-3.1,3.4c-1.8-0.2-3.5-0.2-3.5-2.7c0-2,3.5-6.4,5-5.7
		C184.7,209.9,184.3,212.1,184.4,214.1z"/>
	<path class="st5" d="M128.2,199.7c-0.6-0.4-1.4-0.7-0.8-1.7C127.9,198.4,128.5,198.8,128.2,199.7z"/>
	<path class="st5" d="M188.6,222.2c0.1-0.3,0.1-0.2,0-0.1c0-0.1,0-0.2,0-0.3C188.6,221.8,188.6,221.8,188.6,222.2z"/>
</g>
<g>
	<g class="st1">
		<path class="st6" d="M57.9,161.7c-0.8-1.3-1.6-3.1-1.9-4.4c0,0,0-0.1-0.2-0.4v-0.7c-0.1-0.1-0.4-0.3-0.4-0.4l-0.2-2
			c0-0.4-0.1-0.8-0.2-1.2l-0.3-1.8c0-0.1,0.1-0.3,0.1-0.4c0.1-0.1,0.1-0.2,0.1-0.3c-0.2-0.2-0.3-0.5-0.3-0.9c0-0.1-0.1-0.3-0.1-0.3
			v-0.7c0-1.3,0.1-2.8,0.3-4l0.3-2.1c0.1-0.8,0.2-1.4,0.4-2l0.3-1.5c0.3-1.7,0.8-4,2-5.1c0.3-0.1,0.6-0.5,0.8-0.9
			c0.1-0.2,0.2-0.4,0.7-0.7c0.8-0.4,1.7-0.6,2.9-0.6c1.7,0,3.1,0.6,4.3,2.1c0.5,0.6,1.2,2,1.2,2.1s0,0.3,0.4,0.7l0.9,3.9v0.4
			c0,0.1,0.1,0.3,0.1,0.5c0,1-0.2,2.1-0.4,3.1c-0.1,0.3-0.1,0.6-0.1,0.9v0.4l-0.4,3.9v1c-0.2,0.6-0.7,1.7-0.8,1.8
			c-0.2,0.3-0.3,0.6-0.7,1c-0.3,0.7-0.5,1.7-0.8,2.3c-1,2-1.9,3.5-3.1,4.8c-0.2,0.4-0.7,0.6-1.1,0.9c-0.6,0.4-1.2,0.9-1.6,1.7
			c0.8,1.1,3.2,2.8,3.7,2.9c0.6,0.1,1.2,0.2,1.9,0.2h0.7c1.4-0.2,3.2-0.4,4.2-0.7c0.9-0.2,1.6-0.7,2.4-1.4l1.2-1.1
			c0.2-0.2,0.4-0.3,0.6-0.4l0.2-0.3c2.4-2.6,3.8-4.1,4.1-6.2c0.1-0.8,0.3-1.8,0.5-2.6l0.4-2c0-0.1-0.1-0.3-0.1-0.4v-6.2
			c0-0.1-0.3-2.8-0.4-3.7c0,0-0.1-0.2-0.1-0.6c-0.1-0.2-0.1-0.5-0.1-0.6l-0.3-0.4l-0.7-3.1c-0.2-0.2-0.4-0.5-0.4-0.9
			c-1.8-4.3-4.8-9-7.9-12.9c-0.2-0.2-0.5-0.8-0.7-1.3c-0.1-0.3-0.5-0.7-0.8-1.2c-0.7-1.1-1.1-1.8-1.8-3.1c0-0.1-0.1-0.3-0.2-0.4
			c-0.1-0.3-0.4-0.7-0.4-0.6l-0.2-0.5c-0.8-1.3-1.4-3.2-1.9-4.7l-0.4-1.3c-0.3-1.2-0.4-2.4-0.4-3.6c0-1.1,0-3.1,0.1-3.8
			c0.6-0.6,0.4-0.9,0.6-1.3l1.2-2.7c0.7-1.3,1.8-2.8,2.1-3c2.6-1.3,4.7-2,7.1-2c1.4,0,3.1,0.5,4.3,1.2l1,0.6
			c0.7,0.5,1.3,0.9,2.1,1.7c0,0.3,0.4,0.7,0.7,1.2c0.1,0.5,0.3,0.9,0.3,1c0.1,0.3,0.3,0.9,0.3,1.1c0.1,0,0.3,0.2,0.3,0.2
			s0.2,1.1,0.3,1.2l0.2,0.7c0.1,0.3,0.2,0.9,0.4,1.2c0,0.5-0.1,0.9-0.2,1.1v3.1c0.1,0.2,0.1,0.4,0.1,0.6c0,1.5-1.1,3.5-1.7,4.3
			c-0.3,0.3-0.7,0.7-1.4,1.1h-0.7c-1.5,0-2.9-1.3-3.9-2.2c-0.9-0.7-1.4-2.5-1.5-3.3c-0.1-0.6-0.2-1.5-0.2-2.1l0.1-0.7
			c0.3-1.7,1.9-2.5,2.9-2.5c0.9,0,1.6,0.6,1.8,1.9c0,0.2,0.1,0.7,0.2,1.4c0,0.5,0.1,1,0.2,1.3v1.4c0,0.7,0.1,1.4,0.1,1.7
			c0,0.6,0.2,1.8,0.9,1.8c0.8,0,2-3.4,2-4.3c0-0.4-0.1-0.8-0.2-1.3l0.1-1.8c0-0.4,0.1-0.8,0.1-1.2c-0.1-0.1-0.1-0.2-0.1-0.5v-0.6
			c0-0.1,0-0.3-0.1-0.4c0-0.3-0.2-0.5-0.4-0.7c-0.2-0.2-0.3-0.5-0.4-1c-0.6-3.1-1.8-4-4.3-5.7c-0.1,0-0.2-0.1-0.3-0.1
			c-0.6-0.1-1.2-0.2-1.6-0.4L73.6,94c-1.2,0-2.1,0.3-3.2,1.5c-1.1,1.3-1.8,3.3-1.8,4.9v0.7c0,0,0.1,0.8,0.2,1c0.3,0.9,0.3,2,0.3,3
			c0,0.4,0.1,0.8,0.1,1.2c0.2,2.2,1.6,5.3,2.6,7.1l1.4,2.4l2.4,4.7c0.7,1.2,1.5,2.2,2.4,3.1l0.9,1.5c0.3,0.7,0.8,1.4,1.4,1.9
			l1.6,2.6c0.2,0.2,0.7,1,1,1.6c0.1,0.3,0.3,0.6,0.6,0.9l1.6,3.7c0,0.3,0,0.7,0.2,0.9c0.7,2.1,0.9,4.1,0.9,6.2c0,2.5-0.3,4.9-1,7.4
			c0,0.1-0.2,0.7-0.4,1.2l-0.7,1.9c-0.1,0.2-0.1,0.5-0.1,0.6c-0.3,0.5-1.8,3-2,3.5c-0.1,0-0.6,0.3-0.6,0.4l-0.7,1.2
			c-0.5,0.8-0.9,1.6-1.9,2.6l-1.2,0.9l-2,1.2c-1.2,1.4-2.4,1.9-4,2.3L71,166c-0.3,0.2-0.6,0.4-1,0.4h-0.7c-0.5,0-1.7,0.3-3.9,0.5
			c-0.4,0-0.9-0.1-1.3-0.2c-1.3-0.3-2.7-1.2-3.7-2l-0.8-0.6c0,0-0.4-0.3-0.6-0.6c-0.6,0.2-1,0.1-1.4,0.8c-1.1,0.3-2.3,0.6-3.6,0.6
			c-0.9,0-1.9-0.4-2.8-0.9c0-0.2-0.2-0.3-0.6-0.4l-0.8-0.7c0-0.4,0.1-0.6,0.6-0.6c0.3,0.5,1,0.8,1.6,0.9c0,0.3,0.5,0.5,0.5,0.5
			c0.2,0.1,0.5,0.2,1,0.2c0.4,0,0.6,0,0.9-0.1c0.1,0,0.3-0.1,0.5-0.1C55.7,163.5,57.4,162.9,57.9,161.7z M59.6,133.1l-0.3,0.4
			c-0.1,0.1-0.2,0.2-0.2,0.3c-1.4,1.8-2.2,4-2.5,5.9c0,0.1-0.1,0.4-0.1,0.5v0.4c0,0.5-0.1,0.9-0.2,1.4l-0.2,0.4c0,0.3-0.1,0.8-0.1,1
			c0,0.7,0,1.2-0.2,1.7v2.7l-0.1,0.7c0,0.1,0,0.3,0.1,0.4v1.8c0.1,0.1,0.2,0.4,0.3,0.7c0.1,0.4,0.1,0.8,0.1,1.2
			c0.1,1.1,0.2,2.1,0.5,3c0,0.2,0,0.4,0.2,0.8c0.1,0.4,0.1,0.5,0.1,0.6v0.5l0.5,0.5c0.1,0.6,0.5,1.4,1,2.1l0.1,0.6
			c0,0.1,0.1,0.2,0.2,0.3c1.5-1.5,1.6-1.6,1.6-1.7c0.1-0.1,0.5-1.2,0.6-1.7c0.1-0.4,0.3-0.8,0.4-1.3l0.3-0.4
			c0.1-0.8,0.2-1.6,0.4-2.4l0.4-1.4c0.2-0.8,0.4-1.8,0.7-2.5c0-0.9-0.2-3.8-0.2-3.8c0-0.1,0.1-0.4,0.1-0.7c0.1-0.4,0.1-0.8,0.1-1
			v-1.2c0-2.4-0.4-4.4-0.9-6.2c-0.1-0.3-0.1-0.7-0.1-1c-0.1-0.8-0.2-1.6-0.5-2.2c-0.1-0.3-0.5-1.1-0.9-1.1
			C60.5,132.4,59.9,132.8,59.6,133.1z"/>
		<path class="st6" d="M109.9,158.8c-0.1-0.2-0.2-0.4-0.2-0.6c-0.6-1.8-0.7-3.6-0.7-5.4v-1.7c0-0.6,0.1-1.2,0.1-1.7
			c0-0.4,0-1.1,0.1-1.5c0-0.2,0.1-0.4,0.1-0.6l1-7l-3,5.9c-0.1,0.4-0.4,1-0.5,1.5c-0.2,0.3-0.5,0.8-0.4,0.7l-0.6,0.7v0.4
			c-0.1,0.6-0.4,1-0.6,1.2l-0.6,1c-0.2,0.8-0.8,2.5-1.2,3l-0.6,0.5c-0.2,0.2-0.3,0.5-0.3,0.7c-0.6,1.3-1,2.1-2.8,3.3l-0.4,0.1
			c-0.2,0.2-0.8,0.4-1.6,0.4c-1.2,0-1.8-0.7-2.2-1.4c-0.3-0.4-0.8-1.4-0.9-1.9c0,0-0.3-0.6-0.3-0.8c-0.3-1.5-0.5-3.2-0.5-4.6
			c0-1.1,0.2-2,0.3-3.1c0.2-0.9,0.5-2.7,0.5-3.7c0-0.2,0-0.6-0.1-0.7c0,0-0.1,0.1-0.4,0.4l-1,1.3c-0.1,0.5-0.7,1.7-1,2.2
			c-0.1,0.2-0.5,0.3-0.6,0.3c-0.3,0-0.6-0.2-0.6-0.6c0.1-0.6,0.4-1.2,0.6-1.5c0-0.1,0.2-0.4,0.2-0.5l0.4-0.3l0.5-1.3
			c0.6-0.8,1.5-1.5,2.6-2.1c0.1-0.2,0.4-0.5,1.3-0.5c0.8,0,1.6,0.2,2,0.5c1.1,0.5,2.3,1.9,2.3,3.4c0,0.7-0.1,1.4-0.3,2.2
			c-0.4,1.1-0.6,2.3-1,3.4c-0.5,2.1-0.6,2.6-0.6,4.1c0,0.5,0,0.9-0.1,1.1v0.4c0,0.6,0.1,1.3,0.6,1.3c1,0,2.3-2.2,2.7-2.9
			c1.1-1.7,1.6-2.6,2.4-4.8c0.1-0.2,0.1-0.4,4.4-11.2c0.3-0.7,0.4-1.1,0.8-1.8c0-0.1,0.4-1.3,0.6-1.7c0.6-2.3,0.7-2.3,0.7-2.4
			c0.3-1.1,0.6-2.5,1-3.4c0-0.3,0.2-0.7,0.2-1l0.4-0.6v-0.4c0.2-0.8,1.4-1.9,2.5-1.9c0.3,0,0.8,0.1,0.9,0.2l1.5,1.2
			c0.1,0.3,0.2,1,0.2,1.3v0.6c0,1.3-0.3,2-0.3,3.3c-0.1,0.4-0.1,0.7-0.1,1.4c-0.1,1.8-0.9,4.6-1.2,6.2c-0.6,3.6-1.3,6.9-1.6,11.1
			c0,0.1-0.1,0.4-0.1,0.6c-0.1,0.3-0.1,0.7-0.1,0.7c-0.2,1.5-0.3,2.9-0.3,4.2v2.3c0,0.8,0.1,1.5,0.1,2.2c0.1,0.6,0.4,1.6,1.2,1.7
			c0.8-0.3,1.4-1,2-1.6l0.5-0.6c0.1-0.1,0.7-0.5,0.8-0.5c0,0,0.1-0.2,0.2-0.5c0.1-0.4,0.3-0.6,0.4-0.6l1.4-2.2
			c0.3-0.7,0.9-1.4,1.3-1.8l0.6-1l0.1-0.4c0-0.1,0.9-1.3,1.3-1.8l0.2-0.5l0.5-0.7c0-0.1,0.2-0.3,0.2-0.4c0.1-0.2,0.2-0.3,0.2-0.4
			l1-1.9c0.2-0.2,0.3-0.3,0.6-0.3s0.4,0.2,0.5,0.4c-0.2,0.9-1.4,2.6-1.6,3l-1.4,2.1c-0.3,0.6-0.8,1.3-1.1,1.6
			c-0.3,0.8-0.5,1.4-0.8,1.7l-0.9,1c-0.3,0.4-0.5,0.9-0.5,1c-0.4,0.7-0.3,0.9-0.8,1.4l-0.3,0.4l-0.2,0.5c-0.1,0.1-0.5,0.3-0.5,0.4
			l-1.3,1.8l-0.7,0.6c-0.3,0.3-0.8,0.6-1.5,1c-0.4,0.2-0.8,0.4-1.2,0.4C111.4,164.2,110.4,160.7,109.9,158.8z"/>
		<path class="st6" d="M139.6,144.6c-0.3-0.3-0.4-0.3-0.5-0.9v-0.5c0.1-0.5,0.2-0.5,0.2-1c0-0.5,0.5-1.1,0.6-1.8
			c0.1-1,0.5-1.4,0.5-1.4c0-0.3-0.1-0.3-0.1-0.5c-0.2-1.2-0.4-1.8-0.8-2.1c-0.4-0.3-1.2-1.3-1.7-1.5s-0.7-0.2-1.1-0.2
			c-0.4,0-1,0.1-1.1,0.1c-0.1,0-0.7,0.4-1.2,1.1c-0.4,0.6-0.5,1.7-0.9,2.5c-0.4,0.8-0.4,1.9-0.7,2.9c-0.3,1-0.3,1.6-0.5,2.5
			s0,1.7-0.3,3.8c-0.2,1.1-0.2,3.3-0.2,5v2.9c0,0.3,0.6,2.6,0.6,2.6l1.1,3.2c0.1,0.5,1.3,1.9,1.7,2.2c0.6,0.4,1,0.6,2.1,0.6h0.7
			c1.7-0.1,2.9-0.9,3.5-1.4c0.6-0.5,1.8-2.2,2.4-3.1c0.6-0.9,1.4-3.1,1.6-3.7c0.2-0.6,0.6-1.1,0.9-2.3c0.1-0.3,0.2-0.9,0.2-1.6
			c-0.1-0.4-0.2-1.2-0.2-1.5c0-0.6,0.1-0.9,0.1-1.2c0-1.5,0.4-2.4,0.6-3.9c0.3-1,1-3.8,1.6-4.5c1.7-2.2,3-4.9,6.3-6.8
			c0.6-0.2,1.4-0.6,2.7-0.6c0.8,0,1.9,0.2,2.4,0.8c1,1.1,1.3,3.4,1.5,4.4c0.1,0.5,1,0.7,1,1.3c0,1.1-0.5,1.5-0.6,2.1
			c-0.5,1.5-0.5,2.9-2.3,2.9c-0.7,0-1.4-0.4-1.4-1.2c0-1,0.3-2,0.7-2.9c0.2-0.7,1.2-2.1,1.2-2.9c-0.1-0.8-0.1-1.7-0.6-2.4
			c-0.4-0.8-1.3-1.3-2.2-1.3c-0.6,0-1.1,0.2-1.5,0.9c-0.1,0.2-0.5,0.9-0.5,1l-1.2,2.7c-0.6,1.4-0.7,2.9-0.9,4.5l-0.3,0.5l-0.2,2
			c-0.2,0.9-0.6,2.8-0.6,4.5c0,2.9,0.4,5,1.8,7c0.8,1.1,1.9,1.8,3.1,1.8c1.3,0,2-0.6,3-1.5c1.9-1.7,4-4.2,4.8-6.5
			c0.7-1.2,1.2-2.3,2.1-4.2c0.1-0.1,0.2-0.2,0.3-0.2c0.6,0,1,0.2,1,0.5c0,0.3-0.1,0.6-0.3,1l-1.2,2.6c-0.3,0.3-0.2,0.3-0.8,0.7v0.7
			c-1,1.5-1.9,3.1-3.1,4.4c-0.6,0.9-2.6,2.6-3.6,3.3c-0.3,0.2-1.5,0.4-1.6,0.4c-0.4,0.1-0.5,0.1-1,0.1h-0.4c-0.4,0-1,0-2-0.2
			l-1.2-0.3c-0.7-0.3-1.5-0.9-2.3-1.5c-0.1,0-0.5-0.5-0.6-0.5l-1.8-2.1c-0.7-1.6-0.6-1.4-0.6-1.4s-0.1-0.1-0.3-0.5l-0.2,0.5
			c-0.2,0.6-1,3.1-1,3.1l-1.7,2.9c-0.3,0.7-1.2,1.9-1.7,2.4c-0.5,0.5-2.1,1.9-2.7,2.1c-0.6,0.2-3.5,0.6-3.9,0.6s-3.7-0.8-4.1-1
			c-0.6-0.2-2.5-1.8-2.5-1.8l-1.1-1.4c-0.2-0.2-0.4-0.5-0.7-0.7c-0.3-0.2-0.3-0.4-0.3-0.7c0-0.3-0.2-0.6-0.3-0.8
			c-0.1-0.2-0.2-0.1-0.5-0.2c-0.2-0.1-0.3-0.5-0.3-0.9c-0.1-0.2-0.2-0.8-0.2-0.9s-0.3-0.8-0.5-1.1c-0.2-0.3-0.2-1.2-0.3-1.6
			s-0.2-1.6-0.2-1.8c0-0.4,0.2-1.3,0.2-1.5c-0.1-0.1-0.1-0.2-0.1-0.4c0-0.3,0.1-0.7,0.1-1.1v-1.9c0-0.6,0.3-1.7,0.3-1.9
			c0-0.2,0.2-0.6,0.2-1s0.4-0.5,0.4-0.5s0.1-0.5,0.1-0.7s0.2-0.5,0.4-0.7c0.2-0.2,0.2-0.8,0.3-1.2c0.1-0.4,0.6-1.9,0.9-2.2
			c0.3-0.3,2.5-3.7,2.8-3.8s2.3-1.9,2.8-2c0.5-0.1,1.4-0.4,2-0.4s1.9,0.1,2.2,0.1s2.8,1.5,2.8,1.5s1,3,1,3.1c0,0.1,0.2,0.9,0.2,0.9
			h0.5c0.3,0,1.1,0.9,1.1,0.9s-0.1,1-0.1,1.3c0,0.3-0.3,1.2-1,2c-0.7,0.8-1.3,1.8-1.5,1.8C140.9,145.2,140.1,145.1,139.6,144.6z"/>
		<path class="st6" d="M185.4,158.8c-0.1-0.2-0.2-0.4-0.2-0.6c-0.6-1.8-0.7-3.6-0.7-5.4v-1.7c0-0.6,0.1-1.2,0.1-1.7
			c0-0.4,0-1.1,0.1-1.5c0-0.2,0.1-0.4,0.1-0.6l1-7l-3,5.9c-0.1,0.4-0.4,1-0.5,1.5c-0.2,0.3-0.5,0.8-0.4,0.7l-0.6,0.7v0.4
			c-0.1,0.6-0.4,1-0.6,1.2l-0.6,1c-0.2,0.8-0.8,2.5-1.2,3l-0.6,0.5c-0.2,0.2-0.3,0.5-0.3,0.7c-0.6,1.3-1,2.1-2.8,3.3l-0.4,0.1
			c-0.2,0.2-0.8,0.4-1.6,0.4c-1.2,0-1.8-0.7-2.2-1.4c-0.3-0.4-0.8-1.4-0.9-1.9c0,0-0.3-0.6-0.3-0.8c-0.3-1.5-0.5-3.2-0.5-4.6
			c0-1.1,0.2-2,0.3-3.1c0.2-0.9,0.5-2.7,0.5-3.7c0-0.2,0-0.6-0.1-0.7c0,0-0.1,0.1-0.4,0.4l-1,1.3c-0.1,0.5-0.7,1.7-1,2.2
			c-0.1,0.2-0.5,0.3-0.6,0.3c-0.3,0-0.6-0.2-0.6-0.6c0.1-0.6,0.4-1.2,0.6-1.5c0-0.1,0.2-0.4,0.2-0.5l0.4-0.3l0.5-1.3
			c0.6-0.8,1.5-1.5,2.6-2.1c0.1-0.2,0.4-0.5,1.3-0.5c0.8,0,1.6,0.2,2,0.5c1.1,0.5,2.3,1.9,2.3,3.4c0,0.7-0.1,1.4-0.3,2.2
			c-0.4,1.1-0.6,2.3-1,3.4c-0.5,2.1-0.6,2.6-0.6,4.1c0,0.5,0,0.9-0.1,1.1v0.4c0,0.6,0.1,1.3,0.6,1.3c1,0,2.3-2.2,2.7-2.9
			c1.1-1.7,1.6-2.6,2.4-4.8c0.1-0.2,0.1-0.4,4.4-11.2c0.3-0.7,0.4-1.1,0.8-1.8c0-0.1,0.4-1.3,0.6-1.7c0.6-2.3,0.7-2.3,0.7-2.4
			c0.3-1.1,0.6-2.5,1-3.4c0-0.3,0.2-0.7,0.2-1l0.4-0.6v-0.4c0.2-0.8,1.4-1.9,2.5-1.9c0.3,0,0.8,0.1,0.9,0.2l1.5,1.2
			c0.1,0.3,0.2,1,0.2,1.3v0.6c0,1.3-0.3,2-0.3,3.3c-0.1,0.4-0.1,0.7-0.1,1.4c-0.1,1.8-0.9,4.6-1.2,6.2c-0.6,3.6-1.3,6.9-1.6,11.1
			c0,0.1-0.1,0.4-0.1,0.6c-0.1,0.3-0.1,0.7-0.1,0.7c-0.2,1.5-0.3,2.9-0.3,4.2v2.3c0,0.8,0.1,1.5,0.1,2.2c0.1,0.6,0.4,1.6,1.2,1.7
			c0.8-0.3,1.4-1,2-1.6l0.5-0.6c0.1-0.1,0.7-0.5,0.8-0.5c0,0,0.1-0.2,0.2-0.5c0.1-0.4,0.3-0.6,0.4-0.6l1.4-2.2
			c0.3-0.7,0.9-1.4,1.3-1.8l0.6-1l0.1-0.4c0-0.1,0.9-1.3,1.3-1.8l0.2-0.5l0.5-0.7c0-0.1,0.2-0.3,0.2-0.4c0.1-0.2,0.2-0.3,0.2-0.4
			l1-1.9c0.2-0.2,0.3-0.3,0.6-0.3c0.3,0,0.4,0.2,0.5,0.4c-0.2,0.9-1.4,2.6-1.6,3l-1.4,2.1c-0.3,0.6-0.8,1.3-1.1,1.6
			c-0.3,0.8-0.5,1.4-0.8,1.7l-0.9,1c-0.3,0.4-0.5,0.9-0.5,1c-0.4,0.7-0.3,0.9-0.8,1.4l-0.3,0.4l-0.2,0.5c-0.1,0.1-0.5,0.3-0.5,0.4
			l-1.3,1.8l-0.7,0.6c-0.3,0.3-0.8,0.6-1.5,1c-0.4,0.2-0.8,0.4-1.2,0.4C186.9,164.2,185.9,160.7,185.4,158.8z"/>
		<path class="st6" d="M200.4,146.5c-0.2-2.5-0.2-5.3-0.2-7.8V133c0-0.3,0.2-2.3,0.2-2.6c0.2-3.1,0.1-5.9,0.6-9
			c0.2-1.7,0.8-3.5,1.1-5.1c0.5-2.4,0.8-4.9,1.6-7.3l2.2-6.5c0.2-0.8,0.3-1.6,0.7-2.4l3.2-6.7c0.6-1.3,1.2-2.3,2.1-3.6l1.2-2.4
			c1.3-1.2,2.5-2.9,3.8-4c1.2-1,3.3-2.5,5.1-2.5c2.8,0,3.1,2.8,3.1,5c-0.1,2.7-0.5,5.1-1.1,7.7c-0.1,1.1-0.8,2-0.9,3.2
			c-0.3,1.5-0.6,2.9-1.1,4.2c-0.5,1.9-1.5,3.9-2,5.7c0,0.2-0.2,1.3-0.2,1.5c-0.2,0.7-0.6,1.5-0.9,2.2l-1.3,3.9
			c0,0.1-0.3,0.5-0.3,0.6c-0.9,1.3-0.9,3.4-1.5,4.9c-0.9,2.1-2.4,6.9-3.1,8.1c0,0.2-0.8,1.1-0.8,1.2s-0.1,0.9-0.1,1
			c-0.6,1.9-1.9,3.4-2.4,5.2c0,0.1-0.2,0.6-0.2,0.8c-0.8,1.7-1.5,2.7-2.3,4.2c0,0.1-0.4,0.8-0.4,0.9l-0.3,0.5c0,0.3,0.1,1.2,0.1,1.5
			l0.1,2.1c0.4,3.6,0.9,5.8,1.6,8.9c0.5,2.3,1.1,4.9,1.9,7.1c0.3,1.1,1,2.3,1.6,3.4c1.3,2.7,2.8,5,5.2,5c1,0,2,0,3.1-1
			c0.7-0.6,0.6-0.3,1.4-1.5c0.9-1.3,1.3-2.9,2-4.5c0.2-0.5,0.5-0.6,0.8-0.6c0.2,0,0.5,0.1,0.5,0.2c0,0.7-0.5,1.8-0.9,2.6
			c-1.2,2.6-1.5,4-4.1,5.6c-0.5,0.3-1.6,0.7-2.4,0.7s-1.4-0.1-1.8-0.1c-3-0.6-4-0.8-6-2.5c-2.7-2.2-4.3-5.8-5.5-8.9
			c-0.9-2.1-3.1-11-3.1-11.4L200.4,146.5z M206.1,139.1c0.5-1,0.3-0.9,0.8-2c0.3-0.5,0.9-1.7,1.1-2.3c0.1-0.4,1.3-1.9,1.8-3.6
			c0.5-0.7,0.5-1.9,0.9-2.6c1-2.9,2.7-6.9,3.7-9.5c0-0.1,0.1-0.2,0.1-0.3l0.8-2.7l0.3-0.4c0-0.2,0.4-1.3,0.4-1.5
			c0-0.1,0.4-0.5,0.4-0.6l0.2-0.4c0.5-1.7,1.6-4,2.2-6.3c0-0.1,0.3-0.9,0.3-1.2c0.4-1.6,0.7-3.1,1.3-4.5c0-0.1,0.1-0.5,0.1-0.6
			c0.2-0.7,0.2-2,0.7-2.9c0-0.3,0.6-0.5,0.6-1.5c0-0.1,0.1-0.2,0.2-0.4l0.3-2.5c0-0.1,0.2-0.5,0.2-0.6l0.2-1.8
			c0.1-0.7,0.5-1.2,0.6-3.2v-0.6c0.1-0.5,0.3-1.3,0.3-2.2c0-1.6-0.3-3.1-1.7-3.1c-0.8,0-2.8,1.8-3.4,2.5c-1.3,1.5-2.1,3.2-2.9,4.9
			l-2.9,6.5c-0.1,0.2-0.5,1.3-0.5,1.4c-0.9,2.6-1.8,5.4-2.4,8.1c-0.2,1.1-0.1,1.9-0.3,3c-0.2,0.9-0.7,1.7-0.9,2.6
			c-0.3,1.4-0.2,2.5-0.5,4.1l-0.7,4c-0.4,4.6-1.2,9.3-1.4,16.7c0,0.2,0.2,1.6,0.2,1.8L206.1,139.1z"/>
		<path class="st6" d="M225.8,134.1c1.3,0,2,0.8,2.9,2.3c0.6,1.4,0.6,2.8,0.6,4.1v1.1c0,0-0.1,0.6-0.2,0.8c0,0.1-0.1,0.5-0.2,0.7
			c-0.1,0.3-0.2,0.7-0.2,0.7c0,0.1-0.1,0.5-0.1,0.6c-0.1,0.2-0.1,0.5-0.1,0.5c-0.1,0.3-0.4,0.8-0.4,0.8c-0.1,0.1-0.2,0.2-0.2,0.3
			l-0.2,0.4c-0.3,0.6-0.4,0.8-0.6,1c-0.1,0.1-0.4,0.4-0.6,0.4c-0.7,0.7-1.5,1.4-1.9,1.4c-0.5,0.2-1.1,0.3-1.7,0.4l0.1,1.5
			c0.1,2.8,0.7,5.8,2.8,7.9c0.5,0.6,2.1,0.6,2.6,0.6c0.9,0,1.8-0.1,2.1-0.3l0.6-0.7l0.7-0.5c0.6-0.4,1.8-1.4,1.7-1.3
			c1.6-1.6,2.8-3.3,3.7-4.8c0.5-0.9,1.1-2.2,2.7-5.4c0.1-0.1,0.4-0.2,0.5-0.2c0.3,0,0.3,0.2,0.4,0.7c-1.3,3.1-2.2,4.6-2.8,5.6
			c-0.2,0.3-0.3,0.8-0.5,1l-0.8,1.5c-1.4,2-3.4,3.9-5.4,5.1c-0.5,0.3-3,0.8-3.5,0.8c-2.8,0-5.1-1-7.3-3c-0.6-0.5-1.5-1.8-1.8-2.3
			c-1.2-2.1-1.6-4.5-1.6-7.6c0-0.9,0.1-1.6,0.2-2.2c0.1,0,0.2-0.2,0.2-0.3v-1.6c0.7-3.8,2.4-6.5,5.3-9
			C223.4,134.5,224.2,134.1,225.8,134.1z M223.4,148.4c1.2,0,3.4-2.2,3.8-3.2c0.2-0.5,0.4-1.2,0.5-1.8l0.3-1.2
			c0.1-0.2,0.2-0.7,0.2-0.8v-1.3c0-1.4-0.1-2.5-0.9-3.9c-0.4-0.7-0.8-1.1-1.4-1.1c-0.5,0-1.3,1.5-1.3,1.4c0,0.1-0.5,1.6-0.7,2.2v0.4
			c0,0.1-0.1,0.3-0.2,0.5c-0.1,0.2-0.1,0.4-0.1,0.4c-0.2,0.8-0.3,1.6-0.4,2.4l-0.2,2.2c0,0.2-0.1,0.5-0.1,0.8c0,0.4,0,1-0.1,1.4
			c0,0.2,0,0.8,0.1,1.1C223,148.3,223.2,148.4,223.4,148.4z"/>
		<path class="st6" d="M259.7,157.1c-1.3-1.3-1.6-4.4-1.7-6v-5.1c0-0.3,0.1-1.4,0.1-2.4c0.1-1.1,0.1-2.3,0.1-2.8
			c0-0.2,0-0.8,0.2-1.3c0-0.2,0.1-0.6,0.1-0.7s0.2-0.7,0.4-1.1c0.1-0.2,0.1-0.4,0.1-0.5s0-0.5,0.1-0.8c0-0.2,0.2-0.6,0.2-0.7
			c0-0.2,0-0.9,0.1-1.3c0-0.2,0.1-0.5,0.1-0.6c0-0.2,0.1-0.3,0.1-0.5c0.1-0.5,0.2-1,0.2-1.4c0-0.3-0.1-1.1-0.4-1.1c-0.4,0-2,2-2,2
			c-0.1,0.5-0.4,0.8-0.7,1.1c-0.3,0.3-0.5,0.5-0.6,0.7L256,135c-0.2,0.3-0.3,0.7-0.5,0.9l-0.6,0.8c-0.8,1.2-1.7,2.4-2.1,3.2
			c-0.2,0.4-0.4,0.8-0.5,1.2l-0.4,1.1c-0.1,0.1-0.5,0.8-0.5,0.9s-0.1,0.2-0.1,0.4c-0.1,0.2-0.1,0.4-0.1,0.4l-0.8,1.6
			c-0.1,0.1-0.3,0.7-0.3,0.8c0-0.1-0.3,0.7-0.4,1c-0.2,0.5-0.3,1-0.4,1.5c0,0.2-0.2,0.6-0.2,0.8l-0.9,3.2c-0.6,1.4-0.7,1.8-0.7,2
			l-1,2.7c-0.2,0.4-1.1,0.4-1.3,0.4h-1.1c0,0-0.2-0.4-0.2-0.5c-0.8-2-1.4-4.1-1.4-6.3v-1c0-0.1,0-0.5,0.1-0.7c0-0.4,0.2-0.8,0.2-1.2
			c0-0.2,0.1-0.6,0.2-1c0-0.9-0.3-1.9-0.3-1.9c-0.2-1.2-0.4-1.7-0.6-1.7c-0.4,0-0.7,0.4-1.1,1.2c-0.1,0-0.4,0.2-0.4,0.4l-0.1,0.7
			l-0.6,1.5c-0.2,0.2-0.5,0.4-0.7,0.4c-0.2,0-0.4-0.2-0.4-0.5v-0.4l0.6-1.2c0,0,0.2-0.3,0.2-0.6c1.1-2,2.2-3.3,3.4-3.3
			c1,0,1.9,0.6,2.8,1.2l0.6,0.6c0.6,1,1,2,1.1,4.2c0.1,0,0.3,0.1,0.5,0.1s0.5-0.8,0.6-1.1c0.3-0.5,0.8-1.7,0.9-2.3l1.3-3l1.8-3.6
			l0.8-0.9l1.1-2.1l0.3-0.3l1.2-1.8c0.6-1,1.3-1.9,2.2-2.6l0.7-0.4c0-0.1,0.2-0.2,0.2-0.3c0.2-0.4,0.8-0.7,0.8-0.7h1.3
			c1.1,0.1,1.7,1,2.2,1.6c0.4,0.6,0.9,1.6,1.1,2.4c0.3,1.1,0.6,2.3,0.6,3.5v0.5c0,0.2-0.1,0.8-0.1,1.5c-0.1,0.7-0.1,1.5-0.1,1.6v3.7
			c0,0.1-0.1,0.3-0.1,0.6c-0.1,0.3-0.1,0.6-0.1,0.6c-0.2,2.5-0.3,4.8-0.3,7.3c0,1.1,0,2.5,0.1,3.6c0,0.1,0.2,0.5,0.3,0.6
			c0.2,0.8,0.3,1.6,1,1.6c0.9,0,2-0.6,3.8-2.9c0.7-0.4,1-1.1,1.3-1.3c0-0.1,0.2-0.5,0.2-0.6c0.2-0.4,0.6-0.9,0.7-1.2
			c0-0.1,0.5-1.1,0.5-1.2c0.7-1.3,1.5-3.2,2.2-4.5c0.1,0,0.4-0.1,0.6-0.1c0.2,0,0.4,0.3,0.4,0.5c-0.2,1-1,2.6-1.2,3
			c-1.6,2.8-2.3,4.7-4.2,7c-1.4,1.8-2.9,3.5-5,3.5C262.6,159.9,260.9,158.7,259.7,157.1z"/>
		<path class="st6" d="M274.3,132.3c0-1.7,0.3-4.3,0.5-9.9c-1.3,0.1-2.2,0.2-3.5,0.2c-0.1,0-0.9-0.5-1-0.5h-0.7
			c-0.6-0.1-1.6-0.4-2-0.7l-1.1-1.2c-0.5-0.6-1-1.5-1-2.6c0-1.5,0.6-3.1,2.3-3.1c0.2,0,0.6,0,0.8,0.1c-0.4,0.5-0.7,1.5-0.7,2.6
			c0,1.6,0.6,3.5,2.3,3.9c0.2,0.1,0.7,0.1,1.2,0.1c1.3,0,2.2-0.1,3.6-0.2c0-0.5,0.1-0.9,0.2-1.4c0.3-1.8,0.6-3.6,0.6-5.5v-1.4
			c0.4-1.5,0.4-1.7,0.4-2.1c0-0.5,0.2-1,0.2-1.6c0-0.1,0.3-1.7,0.4-1.7c0,0,0.9-1.6,2.1-1.7c0.1,0,0.4,0.3,0.5,0.3l2.1,0.1l0.6,0.5
			c0,0,0.5,1.2,0.5,2.6c0,0.1-0.3,0.5-0.3,0.6s-0.3,2.3-0.3,3l-1.1,7.7l3.5-0.6c2.3-0.4,4-0.9,6.6-1.4c0.4-0.1,3.3-0.7,5.4-0.7
			c0.7,0,2.3,0.2,2.3,1.4c0,0.4-0.4,0.8-0.5,0.8c-0.4,0-0.4-0.6-1.2-0.8c-0.7-0.2-1.5-0.2-1.9-0.2c-2.9,0-3.6,0.5-4.1,0.6
			c-3.5,0.6-6.5,1.5-10.2,2.1c-0.2,1.8-0.6,3.6-0.7,5.3l-0.2,2.6c-0.1,1.8-0.3,4.9-0.3,4.7c0,2.9-0.2,2.9-0.2,2.9s0,0,0.1,0.7
			c0.2,1.5,0.1,2.6,0.2,3.8v0.6l-0.2,1c0,0.1,0.2,0.9,0.2,1v0.9c0,0.1,0.1,1,0.2,1.3v1.4c0.1,0.3,0.1,0.6,0.1,0.8v0.4
			c0.3,1,0.1,2,0.3,3c0.1,0.4,0.1,1.7,0.1,1.8s0.3,0.9,0.3,1c0,0.2,0.1,1.4,0.1,1.6c0,0.1,0.3,0.4,0.3,0.5l0.2,1.2
			c0.1,0.1,0.2,0.5,0.2,0.6c0.1,0.5,0.3,1.4,1.7,1.7c1.3-0.1,2.4-1.3,2.4-1.3l1.7-2.5c0.5-0.7,0.8-1.5,1.3-2.5
			c0.5-1,1.2-2.2,1.4-2.9c0.2-0.7,1-1.9,1.1-2.4c0-0.1,0.1-0.2,0.2-0.6c0.6-1.4,1.3-2.7,1.8-4l0.6-1.6c0-0.1,0.4-1.5,0.4-1.6
			c0,0,0.1-0.2,0.2-0.4c-0.2-1.3-0.4-3.4-0.4-5.7c0.8-2.3,1-4.9,3.3-6.3c0.3-0.2,0.8-0.5,1.1-0.6c0.2,0,1.2-0.1,1.7-0.1
			c0.6,0,1.5,0.2,1.6,1.3c0,0.5-0.2,0.9-0.2,1l0.1,0.6c-0.2,1.6-1.2,2.9-1.5,4.3v1.8l-0.2,0.7c0.1,0.3,0.2,0.1,0.3,0.5v0.6
			c0.1,0.9,0.4,3.3,0.4,3.4s0.5,1.1,0.5,1.2l0.1,2l0.2,0.4c0.2,0.9,0.2,2,0.5,2.9c0.3,0.5,0.3,3.5,0.3,3.5l-0.1,2l0.3-0.3l0.7-0.3
			c0.3-0.3,0.3-0.4,0.6-0.8c1.1-1.1,2.1-2.3,2.8-3.2c1-1.4,1.7-3.1,2.1-3.9c0.1-0.1,0.2-0.2,0.4-0.2c0.4,0,0.7,0.4,0.8,0.8
			c-0.6,1.7-1.9,4.3-3.8,6.3c-1.6,1.7-1.7,1.7-3.5,3.2c-0.1,0.1-0.5,0.3-0.5,0.7c0,0.2-0.2,0.8-0.2,0.9l-0.2,0.5
			c-0.1,0.2-0.3,2.2-0.4,2.4c0,0.1-0.4,0.7-0.4,0.8s-0.2,0.9-0.2,1c0,0.1-0.4,0.5-0.4,0.6c-0.3,0.6-0.4,1.2-0.6,1.8
			c-0.5,1-0.7,1.5-1.4,2.4l-0.2,0.3c0,0-0.5,0.4-0.5,0.5s-0.2,0.7-0.2,0.8l-0.4,0.8l-1.9,1.6c-0.4,0.4-1.7,1.2-2.6,1.2
			c-0.5,0-1.7-0.5-1.9-1c-0.1-0.4-0.4-1-0.4-1.4c0-1,0.8-4.7,1.7-5.7c1.3-2.3,3.3-4.6,5.6-6.4c0-0.4,0.1-2,0.1-2.5
			c0-1.3-0.2-2.1-0.6-4.6c-0.2-1-1.2-4.1-1.7-5.8l-0.4-1.4c0,0.1-0.1,0.5-0.2,0.7c-0.2,0.7-0.2,1.2-0.6,2.1
			c-0.5,1.2-0.9,2.4-1.5,3.4c-0.3,0.6-1.3,2.7-1.6,3.1c-0.5,0.6-1.1,2.3-1.1,2.4s-0.7,1.6-1.2,2.3c-0.5,0.7-1,1.9-1.6,2.5
			s-2.3,2.2-2.8,2.4c-0.5,0.2-2.1,0.3-3.1,0.3c-0.8,0-2.1-1.3-2.3-1.5c-0.3-0.3-1.3-2.1-1.4-2.2l-0.2-0.5c-0.3-0.7-0.9-2-1.2-3.1
			c0-0.1-0.3-0.7-0.3-0.8c-0.2-0.5-0.3-1.6-0.4-2.2l-0.5-2.4c-0.3-1.4-0.2-2.9-0.5-4.3V144c-0.1-0.3-0.1-1-0.1-1.6
			c0-0.5,0-0.9,0.1-1.1v-6.2V132.3z M294.8,161.5c-0.2,0.1-0.6,0.5-0.6,0.5c-0.1,0.3-0.9,1.4-1,1.8c-0.5,0.9-0.5,1.4-1.2,2.3v0.7
			c0,0.1-0.2,0.5-0.2,0.5c-0.2,0.6-0.3,1.8-0.3,1.9c0,0.5,0,1.4,0.9,1.4c0.9,0,1.4-1.2,1.8-1.8l0.8-1c0.6-1.8,0.7-1.9,0.7-1.9
			c0.6-1.6,0.7-2.7,1.2-4.3c0.1-0.3,0.2-1.4,0.3-2.7C296.1,159.9,294.8,161.5,294.8,161.5z M300.4,129.7c0-0.3-0.1-0.3-0.1-0.3
			c-0.1,0-0.1,0.1-0.2,0.3c-0.2,0.4-0.1,0.9-0.2,1.4c0,0.1-0.1,0.7-0.1,0.8C299.9,131.2,300.4,130.6,300.4,129.7z"/>
	</g>
</g>
</svg>
